%TF.GenerationSoftware,KiCad,Pcbnew,7.0.6*%
%TF.CreationDate,2023-11-18T03:16:50+01:00*%
%TF.ProjectId,LoRa_Sensor,4c6f5261-5f53-4656-9e73-6f722e6b6963,rev?*%
%TF.SameCoordinates,Original*%
%TF.FileFunction,Copper,L2,Bot*%
%TF.FilePolarity,Positive*%
%FSLAX46Y46*%
G04 Gerber Fmt 4.6, Leading zero omitted, Abs format (unit mm)*
G04 Created by KiCad (PCBNEW 7.0.6) date 2023-11-18 03:16:50*
%MOMM*%
%LPD*%
G01*
G04 APERTURE LIST*
%TA.AperFunction,ComponentPad*%
%ADD10C,1.550000*%
%TD*%
%TA.AperFunction,ComponentPad*%
%ADD11R,1.700000X1.700000*%
%TD*%
%TA.AperFunction,ComponentPad*%
%ADD12O,1.700000X1.700000*%
%TD*%
%TA.AperFunction,ComponentPad*%
%ADD13C,1.600000*%
%TD*%
%TA.AperFunction,ComponentPad*%
%ADD14C,5.000000*%
%TD*%
%TA.AperFunction,ViaPad*%
%ADD15C,0.800000*%
%TD*%
G04 APERTURE END LIST*
D10*
%TO.P,J2,7,7*%
%TO.N,unconnected-(J2-Pad7)*%
X126520000Y-57516000D03*
%TO.P,J2,8,8*%
%TO.N,unconnected-(J2-Pad8)*%
X121440000Y-56500000D03*
%TO.P,J2,9,9*%
%TO.N,unconnected-(J2-Pad9)*%
X121440000Y-58532000D03*
%TD*%
D11*
%TO.P,J1,1,Pin_1*%
%TO.N,GND*%
X128200000Y-65125000D03*
D12*
%TO.P,J1,2,Pin_2*%
%TO.N,+BATT*%
X128200000Y-67665000D03*
%TD*%
D13*
%TO.P,U2,1,+*%
%TO.N,+BATT*%
X117495000Y-117100000D03*
%TO.P,U2,2,-*%
%TO.N,GND*%
X102505000Y-117100000D03*
D14*
%TO.P,U2,3,3*%
%TO.N,unconnected-(U2-Pad3)*%
X102505000Y-89920000D03*
%TO.P,U2,4,4*%
%TO.N,unconnected-(U2-Pad4)*%
X117495000Y-89920000D03*
%TD*%
D15*
%TO.N,GND*%
X94250000Y-73250000D03*
X115000000Y-57000000D03*
X110500000Y-82000000D03*
X114000000Y-57000000D03*
X114000000Y-55000000D03*
X122212500Y-107000000D03*
X116250000Y-70500000D03*
X105750000Y-76000000D03*
X114750000Y-76000000D03*
X105750000Y-64000000D03*
X116000000Y-57000000D03*
X123250000Y-55250000D03*
X116000000Y-56000000D03*
X114000000Y-56000000D03*
X115000000Y-55000000D03*
X115000000Y-56000000D03*
X122212500Y-92000000D03*
X106750000Y-82250000D03*
X104750000Y-76000000D03*
X97500000Y-71250000D03*
X93000000Y-67800000D03*
X112000000Y-82000000D03*
X116000000Y-55000000D03*
X122250000Y-97000000D03*
X122250000Y-102000000D03*
%TD*%
%TA.AperFunction,Conductor*%
%TO.N,GND*%
G36*
X129942539Y-54519685D02*
G01*
X129988294Y-54572489D01*
X129999500Y-54624000D01*
X129999500Y-123998560D01*
X129999434Y-124001424D01*
X129991512Y-124172761D01*
X129981697Y-124372539D01*
X129981177Y-124378065D01*
X129955337Y-124563310D01*
X129927672Y-124749809D01*
X129926696Y-124754908D01*
X129883317Y-124939345D01*
X129838018Y-125120186D01*
X129836662Y-125124825D01*
X129776093Y-125305540D01*
X129713557Y-125480314D01*
X129711899Y-125484470D01*
X129634638Y-125659452D01*
X129555410Y-125826964D01*
X129553527Y-125830627D01*
X129460221Y-125998142D01*
X129365032Y-126156954D01*
X129363002Y-126160118D01*
X129254437Y-126318608D01*
X129144121Y-126467350D01*
X129142021Y-126470025D01*
X129019132Y-126618016D01*
X128894695Y-126755310D01*
X128892596Y-126757514D01*
X128757514Y-126892596D01*
X128755310Y-126894695D01*
X128618016Y-127019132D01*
X128470025Y-127142021D01*
X128467350Y-127144121D01*
X128318608Y-127254437D01*
X128160118Y-127363002D01*
X128156954Y-127365032D01*
X127998142Y-127460221D01*
X127830627Y-127553527D01*
X127826964Y-127555410D01*
X127659452Y-127634638D01*
X127484470Y-127711899D01*
X127480314Y-127713557D01*
X127305540Y-127776093D01*
X127124825Y-127836662D01*
X127120186Y-127838018D01*
X126939345Y-127883317D01*
X126754908Y-127926696D01*
X126749809Y-127927672D01*
X126563310Y-127955337D01*
X126378065Y-127981177D01*
X126372539Y-127981697D01*
X126172761Y-127991512D01*
X126001424Y-127999434D01*
X125998560Y-127999500D01*
X94001440Y-127999500D01*
X93998576Y-127999434D01*
X93827238Y-127991512D01*
X93627459Y-127981697D01*
X93621933Y-127981177D01*
X93436689Y-127955337D01*
X93250189Y-127927672D01*
X93245090Y-127926696D01*
X93060654Y-127883317D01*
X92879812Y-127838018D01*
X92875173Y-127836662D01*
X92694459Y-127776093D01*
X92519685Y-127713558D01*
X92515527Y-127711899D01*
X92340547Y-127634638D01*
X92173034Y-127555410D01*
X92169371Y-127553527D01*
X92001857Y-127460221D01*
X91843044Y-127365032D01*
X91839879Y-127363002D01*
X91730371Y-127287989D01*
X91681392Y-127254437D01*
X91532632Y-127144109D01*
X91529989Y-127142034D01*
X91381980Y-127019129D01*
X91244688Y-126894695D01*
X91242484Y-126892596D01*
X91107402Y-126757514D01*
X91105314Y-126755321D01*
X90980867Y-126618016D01*
X90857957Y-126470001D01*
X90855897Y-126467377D01*
X90745559Y-126318603D01*
X90636995Y-126160118D01*
X90634966Y-126156954D01*
X90539778Y-125998142D01*
X90512261Y-125948740D01*
X90446457Y-125830601D01*
X90444588Y-125826964D01*
X90420852Y-125776779D01*
X90365370Y-125659474D01*
X90288100Y-125484471D01*
X90286450Y-125480339D01*
X90223906Y-125305540D01*
X90163327Y-125124797D01*
X90161989Y-125120221D01*
X90116675Y-124939315D01*
X90111402Y-124916895D01*
X90073294Y-124754871D01*
X90072329Y-124749828D01*
X90044662Y-124563310D01*
X90018819Y-124378048D01*
X90018302Y-124372549D01*
X90008487Y-124172761D01*
X90003633Y-124067763D01*
X92145787Y-124067763D01*
X92175413Y-124337013D01*
X92175415Y-124337024D01*
X92234564Y-124563270D01*
X92243928Y-124599088D01*
X92349870Y-124848390D01*
X92421998Y-124966575D01*
X92490979Y-125079605D01*
X92490986Y-125079615D01*
X92664253Y-125287819D01*
X92664259Y-125287824D01*
X92769240Y-125381887D01*
X92865998Y-125468582D01*
X93091910Y-125618044D01*
X93337176Y-125733020D01*
X93337183Y-125733022D01*
X93337185Y-125733023D01*
X93596557Y-125811057D01*
X93596564Y-125811058D01*
X93596569Y-125811060D01*
X93864561Y-125850500D01*
X93864566Y-125850500D01*
X94067636Y-125850500D01*
X94119133Y-125846730D01*
X94270156Y-125835677D01*
X94382758Y-125810593D01*
X94534546Y-125776782D01*
X94534548Y-125776781D01*
X94534553Y-125776780D01*
X94787558Y-125680014D01*
X95023777Y-125547441D01*
X95238177Y-125381888D01*
X95426186Y-125186881D01*
X95583799Y-124966579D01*
X95692626Y-124754909D01*
X95707649Y-124725690D01*
X95707651Y-124725684D01*
X95707656Y-124725675D01*
X95795118Y-124469305D01*
X95844319Y-124202933D01*
X95849259Y-124067763D01*
X124145787Y-124067763D01*
X124175413Y-124337013D01*
X124175415Y-124337024D01*
X124234564Y-124563270D01*
X124243928Y-124599088D01*
X124349870Y-124848390D01*
X124421998Y-124966575D01*
X124490979Y-125079605D01*
X124490986Y-125079615D01*
X124664253Y-125287819D01*
X124664259Y-125287824D01*
X124769240Y-125381887D01*
X124865998Y-125468582D01*
X125091910Y-125618044D01*
X125337176Y-125733020D01*
X125337183Y-125733022D01*
X125337185Y-125733023D01*
X125596557Y-125811057D01*
X125596564Y-125811058D01*
X125596569Y-125811060D01*
X125864561Y-125850500D01*
X125864566Y-125850500D01*
X126067636Y-125850500D01*
X126119133Y-125846730D01*
X126270156Y-125835677D01*
X126382758Y-125810593D01*
X126534546Y-125776782D01*
X126534548Y-125776781D01*
X126534553Y-125776780D01*
X126787558Y-125680014D01*
X127023777Y-125547441D01*
X127238177Y-125381888D01*
X127426186Y-125186881D01*
X127583799Y-124966579D01*
X127692626Y-124754909D01*
X127707649Y-124725690D01*
X127707651Y-124725684D01*
X127707656Y-124725675D01*
X127795118Y-124469305D01*
X127844319Y-124202933D01*
X127854212Y-123932235D01*
X127824586Y-123662982D01*
X127756072Y-123400912D01*
X127650130Y-123151610D01*
X127509018Y-122920390D01*
X127419747Y-122813119D01*
X127335746Y-122712180D01*
X127335740Y-122712175D01*
X127134002Y-122531418D01*
X126908092Y-122381957D01*
X126908090Y-122381956D01*
X126662824Y-122266980D01*
X126662819Y-122266978D01*
X126662814Y-122266976D01*
X126403442Y-122188942D01*
X126403428Y-122188939D01*
X126287791Y-122171921D01*
X126135439Y-122149500D01*
X125932369Y-122149500D01*
X125932364Y-122149500D01*
X125729844Y-122164323D01*
X125729831Y-122164325D01*
X125465453Y-122223217D01*
X125465446Y-122223220D01*
X125212439Y-122319987D01*
X124976226Y-122452557D01*
X124761822Y-122618112D01*
X124573822Y-122813109D01*
X124573816Y-122813116D01*
X124416202Y-123033419D01*
X124416199Y-123033424D01*
X124292350Y-123274309D01*
X124292343Y-123274327D01*
X124204884Y-123530685D01*
X124204881Y-123530699D01*
X124155681Y-123797068D01*
X124155680Y-123797075D01*
X124145787Y-124067763D01*
X95849259Y-124067763D01*
X95854212Y-123932235D01*
X95824586Y-123662982D01*
X95756072Y-123400912D01*
X95650130Y-123151610D01*
X95509018Y-122920390D01*
X95419747Y-122813119D01*
X95335746Y-122712180D01*
X95335740Y-122712175D01*
X95134002Y-122531418D01*
X94908092Y-122381957D01*
X94908090Y-122381956D01*
X94662824Y-122266980D01*
X94662819Y-122266978D01*
X94662814Y-122266976D01*
X94403442Y-122188942D01*
X94403428Y-122188939D01*
X94287791Y-122171921D01*
X94135439Y-122149500D01*
X93932369Y-122149500D01*
X93932364Y-122149500D01*
X93729844Y-122164323D01*
X93729831Y-122164325D01*
X93465453Y-122223217D01*
X93465446Y-122223220D01*
X93212439Y-122319987D01*
X92976226Y-122452557D01*
X92761822Y-122618112D01*
X92573822Y-122813109D01*
X92573816Y-122813116D01*
X92416202Y-123033419D01*
X92416199Y-123033424D01*
X92292350Y-123274309D01*
X92292343Y-123274327D01*
X92204884Y-123530685D01*
X92204881Y-123530699D01*
X92155681Y-123797068D01*
X92155680Y-123797075D01*
X92145787Y-124067763D01*
X90003633Y-124067763D01*
X90000566Y-124001423D01*
X90000500Y-123998560D01*
X90000500Y-117100002D01*
X101200034Y-117100002D01*
X101219858Y-117326599D01*
X101219860Y-117326610D01*
X101278730Y-117546317D01*
X101278734Y-117546326D01*
X101374865Y-117752481D01*
X101374866Y-117752483D01*
X101425973Y-117825471D01*
X101425973Y-117825472D01*
X102013866Y-117237578D01*
X102036318Y-117314040D01*
X102115605Y-117437413D01*
X102226438Y-117533451D01*
X102359839Y-117594373D01*
X102363633Y-117594918D01*
X101779526Y-118179025D01*
X101779526Y-118179026D01*
X101852512Y-118230131D01*
X101852516Y-118230133D01*
X102058673Y-118326265D01*
X102058682Y-118326269D01*
X102278389Y-118385139D01*
X102278400Y-118385141D01*
X102504998Y-118404966D01*
X102505002Y-118404966D01*
X102731599Y-118385141D01*
X102731610Y-118385139D01*
X102951317Y-118326269D01*
X102951331Y-118326264D01*
X103157478Y-118230136D01*
X103230472Y-118179025D01*
X102646366Y-117594918D01*
X102650161Y-117594373D01*
X102783562Y-117533451D01*
X102894395Y-117437413D01*
X102973682Y-117314040D01*
X102996133Y-117237580D01*
X103584025Y-117825472D01*
X103635136Y-117752478D01*
X103731264Y-117546331D01*
X103731269Y-117546317D01*
X103790139Y-117326610D01*
X103790141Y-117326599D01*
X103809966Y-117100002D01*
X103809966Y-117100001D01*
X116189532Y-117100001D01*
X116209364Y-117326686D01*
X116209366Y-117326697D01*
X116268258Y-117546488D01*
X116268261Y-117546497D01*
X116364431Y-117752732D01*
X116364432Y-117752734D01*
X116494954Y-117939141D01*
X116655858Y-118100045D01*
X116655861Y-118100047D01*
X116842266Y-118230568D01*
X117048504Y-118326739D01*
X117268308Y-118385635D01*
X117430230Y-118399801D01*
X117494998Y-118405468D01*
X117495000Y-118405468D01*
X117495002Y-118405468D01*
X117551673Y-118400509D01*
X117721692Y-118385635D01*
X117941496Y-118326739D01*
X118147734Y-118230568D01*
X118334139Y-118100047D01*
X118495047Y-117939139D01*
X118625568Y-117752734D01*
X118721739Y-117546496D01*
X118780635Y-117326692D01*
X118800468Y-117100000D01*
X118780635Y-116873308D01*
X118721739Y-116653504D01*
X118625568Y-116447266D01*
X118495047Y-116260861D01*
X118495045Y-116260858D01*
X118334141Y-116099954D01*
X118147734Y-115969432D01*
X118147732Y-115969431D01*
X117941497Y-115873261D01*
X117941488Y-115873258D01*
X117721697Y-115814366D01*
X117721693Y-115814365D01*
X117721692Y-115814365D01*
X117721691Y-115814364D01*
X117721686Y-115814364D01*
X117495002Y-115794532D01*
X117494998Y-115794532D01*
X117268313Y-115814364D01*
X117268302Y-115814366D01*
X117048511Y-115873258D01*
X117048502Y-115873261D01*
X116842267Y-115969431D01*
X116842265Y-115969432D01*
X116655858Y-116099954D01*
X116494954Y-116260858D01*
X116364432Y-116447265D01*
X116364431Y-116447267D01*
X116268261Y-116653502D01*
X116268258Y-116653511D01*
X116209366Y-116873302D01*
X116209364Y-116873313D01*
X116189532Y-117099998D01*
X116189532Y-117100001D01*
X103809966Y-117100001D01*
X103809966Y-117099997D01*
X103790141Y-116873400D01*
X103790139Y-116873389D01*
X103731269Y-116653682D01*
X103731265Y-116653673D01*
X103635133Y-116447516D01*
X103635131Y-116447512D01*
X103584026Y-116374526D01*
X103584025Y-116374526D01*
X102996132Y-116962418D01*
X102973682Y-116885960D01*
X102894395Y-116762587D01*
X102783562Y-116666549D01*
X102650161Y-116605627D01*
X102646365Y-116605081D01*
X103230472Y-116020974D01*
X103230471Y-116020973D01*
X103157483Y-115969866D01*
X103157481Y-115969865D01*
X102951326Y-115873734D01*
X102951317Y-115873730D01*
X102731610Y-115814860D01*
X102731599Y-115814858D01*
X102505002Y-115795034D01*
X102504998Y-115795034D01*
X102278400Y-115814858D01*
X102278389Y-115814860D01*
X102058682Y-115873730D01*
X102058673Y-115873734D01*
X101852513Y-115969868D01*
X101779527Y-116020972D01*
X101779526Y-116020973D01*
X102363635Y-116605081D01*
X102359839Y-116605627D01*
X102226438Y-116666549D01*
X102115605Y-116762587D01*
X102036318Y-116885960D01*
X102013867Y-116962419D01*
X101425973Y-116374526D01*
X101374868Y-116447513D01*
X101278734Y-116653673D01*
X101278730Y-116653682D01*
X101219860Y-116873389D01*
X101219858Y-116873400D01*
X101200034Y-117099997D01*
X101200034Y-117100002D01*
X90000500Y-117100002D01*
X90000500Y-89920003D01*
X99499415Y-89920003D01*
X99519738Y-90268927D01*
X99519739Y-90268938D01*
X99580428Y-90613127D01*
X99580430Y-90613134D01*
X99680674Y-90947972D01*
X99819107Y-91268895D01*
X99819113Y-91268908D01*
X99993870Y-91571597D01*
X100202584Y-91851949D01*
X100202589Y-91851955D01*
X100326463Y-91983253D01*
X100442442Y-92106183D01*
X100618903Y-92254251D01*
X100710186Y-92330847D01*
X100710194Y-92330853D01*
X101002203Y-92522911D01*
X101002207Y-92522913D01*
X101314549Y-92679777D01*
X101642989Y-92799319D01*
X101983086Y-92879923D01*
X102330241Y-92920500D01*
X102330248Y-92920500D01*
X102679752Y-92920500D01*
X102679759Y-92920500D01*
X103026914Y-92879923D01*
X103367011Y-92799319D01*
X103695451Y-92679777D01*
X104007793Y-92522913D01*
X104299811Y-92330849D01*
X104567558Y-92106183D01*
X104807412Y-91851953D01*
X105016130Y-91571596D01*
X105190889Y-91268904D01*
X105329326Y-90947971D01*
X105429569Y-90613136D01*
X105490262Y-90268927D01*
X105510585Y-89920003D01*
X114489415Y-89920003D01*
X114509738Y-90268927D01*
X114509739Y-90268938D01*
X114570428Y-90613127D01*
X114570430Y-90613134D01*
X114670674Y-90947972D01*
X114809107Y-91268895D01*
X114809113Y-91268908D01*
X114983870Y-91571597D01*
X115192584Y-91851949D01*
X115192589Y-91851955D01*
X115316463Y-91983253D01*
X115432442Y-92106183D01*
X115608903Y-92254251D01*
X115700186Y-92330847D01*
X115700194Y-92330853D01*
X115992203Y-92522911D01*
X115992207Y-92522913D01*
X116304549Y-92679777D01*
X116632989Y-92799319D01*
X116973086Y-92879923D01*
X117320241Y-92920500D01*
X117320248Y-92920500D01*
X117669752Y-92920500D01*
X117669759Y-92920500D01*
X118016914Y-92879923D01*
X118357011Y-92799319D01*
X118685451Y-92679777D01*
X118997793Y-92522913D01*
X119289811Y-92330849D01*
X119557558Y-92106183D01*
X119797412Y-91851953D01*
X120006130Y-91571596D01*
X120180889Y-91268904D01*
X120319326Y-90947971D01*
X120419569Y-90613136D01*
X120480262Y-90268927D01*
X120500585Y-89920000D01*
X120480262Y-89571073D01*
X120480260Y-89571061D01*
X120419571Y-89226872D01*
X120419569Y-89226865D01*
X120319325Y-88892027D01*
X120180892Y-88571104D01*
X120180889Y-88571096D01*
X120006130Y-88268404D01*
X120006129Y-88268402D01*
X119797415Y-87988050D01*
X119797410Y-87988044D01*
X119681433Y-87865117D01*
X119557558Y-87733817D01*
X119409488Y-87609572D01*
X119289813Y-87509152D01*
X119289805Y-87509146D01*
X118997796Y-87317088D01*
X118685458Y-87160226D01*
X118685452Y-87160223D01*
X118357012Y-87040681D01*
X118357009Y-87040680D01*
X118016915Y-86960077D01*
X117973519Y-86955004D01*
X117669759Y-86919500D01*
X117320241Y-86919500D01*
X117016480Y-86955004D01*
X116973085Y-86960077D01*
X116973083Y-86960077D01*
X116632990Y-87040680D01*
X116632987Y-87040681D01*
X116304547Y-87160223D01*
X116304541Y-87160226D01*
X115992203Y-87317088D01*
X115700194Y-87509146D01*
X115700186Y-87509152D01*
X115432442Y-87733817D01*
X115432440Y-87733819D01*
X115192589Y-87988044D01*
X115192584Y-87988050D01*
X114983870Y-88268402D01*
X114809113Y-88571091D01*
X114809107Y-88571104D01*
X114670674Y-88892027D01*
X114570430Y-89226865D01*
X114570428Y-89226872D01*
X114509739Y-89571061D01*
X114509738Y-89571072D01*
X114489415Y-89919996D01*
X114489415Y-89920003D01*
X105510585Y-89920003D01*
X105510585Y-89920000D01*
X105490262Y-89571073D01*
X105490260Y-89571061D01*
X105429571Y-89226872D01*
X105429569Y-89226865D01*
X105329325Y-88892027D01*
X105190892Y-88571104D01*
X105190889Y-88571096D01*
X105016130Y-88268404D01*
X105016129Y-88268402D01*
X104807415Y-87988050D01*
X104807410Y-87988044D01*
X104691433Y-87865117D01*
X104567558Y-87733817D01*
X104419488Y-87609572D01*
X104299813Y-87509152D01*
X104299805Y-87509146D01*
X104007796Y-87317088D01*
X103695458Y-87160226D01*
X103695452Y-87160223D01*
X103367012Y-87040681D01*
X103367009Y-87040680D01*
X103026915Y-86960077D01*
X102983519Y-86955004D01*
X102679759Y-86919500D01*
X102330241Y-86919500D01*
X102026480Y-86955004D01*
X101983085Y-86960077D01*
X101983083Y-86960077D01*
X101642990Y-87040680D01*
X101642987Y-87040681D01*
X101314547Y-87160223D01*
X101314541Y-87160226D01*
X101002203Y-87317088D01*
X100710194Y-87509146D01*
X100710186Y-87509152D01*
X100442442Y-87733817D01*
X100442440Y-87733819D01*
X100202589Y-87988044D01*
X100202584Y-87988050D01*
X99993870Y-88268402D01*
X99819113Y-88571091D01*
X99819107Y-88571104D01*
X99680674Y-88892027D01*
X99580430Y-89226865D01*
X99580428Y-89226872D01*
X99519739Y-89571061D01*
X99519738Y-89571072D01*
X99499415Y-89919996D01*
X99499415Y-89920003D01*
X90000500Y-89920003D01*
X90000500Y-80002035D01*
X90000633Y-79997980D01*
X90002393Y-79971103D01*
X90005989Y-79916244D01*
X90018986Y-79734536D01*
X90020014Y-79726903D01*
X90043153Y-79610579D01*
X90044118Y-79606141D01*
X90074533Y-79466323D01*
X90076392Y-79459625D01*
X90116815Y-79340543D01*
X90166159Y-79208251D01*
X90168633Y-79202520D01*
X90225583Y-79087036D01*
X90292179Y-78965076D01*
X90295019Y-78960384D01*
X90366563Y-78853311D01*
X90368428Y-78850676D01*
X90450291Y-78741321D01*
X90453244Y-78737678D01*
X90538503Y-78640459D01*
X90541198Y-78637581D01*
X90637581Y-78541198D01*
X90640459Y-78538503D01*
X90737678Y-78453244D01*
X90741321Y-78450291D01*
X90850676Y-78368428D01*
X90853311Y-78366563D01*
X90960384Y-78295019D01*
X90965076Y-78292179D01*
X91087036Y-78225583D01*
X91202520Y-78168633D01*
X91208251Y-78166159D01*
X91340543Y-78116815D01*
X91459625Y-78076392D01*
X91466323Y-78074533D01*
X91610548Y-78043158D01*
X91726903Y-78020014D01*
X91734536Y-78018986D01*
X91916244Y-78005989D01*
X91969211Y-78002517D01*
X91997981Y-78000633D01*
X92002036Y-78000500D01*
X100368097Y-78000500D01*
X100601368Y-77963553D01*
X100732932Y-77920804D01*
X100733011Y-77920802D01*
X100733434Y-77920642D01*
X100825992Y-77890568D01*
X100955244Y-77824710D01*
X100955980Y-77824572D01*
X100959374Y-77822606D01*
X100977560Y-77813340D01*
X100980794Y-77811808D01*
X101029989Y-77790229D01*
X101039120Y-77781390D01*
X101159225Y-77694128D01*
X101160541Y-77693659D01*
X101165803Y-77689349D01*
X101192403Y-77670023D01*
X101194898Y-77668304D01*
X101227396Y-77647072D01*
X101234658Y-77637368D01*
X101339600Y-77532426D01*
X101341581Y-77531344D01*
X101342374Y-77530327D01*
X101347450Y-77524576D01*
X101385302Y-77486724D01*
X101399105Y-77474018D01*
X101404445Y-77463844D01*
X101491655Y-77343810D01*
X101494116Y-77341912D01*
X101495321Y-77339687D01*
X101499689Y-77332753D01*
X101533343Y-77286433D01*
X101533351Y-77286416D01*
X101535750Y-77282504D01*
X101539692Y-77276811D01*
X101540645Y-77275586D01*
X101544083Y-77265353D01*
X101611429Y-77133179D01*
X101614121Y-77130329D01*
X101615263Y-77127004D01*
X101618663Y-77118982D01*
X101640568Y-77075992D01*
X101640888Y-77075005D01*
X101648123Y-77058130D01*
X101649969Y-77047058D01*
X101695801Y-76906002D01*
X101698481Y-76902081D01*
X101702757Y-76884596D01*
X101713550Y-76851378D01*
X101713550Y-76851376D01*
X101713553Y-76851368D01*
X101715006Y-76842193D01*
X101719309Y-76824897D01*
X101719371Y-76814633D01*
X101742570Y-76668160D01*
X101744882Y-76663280D01*
X101746404Y-76643958D01*
X101750500Y-76618097D01*
X101750500Y-76600445D01*
X101751917Y-76583330D01*
X101750500Y-76574144D01*
X101750500Y-76425854D01*
X101752205Y-76420047D01*
X101752191Y-76419963D01*
X101750500Y-76399553D01*
X101750500Y-76381902D01*
X101746404Y-76356041D01*
X101745120Y-76339738D01*
X101742570Y-76331838D01*
X101719371Y-76185365D01*
X101720225Y-76178750D01*
X101720197Y-76178666D01*
X101715006Y-76157806D01*
X101713553Y-76148632D01*
X101702756Y-76115402D01*
X101699110Y-76100490D01*
X101695800Y-76093995D01*
X101649968Y-75952940D01*
X101649761Y-75945687D01*
X101640885Y-75924985D01*
X101640568Y-75924008D01*
X101618666Y-75881022D01*
X101615264Y-75872996D01*
X101614666Y-75871254D01*
X101611428Y-75866818D01*
X101544083Y-75734646D01*
X101542643Y-75726979D01*
X101539691Y-75723186D01*
X101535751Y-75717497D01*
X101533340Y-75713562D01*
X101499703Y-75667266D01*
X101495329Y-75660322D01*
X101494756Y-75659264D01*
X101491656Y-75656190D01*
X101404444Y-75536154D01*
X101401650Y-75528323D01*
X101385286Y-75513259D01*
X101347462Y-75475435D01*
X101342379Y-75469678D01*
X101342179Y-75469421D01*
X101339597Y-75467570D01*
X101234660Y-75362633D01*
X101230448Y-75354920D01*
X101194886Y-75331685D01*
X101192355Y-75329941D01*
X101165822Y-75310664D01*
X101161125Y-75306818D01*
X101159224Y-75305869D01*
X101039123Y-75218611D01*
X101033486Y-75211301D01*
X100980770Y-75188178D01*
X100977525Y-75186642D01*
X100959401Y-75177407D01*
X100956334Y-75175630D01*
X100955244Y-75175289D01*
X100825997Y-75109434D01*
X100825994Y-75109433D01*
X100825992Y-75109432D01*
X100796639Y-75099894D01*
X100733455Y-75079364D01*
X100733055Y-75079212D01*
X100732932Y-75079194D01*
X100601370Y-75036447D01*
X100368097Y-74999500D01*
X100368092Y-74999500D01*
X100250099Y-74999500D01*
X92002024Y-74999500D01*
X91997974Y-74999367D01*
X91959954Y-74996875D01*
X91916350Y-74994017D01*
X91734560Y-74981015D01*
X91726880Y-74979980D01*
X91610579Y-74956846D01*
X91466352Y-74925472D01*
X91459596Y-74923597D01*
X91427881Y-74912831D01*
X91340578Y-74883196D01*
X91305768Y-74870212D01*
X91208257Y-74833841D01*
X91202499Y-74831355D01*
X91087047Y-74774421D01*
X90965091Y-74707828D01*
X90960357Y-74704962D01*
X90853349Y-74633461D01*
X90850639Y-74631543D01*
X90810592Y-74601564D01*
X90741353Y-74549732D01*
X90737648Y-74546729D01*
X90640492Y-74461526D01*
X90637549Y-74458769D01*
X90541228Y-74362448D01*
X90538469Y-74359502D01*
X90505450Y-74321851D01*
X90453265Y-74262345D01*
X90450271Y-74258652D01*
X90368454Y-74149358D01*
X90366537Y-74146649D01*
X90295036Y-74039641D01*
X90292170Y-74034906D01*
X90225578Y-73912952D01*
X90168643Y-73797499D01*
X90166157Y-73791741D01*
X90153076Y-73756671D01*
X90116809Y-73659437D01*
X90076395Y-73540383D01*
X90074531Y-73533666D01*
X90043153Y-73389420D01*
X90038641Y-73366738D01*
X90020015Y-73273100D01*
X90018985Y-73265459D01*
X90005986Y-73083708D01*
X90002938Y-73037198D01*
X90000633Y-73002019D01*
X90000500Y-72997964D01*
X90000500Y-67665000D01*
X126844341Y-67665000D01*
X126864936Y-67900403D01*
X126864938Y-67900413D01*
X126926094Y-68128655D01*
X126926096Y-68128659D01*
X126926097Y-68128663D01*
X127025964Y-68342829D01*
X127025965Y-68342830D01*
X127025967Y-68342834D01*
X127134281Y-68497521D01*
X127161505Y-68536401D01*
X127328599Y-68703495D01*
X127425384Y-68771264D01*
X127522165Y-68839032D01*
X127522167Y-68839033D01*
X127522170Y-68839035D01*
X127736337Y-68938903D01*
X127964592Y-69000063D01*
X128152918Y-69016539D01*
X128199999Y-69020659D01*
X128200000Y-69020659D01*
X128200001Y-69020659D01*
X128239234Y-69017226D01*
X128435408Y-69000063D01*
X128663663Y-68938903D01*
X128877830Y-68839035D01*
X129071401Y-68703495D01*
X129238495Y-68536401D01*
X129374035Y-68342830D01*
X129473903Y-68128663D01*
X129535063Y-67900408D01*
X129555659Y-67665000D01*
X129535063Y-67429592D01*
X129473903Y-67201337D01*
X129374035Y-66987171D01*
X129366828Y-66976879D01*
X129238496Y-66793600D01*
X129177387Y-66732491D01*
X129116179Y-66671283D01*
X129082696Y-66609963D01*
X129087680Y-66540271D01*
X129129551Y-66484337D01*
X129160529Y-66467422D01*
X129292086Y-66418354D01*
X129292093Y-66418350D01*
X129407187Y-66332190D01*
X129407190Y-66332187D01*
X129493350Y-66217093D01*
X129493354Y-66217086D01*
X129543596Y-66082379D01*
X129543598Y-66082372D01*
X129549999Y-66022844D01*
X129550000Y-66022827D01*
X129550000Y-65375000D01*
X128633686Y-65375000D01*
X128659493Y-65334844D01*
X128700000Y-65196889D01*
X128700000Y-65053111D01*
X128659493Y-64915156D01*
X128633686Y-64875000D01*
X129550000Y-64875000D01*
X129550000Y-64227172D01*
X129549999Y-64227155D01*
X129543598Y-64167627D01*
X129543596Y-64167620D01*
X129493354Y-64032913D01*
X129493350Y-64032906D01*
X129407190Y-63917812D01*
X129407187Y-63917809D01*
X129292093Y-63831649D01*
X129292086Y-63831645D01*
X129157379Y-63781403D01*
X129157372Y-63781401D01*
X129097844Y-63775000D01*
X128450000Y-63775000D01*
X128449999Y-64689498D01*
X128342315Y-64640320D01*
X128235763Y-64625000D01*
X128164237Y-64625000D01*
X128057685Y-64640320D01*
X127950000Y-64689498D01*
X127950000Y-63775000D01*
X127302155Y-63775000D01*
X127242627Y-63781401D01*
X127242620Y-63781403D01*
X127107913Y-63831645D01*
X127107906Y-63831649D01*
X126992812Y-63917809D01*
X126992809Y-63917812D01*
X126906649Y-64032906D01*
X126906645Y-64032913D01*
X126856403Y-64167620D01*
X126856401Y-64167627D01*
X126850000Y-64227155D01*
X126850000Y-64227172D01*
X126849999Y-64874999D01*
X126850000Y-64875000D01*
X127766314Y-64875000D01*
X127740507Y-64915156D01*
X127700000Y-65053111D01*
X127700000Y-65196889D01*
X127740507Y-65334844D01*
X127766314Y-65375000D01*
X126850000Y-65375000D01*
X126850000Y-66022844D01*
X126856401Y-66082372D01*
X126856403Y-66082379D01*
X126906645Y-66217086D01*
X126906649Y-66217093D01*
X126992809Y-66332187D01*
X126992812Y-66332190D01*
X127107906Y-66418350D01*
X127107913Y-66418354D01*
X127239470Y-66467421D01*
X127295403Y-66509292D01*
X127319821Y-66574756D01*
X127304970Y-66643029D01*
X127283819Y-66671284D01*
X127161503Y-66793600D01*
X127025965Y-66987169D01*
X127025964Y-66987171D01*
X126926098Y-67201335D01*
X126926094Y-67201344D01*
X126864938Y-67429586D01*
X126864936Y-67429596D01*
X126844341Y-67664999D01*
X126844341Y-67665000D01*
X90000500Y-67665000D01*
X90000500Y-67252036D01*
X90000633Y-67247981D01*
X90005982Y-67166360D01*
X90018986Y-66984536D01*
X90020014Y-66976903D01*
X90043153Y-66860579D01*
X90057723Y-66793600D01*
X90074533Y-66716323D01*
X90076392Y-66709625D01*
X90116815Y-66590543D01*
X90166159Y-66458251D01*
X90168633Y-66452520D01*
X90225583Y-66337036D01*
X90292179Y-66215076D01*
X90295019Y-66210384D01*
X90366563Y-66103311D01*
X90368428Y-66100676D01*
X90450291Y-65991321D01*
X90453244Y-65987678D01*
X90538503Y-65890459D01*
X90541198Y-65887581D01*
X90637581Y-65791198D01*
X90640459Y-65788503D01*
X90737678Y-65703244D01*
X90741321Y-65700291D01*
X90850676Y-65618428D01*
X90853311Y-65616563D01*
X90960384Y-65545019D01*
X90965076Y-65542179D01*
X91087036Y-65475583D01*
X91202520Y-65418633D01*
X91208251Y-65416159D01*
X91340543Y-65366815D01*
X91459625Y-65326392D01*
X91466323Y-65324533D01*
X91610548Y-65293158D01*
X91726903Y-65270014D01*
X91734536Y-65268986D01*
X91916244Y-65255989D01*
X91969211Y-65252517D01*
X91997981Y-65250633D01*
X92002036Y-65250500D01*
X100368097Y-65250500D01*
X100601368Y-65213553D01*
X100601368Y-65213552D01*
X100732932Y-65170804D01*
X100733011Y-65170802D01*
X100733434Y-65170642D01*
X100825992Y-65140568D01*
X100955244Y-65074710D01*
X100955980Y-65074572D01*
X100959374Y-65072606D01*
X100977560Y-65063340D01*
X100980794Y-65061808D01*
X101029989Y-65040229D01*
X101039120Y-65031390D01*
X101159225Y-64944128D01*
X101160541Y-64943659D01*
X101165803Y-64939349D01*
X101192403Y-64920023D01*
X101194898Y-64918304D01*
X101227396Y-64897072D01*
X101234658Y-64887368D01*
X101339600Y-64782426D01*
X101341581Y-64781344D01*
X101342374Y-64780327D01*
X101347450Y-64774576D01*
X101385302Y-64736724D01*
X101399105Y-64724018D01*
X101404445Y-64713844D01*
X101491655Y-64593810D01*
X101494116Y-64591912D01*
X101495321Y-64589687D01*
X101499689Y-64582753D01*
X101533343Y-64536433D01*
X101533351Y-64536416D01*
X101535750Y-64532504D01*
X101539692Y-64526811D01*
X101540645Y-64525586D01*
X101544083Y-64515353D01*
X101611429Y-64383179D01*
X101614121Y-64380329D01*
X101615263Y-64377004D01*
X101618663Y-64368982D01*
X101640568Y-64325992D01*
X101640888Y-64325005D01*
X101648123Y-64308130D01*
X101649969Y-64297058D01*
X101695801Y-64156002D01*
X101698481Y-64152081D01*
X101702757Y-64134596D01*
X101713550Y-64101378D01*
X101713550Y-64101376D01*
X101713553Y-64101368D01*
X101715006Y-64092193D01*
X101719309Y-64074897D01*
X101719371Y-64064633D01*
X101742570Y-63918160D01*
X101744882Y-63913280D01*
X101746404Y-63893958D01*
X101750500Y-63868097D01*
X101750500Y-63850445D01*
X101751917Y-63833330D01*
X101750500Y-63824144D01*
X101750500Y-63675854D01*
X101752205Y-63670047D01*
X101752191Y-63669963D01*
X101750500Y-63649553D01*
X101750500Y-63631902D01*
X101746404Y-63606041D01*
X101745120Y-63589738D01*
X101742570Y-63581838D01*
X101719371Y-63435365D01*
X101720225Y-63428750D01*
X101720197Y-63428666D01*
X101715006Y-63407806D01*
X101713553Y-63398632D01*
X101702756Y-63365402D01*
X101699110Y-63350490D01*
X101695800Y-63343995D01*
X101649968Y-63202940D01*
X101649761Y-63195687D01*
X101640885Y-63174985D01*
X101640568Y-63174008D01*
X101618666Y-63131022D01*
X101615264Y-63122996D01*
X101614666Y-63121254D01*
X101611428Y-63116818D01*
X101544083Y-62984646D01*
X101542643Y-62976979D01*
X101539691Y-62973186D01*
X101535751Y-62967497D01*
X101533340Y-62963562D01*
X101499703Y-62917266D01*
X101495329Y-62910322D01*
X101494756Y-62909264D01*
X101491656Y-62906190D01*
X101404444Y-62786154D01*
X101401650Y-62778323D01*
X101385286Y-62763259D01*
X101347462Y-62725435D01*
X101342379Y-62719678D01*
X101342179Y-62719421D01*
X101339597Y-62717570D01*
X101234660Y-62612633D01*
X101230448Y-62604920D01*
X101194886Y-62581685D01*
X101192355Y-62579941D01*
X101165822Y-62560664D01*
X101161125Y-62556818D01*
X101159224Y-62555869D01*
X101039123Y-62468611D01*
X101033486Y-62461301D01*
X100980770Y-62438178D01*
X100977525Y-62436642D01*
X100959401Y-62427407D01*
X100956334Y-62425630D01*
X100955244Y-62425289D01*
X100825997Y-62359434D01*
X100825994Y-62359433D01*
X100825992Y-62359432D01*
X100796639Y-62349894D01*
X100733455Y-62329364D01*
X100733055Y-62329212D01*
X100732932Y-62329194D01*
X100601370Y-62286447D01*
X100368097Y-62249500D01*
X100368092Y-62249500D01*
X100250099Y-62249500D01*
X92002024Y-62249500D01*
X91997974Y-62249367D01*
X91959954Y-62246875D01*
X91916350Y-62244017D01*
X91734560Y-62231015D01*
X91726880Y-62229980D01*
X91610579Y-62206846D01*
X91466352Y-62175472D01*
X91459596Y-62173597D01*
X91427881Y-62162831D01*
X91340578Y-62133196D01*
X91305768Y-62120212D01*
X91208257Y-62083841D01*
X91202499Y-62081355D01*
X91087047Y-62024421D01*
X90965091Y-61957828D01*
X90960357Y-61954962D01*
X90853349Y-61883461D01*
X90850639Y-61881543D01*
X90810592Y-61851564D01*
X90741353Y-61799732D01*
X90737648Y-61796729D01*
X90640492Y-61711526D01*
X90637549Y-61708769D01*
X90541228Y-61612448D01*
X90538469Y-61609502D01*
X90505450Y-61571851D01*
X90453265Y-61512345D01*
X90450271Y-61508652D01*
X90368454Y-61399358D01*
X90366537Y-61396649D01*
X90295036Y-61289641D01*
X90292170Y-61284906D01*
X90225578Y-61162952D01*
X90168643Y-61047499D01*
X90166157Y-61041741D01*
X90153076Y-61006671D01*
X90116809Y-60909437D01*
X90076395Y-60790383D01*
X90074531Y-60783666D01*
X90043153Y-60639420D01*
X90038641Y-60616738D01*
X90020015Y-60523100D01*
X90018985Y-60515459D01*
X90005986Y-60333708D01*
X90002938Y-60287198D01*
X90000633Y-60252019D01*
X90000500Y-60247964D01*
X90000500Y-58532000D01*
X120159628Y-58532000D01*
X120179079Y-58754329D01*
X120179081Y-58754339D01*
X120236841Y-58969905D01*
X120236843Y-58969909D01*
X120236844Y-58969913D01*
X120331165Y-59172186D01*
X120459178Y-59355007D01*
X120616993Y-59512822D01*
X120799814Y-59640835D01*
X121002087Y-59735156D01*
X121217666Y-59792920D01*
X121395533Y-59808481D01*
X121439999Y-59812372D01*
X121440000Y-59812372D01*
X121440001Y-59812372D01*
X121477055Y-59809129D01*
X121662334Y-59792920D01*
X121877913Y-59735156D01*
X122080186Y-59640835D01*
X122263007Y-59512822D01*
X122420822Y-59355007D01*
X122548835Y-59172186D01*
X122643156Y-58969913D01*
X122700920Y-58754334D01*
X122720372Y-58532000D01*
X122700920Y-58309666D01*
X122643156Y-58094087D01*
X122548835Y-57891814D01*
X122420822Y-57708993D01*
X122315510Y-57603680D01*
X122282025Y-57542358D01*
X122283910Y-57516000D01*
X125239628Y-57516000D01*
X125259079Y-57738329D01*
X125259081Y-57738339D01*
X125316841Y-57953905D01*
X125316843Y-57953909D01*
X125316844Y-57953913D01*
X125411165Y-58156186D01*
X125539178Y-58339007D01*
X125696993Y-58496822D01*
X125879814Y-58624835D01*
X126082087Y-58719156D01*
X126297666Y-58776920D01*
X126475533Y-58792481D01*
X126519999Y-58796372D01*
X126520000Y-58796372D01*
X126520001Y-58796372D01*
X126557055Y-58793129D01*
X126742334Y-58776920D01*
X126957913Y-58719156D01*
X127160186Y-58624835D01*
X127343007Y-58496822D01*
X127500822Y-58339007D01*
X127628835Y-58156186D01*
X127723156Y-57953913D01*
X127780920Y-57738334D01*
X127800372Y-57516000D01*
X127780920Y-57293666D01*
X127723156Y-57078087D01*
X127628835Y-56875814D01*
X127500822Y-56692993D01*
X127343007Y-56535178D01*
X127160186Y-56407165D01*
X126957913Y-56312844D01*
X126957909Y-56312843D01*
X126957905Y-56312841D01*
X126742339Y-56255081D01*
X126742329Y-56255079D01*
X126520001Y-56235628D01*
X126519999Y-56235628D01*
X126297670Y-56255079D01*
X126297660Y-56255081D01*
X126082094Y-56312841D01*
X126082087Y-56312843D01*
X126082087Y-56312844D01*
X125879814Y-56407165D01*
X125696993Y-56535178D01*
X125696991Y-56535179D01*
X125696988Y-56535182D01*
X125539182Y-56692988D01*
X125539179Y-56692991D01*
X125539178Y-56692993D01*
X125518630Y-56722339D01*
X125411165Y-56875814D01*
X125316845Y-57078085D01*
X125316841Y-57078094D01*
X125259081Y-57293660D01*
X125259079Y-57293670D01*
X125239628Y-57515999D01*
X125239628Y-57516000D01*
X122283910Y-57516000D01*
X122287009Y-57472666D01*
X122315510Y-57428319D01*
X122315511Y-57428318D01*
X122420822Y-57323007D01*
X122548835Y-57140186D01*
X122643156Y-56937913D01*
X122700920Y-56722334D01*
X122720372Y-56500000D01*
X122700920Y-56277666D01*
X122643156Y-56062087D01*
X122548835Y-55859814D01*
X122420822Y-55676993D01*
X122263007Y-55519178D01*
X122080186Y-55391165D01*
X121877913Y-55296844D01*
X121877909Y-55296843D01*
X121877905Y-55296841D01*
X121662339Y-55239081D01*
X121662329Y-55239079D01*
X121440001Y-55219628D01*
X121439999Y-55219628D01*
X121217670Y-55239079D01*
X121217660Y-55239081D01*
X121002094Y-55296841D01*
X121002087Y-55296843D01*
X121002087Y-55296844D01*
X120799814Y-55391165D01*
X120616993Y-55519178D01*
X120616991Y-55519179D01*
X120616988Y-55519182D01*
X120459182Y-55676988D01*
X120331165Y-55859814D01*
X120236845Y-56062085D01*
X120236841Y-56062094D01*
X120179081Y-56277660D01*
X120179079Y-56277670D01*
X120159628Y-56499999D01*
X120159628Y-56500000D01*
X120179079Y-56722329D01*
X120179081Y-56722339D01*
X120236841Y-56937905D01*
X120236843Y-56937909D01*
X120236844Y-56937913D01*
X120331165Y-57140186D01*
X120459178Y-57323007D01*
X120459182Y-57323011D01*
X120564489Y-57428318D01*
X120597974Y-57489641D01*
X120592990Y-57559333D01*
X120564490Y-57603679D01*
X120459182Y-57708988D01*
X120459179Y-57708991D01*
X120459178Y-57708993D01*
X120438630Y-57738339D01*
X120331165Y-57891814D01*
X120236845Y-58094085D01*
X120236841Y-58094094D01*
X120179081Y-58309660D01*
X120179079Y-58309670D01*
X120159628Y-58531999D01*
X120159628Y-58532000D01*
X90000500Y-58532000D01*
X90000500Y-54624000D01*
X90020185Y-54556961D01*
X90072989Y-54511206D01*
X90124500Y-54500000D01*
X129875500Y-54500000D01*
X129942539Y-54519685D01*
G37*
%TD.AperFunction*%
%TD*%
M02*
