%TF.GenerationSoftware,KiCad,Pcbnew,7.0.6*%
%TF.CreationDate,2023-11-18T03:16:50+01:00*%
%TF.ProjectId,LoRa_Sensor,4c6f5261-5f53-4656-9e73-6f722e6b6963,rev?*%
%TF.SameCoordinates,Original*%
%TF.FileFunction,Legend,Top*%
%TF.FilePolarity,Positive*%
%FSLAX46Y46*%
G04 Gerber Fmt 4.6, Leading zero omitted, Abs format (unit mm)*
G04 Created by KiCad (PCBNEW 7.0.6) date 2023-11-18 03:16:50*
%MOMM*%
%LPD*%
G01*
G04 APERTURE LIST*
%ADD10C,0.150000*%
%ADD11C,0.250000*%
%ADD12C,0.254000*%
%ADD13C,0.120000*%
%ADD14C,0.200000*%
%ADD15C,0.100000*%
G04 APERTURE END LIST*
D10*
X105630951Y-104869819D02*
X105630951Y-105584104D01*
X105630951Y-105584104D02*
X105583332Y-105726961D01*
X105583332Y-105726961D02*
X105488094Y-105822200D01*
X105488094Y-105822200D02*
X105345237Y-105869819D01*
X105345237Y-105869819D02*
X105249999Y-105869819D01*
X106583332Y-105869819D02*
X106107142Y-105869819D01*
X106107142Y-105869819D02*
X106107142Y-104869819D01*
X107488094Y-105774580D02*
X107440475Y-105822200D01*
X107440475Y-105822200D02*
X107297618Y-105869819D01*
X107297618Y-105869819D02*
X107202380Y-105869819D01*
X107202380Y-105869819D02*
X107059523Y-105822200D01*
X107059523Y-105822200D02*
X106964285Y-105726961D01*
X106964285Y-105726961D02*
X106916666Y-105631723D01*
X106916666Y-105631723D02*
X106869047Y-105441247D01*
X106869047Y-105441247D02*
X106869047Y-105298390D01*
X106869047Y-105298390D02*
X106916666Y-105107914D01*
X106916666Y-105107914D02*
X106964285Y-105012676D01*
X106964285Y-105012676D02*
X107059523Y-104917438D01*
X107059523Y-104917438D02*
X107202380Y-104869819D01*
X107202380Y-104869819D02*
X107297618Y-104869819D01*
X107297618Y-104869819D02*
X107440475Y-104917438D01*
X107440475Y-104917438D02*
X107488094Y-104965057D01*
X108202380Y-104869819D02*
X108202380Y-105584104D01*
X108202380Y-105584104D02*
X108154761Y-105726961D01*
X108154761Y-105726961D02*
X108059523Y-105822200D01*
X108059523Y-105822200D02*
X107916666Y-105869819D01*
X107916666Y-105869819D02*
X107821428Y-105869819D01*
X109154761Y-105869819D02*
X108678571Y-105869819D01*
X108678571Y-105869819D02*
X108678571Y-104869819D01*
X110059523Y-105774580D02*
X110011904Y-105822200D01*
X110011904Y-105822200D02*
X109869047Y-105869819D01*
X109869047Y-105869819D02*
X109773809Y-105869819D01*
X109773809Y-105869819D02*
X109630952Y-105822200D01*
X109630952Y-105822200D02*
X109535714Y-105726961D01*
X109535714Y-105726961D02*
X109488095Y-105631723D01*
X109488095Y-105631723D02*
X109440476Y-105441247D01*
X109440476Y-105441247D02*
X109440476Y-105298390D01*
X109440476Y-105298390D02*
X109488095Y-105107914D01*
X109488095Y-105107914D02*
X109535714Y-105012676D01*
X109535714Y-105012676D02*
X109630952Y-104917438D01*
X109630952Y-104917438D02*
X109773809Y-104869819D01*
X109773809Y-104869819D02*
X109869047Y-104869819D01*
X109869047Y-104869819D02*
X110011904Y-104917438D01*
X110011904Y-104917438D02*
X110059523Y-104965057D01*
X110773809Y-104869819D02*
X110773809Y-105584104D01*
X110773809Y-105584104D02*
X110726190Y-105726961D01*
X110726190Y-105726961D02*
X110630952Y-105822200D01*
X110630952Y-105822200D02*
X110488095Y-105869819D01*
X110488095Y-105869819D02*
X110392857Y-105869819D01*
X111726190Y-105869819D02*
X111250000Y-105869819D01*
X111250000Y-105869819D02*
X111250000Y-104869819D01*
X112630952Y-105774580D02*
X112583333Y-105822200D01*
X112583333Y-105822200D02*
X112440476Y-105869819D01*
X112440476Y-105869819D02*
X112345238Y-105869819D01*
X112345238Y-105869819D02*
X112202381Y-105822200D01*
X112202381Y-105822200D02*
X112107143Y-105726961D01*
X112107143Y-105726961D02*
X112059524Y-105631723D01*
X112059524Y-105631723D02*
X112011905Y-105441247D01*
X112011905Y-105441247D02*
X112011905Y-105298390D01*
X112011905Y-105298390D02*
X112059524Y-105107914D01*
X112059524Y-105107914D02*
X112107143Y-105012676D01*
X112107143Y-105012676D02*
X112202381Y-104917438D01*
X112202381Y-104917438D02*
X112345238Y-104869819D01*
X112345238Y-104869819D02*
X112440476Y-104869819D01*
X112440476Y-104869819D02*
X112583333Y-104917438D01*
X112583333Y-104917438D02*
X112630952Y-104965057D01*
X113345238Y-104869819D02*
X113345238Y-105584104D01*
X113345238Y-105584104D02*
X113297619Y-105726961D01*
X113297619Y-105726961D02*
X113202381Y-105822200D01*
X113202381Y-105822200D02*
X113059524Y-105869819D01*
X113059524Y-105869819D02*
X112964286Y-105869819D01*
X114297619Y-105869819D02*
X113821429Y-105869819D01*
X113821429Y-105869819D02*
X113821429Y-104869819D01*
X115202381Y-105774580D02*
X115154762Y-105822200D01*
X115154762Y-105822200D02*
X115011905Y-105869819D01*
X115011905Y-105869819D02*
X114916667Y-105869819D01*
X114916667Y-105869819D02*
X114773810Y-105822200D01*
X114773810Y-105822200D02*
X114678572Y-105726961D01*
X114678572Y-105726961D02*
X114630953Y-105631723D01*
X114630953Y-105631723D02*
X114583334Y-105441247D01*
X114583334Y-105441247D02*
X114583334Y-105298390D01*
X114583334Y-105298390D02*
X114630953Y-105107914D01*
X114630953Y-105107914D02*
X114678572Y-105012676D01*
X114678572Y-105012676D02*
X114773810Y-104917438D01*
X114773810Y-104917438D02*
X114916667Y-104869819D01*
X114916667Y-104869819D02*
X115011905Y-104869819D01*
X115011905Y-104869819D02*
X115154762Y-104917438D01*
X115154762Y-104917438D02*
X115202381Y-104965057D01*
D11*
X124938095Y-67625333D02*
X126461905Y-67625333D01*
X125700000Y-68387238D02*
X125700000Y-66863428D01*
D10*
X106523809Y-97449104D02*
X106999999Y-97449104D01*
X106428571Y-97734819D02*
X106761904Y-96734819D01*
X106761904Y-96734819D02*
X107095237Y-97734819D01*
X107285714Y-96734819D02*
X107619047Y-97734819D01*
X107619047Y-97734819D02*
X107952380Y-96734819D01*
X109047619Y-97734819D02*
X109047619Y-96734819D01*
X109047619Y-96734819D02*
X109428571Y-96734819D01*
X109428571Y-96734819D02*
X109523809Y-96782438D01*
X109523809Y-96782438D02*
X109571428Y-96830057D01*
X109571428Y-96830057D02*
X109619047Y-96925295D01*
X109619047Y-96925295D02*
X109619047Y-97068152D01*
X109619047Y-97068152D02*
X109571428Y-97163390D01*
X109571428Y-97163390D02*
X109523809Y-97211009D01*
X109523809Y-97211009D02*
X109428571Y-97258628D01*
X109428571Y-97258628D02*
X109047619Y-97258628D01*
X110619047Y-97734819D02*
X110285714Y-97258628D01*
X110047619Y-97734819D02*
X110047619Y-96734819D01*
X110047619Y-96734819D02*
X110428571Y-96734819D01*
X110428571Y-96734819D02*
X110523809Y-96782438D01*
X110523809Y-96782438D02*
X110571428Y-96830057D01*
X110571428Y-96830057D02*
X110619047Y-96925295D01*
X110619047Y-96925295D02*
X110619047Y-97068152D01*
X110619047Y-97068152D02*
X110571428Y-97163390D01*
X110571428Y-97163390D02*
X110523809Y-97211009D01*
X110523809Y-97211009D02*
X110428571Y-97258628D01*
X110428571Y-97258628D02*
X110047619Y-97258628D01*
X111238095Y-96734819D02*
X111428571Y-96734819D01*
X111428571Y-96734819D02*
X111523809Y-96782438D01*
X111523809Y-96782438D02*
X111619047Y-96877676D01*
X111619047Y-96877676D02*
X111666666Y-97068152D01*
X111666666Y-97068152D02*
X111666666Y-97401485D01*
X111666666Y-97401485D02*
X111619047Y-97591961D01*
X111619047Y-97591961D02*
X111523809Y-97687200D01*
X111523809Y-97687200D02*
X111428571Y-97734819D01*
X111428571Y-97734819D02*
X111238095Y-97734819D01*
X111238095Y-97734819D02*
X111142857Y-97687200D01*
X111142857Y-97687200D02*
X111047619Y-97591961D01*
X111047619Y-97591961D02*
X111000000Y-97401485D01*
X111000000Y-97401485D02*
X111000000Y-97068152D01*
X111000000Y-97068152D02*
X111047619Y-96877676D01*
X111047619Y-96877676D02*
X111142857Y-96782438D01*
X111142857Y-96782438D02*
X111238095Y-96734819D01*
X111952381Y-96734819D02*
X112523809Y-96734819D01*
X112238095Y-97734819D02*
X112238095Y-96734819D01*
X113047619Y-96734819D02*
X113238095Y-96734819D01*
X113238095Y-96734819D02*
X113333333Y-96782438D01*
X113333333Y-96782438D02*
X113428571Y-96877676D01*
X113428571Y-96877676D02*
X113476190Y-97068152D01*
X113476190Y-97068152D02*
X113476190Y-97401485D01*
X113476190Y-97401485D02*
X113428571Y-97591961D01*
X113428571Y-97591961D02*
X113333333Y-97687200D01*
X113333333Y-97687200D02*
X113238095Y-97734819D01*
X113238095Y-97734819D02*
X113047619Y-97734819D01*
X113047619Y-97734819D02*
X112952381Y-97687200D01*
X112952381Y-97687200D02*
X112857143Y-97591961D01*
X112857143Y-97591961D02*
X112809524Y-97401485D01*
X112809524Y-97401485D02*
X112809524Y-97068152D01*
X112809524Y-97068152D02*
X112857143Y-96877676D01*
X112857143Y-96877676D02*
X112952381Y-96782438D01*
X112952381Y-96782438D02*
X113047619Y-96734819D01*
X106738094Y-99344819D02*
X106261904Y-99344819D01*
X106261904Y-99344819D02*
X106261904Y-98344819D01*
X107214285Y-99344819D02*
X107119047Y-99297200D01*
X107119047Y-99297200D02*
X107071428Y-99249580D01*
X107071428Y-99249580D02*
X107023809Y-99154342D01*
X107023809Y-99154342D02*
X107023809Y-98868628D01*
X107023809Y-98868628D02*
X107071428Y-98773390D01*
X107071428Y-98773390D02*
X107119047Y-98725771D01*
X107119047Y-98725771D02*
X107214285Y-98678152D01*
X107214285Y-98678152D02*
X107357142Y-98678152D01*
X107357142Y-98678152D02*
X107452380Y-98725771D01*
X107452380Y-98725771D02*
X107499999Y-98773390D01*
X107499999Y-98773390D02*
X107547618Y-98868628D01*
X107547618Y-98868628D02*
X107547618Y-99154342D01*
X107547618Y-99154342D02*
X107499999Y-99249580D01*
X107499999Y-99249580D02*
X107452380Y-99297200D01*
X107452380Y-99297200D02*
X107357142Y-99344819D01*
X107357142Y-99344819D02*
X107214285Y-99344819D01*
X107880952Y-98678152D02*
X108071428Y-99344819D01*
X108071428Y-99344819D02*
X108261904Y-98868628D01*
X108261904Y-98868628D02*
X108452380Y-99344819D01*
X108452380Y-99344819D02*
X108642856Y-98678152D01*
X109785714Y-99344819D02*
X109785714Y-98344819D01*
X109785714Y-98344819D02*
X110166666Y-98344819D01*
X110166666Y-98344819D02*
X110261904Y-98392438D01*
X110261904Y-98392438D02*
X110309523Y-98440057D01*
X110309523Y-98440057D02*
X110357142Y-98535295D01*
X110357142Y-98535295D02*
X110357142Y-98678152D01*
X110357142Y-98678152D02*
X110309523Y-98773390D01*
X110309523Y-98773390D02*
X110261904Y-98821009D01*
X110261904Y-98821009D02*
X110166666Y-98868628D01*
X110166666Y-98868628D02*
X109785714Y-98868628D01*
X110928571Y-99344819D02*
X110833333Y-99297200D01*
X110833333Y-99297200D02*
X110785714Y-99249580D01*
X110785714Y-99249580D02*
X110738095Y-99154342D01*
X110738095Y-99154342D02*
X110738095Y-98868628D01*
X110738095Y-98868628D02*
X110785714Y-98773390D01*
X110785714Y-98773390D02*
X110833333Y-98725771D01*
X110833333Y-98725771D02*
X110928571Y-98678152D01*
X110928571Y-98678152D02*
X111071428Y-98678152D01*
X111071428Y-98678152D02*
X111166666Y-98725771D01*
X111166666Y-98725771D02*
X111214285Y-98773390D01*
X111214285Y-98773390D02*
X111261904Y-98868628D01*
X111261904Y-98868628D02*
X111261904Y-99154342D01*
X111261904Y-99154342D02*
X111214285Y-99249580D01*
X111214285Y-99249580D02*
X111166666Y-99297200D01*
X111166666Y-99297200D02*
X111071428Y-99344819D01*
X111071428Y-99344819D02*
X110928571Y-99344819D01*
X111595238Y-98678152D02*
X111785714Y-99344819D01*
X111785714Y-99344819D02*
X111976190Y-98868628D01*
X111976190Y-98868628D02*
X112166666Y-99344819D01*
X112166666Y-99344819D02*
X112357142Y-98678152D01*
X113119047Y-99297200D02*
X113023809Y-99344819D01*
X113023809Y-99344819D02*
X112833333Y-99344819D01*
X112833333Y-99344819D02*
X112738095Y-99297200D01*
X112738095Y-99297200D02*
X112690476Y-99201961D01*
X112690476Y-99201961D02*
X112690476Y-98821009D01*
X112690476Y-98821009D02*
X112738095Y-98725771D01*
X112738095Y-98725771D02*
X112833333Y-98678152D01*
X112833333Y-98678152D02*
X113023809Y-98678152D01*
X113023809Y-98678152D02*
X113119047Y-98725771D01*
X113119047Y-98725771D02*
X113166666Y-98821009D01*
X113166666Y-98821009D02*
X113166666Y-98916247D01*
X113166666Y-98916247D02*
X112690476Y-99011485D01*
X113595238Y-99344819D02*
X113595238Y-98678152D01*
X113595238Y-98868628D02*
X113642857Y-98773390D01*
X113642857Y-98773390D02*
X113690476Y-98725771D01*
X113690476Y-98725771D02*
X113785714Y-98678152D01*
X113785714Y-98678152D02*
X113880952Y-98678152D01*
X100333331Y-100954819D02*
X99857141Y-100954819D01*
X99857141Y-100954819D02*
X99857141Y-99954819D01*
X100809522Y-100954819D02*
X100714284Y-100907200D01*
X100714284Y-100907200D02*
X100666665Y-100859580D01*
X100666665Y-100859580D02*
X100619046Y-100764342D01*
X100619046Y-100764342D02*
X100619046Y-100478628D01*
X100619046Y-100478628D02*
X100666665Y-100383390D01*
X100666665Y-100383390D02*
X100714284Y-100335771D01*
X100714284Y-100335771D02*
X100809522Y-100288152D01*
X100809522Y-100288152D02*
X100952379Y-100288152D01*
X100952379Y-100288152D02*
X101047617Y-100335771D01*
X101047617Y-100335771D02*
X101095236Y-100383390D01*
X101095236Y-100383390D02*
X101142855Y-100478628D01*
X101142855Y-100478628D02*
X101142855Y-100764342D01*
X101142855Y-100764342D02*
X101095236Y-100859580D01*
X101095236Y-100859580D02*
X101047617Y-100907200D01*
X101047617Y-100907200D02*
X100952379Y-100954819D01*
X100952379Y-100954819D02*
X100809522Y-100954819D01*
X102142855Y-100954819D02*
X101809522Y-100478628D01*
X101571427Y-100954819D02*
X101571427Y-99954819D01*
X101571427Y-99954819D02*
X101952379Y-99954819D01*
X101952379Y-99954819D02*
X102047617Y-100002438D01*
X102047617Y-100002438D02*
X102095236Y-100050057D01*
X102095236Y-100050057D02*
X102142855Y-100145295D01*
X102142855Y-100145295D02*
X102142855Y-100288152D01*
X102142855Y-100288152D02*
X102095236Y-100383390D01*
X102095236Y-100383390D02*
X102047617Y-100431009D01*
X102047617Y-100431009D02*
X101952379Y-100478628D01*
X101952379Y-100478628D02*
X101571427Y-100478628D01*
X102999998Y-100954819D02*
X102999998Y-100431009D01*
X102999998Y-100431009D02*
X102952379Y-100335771D01*
X102952379Y-100335771D02*
X102857141Y-100288152D01*
X102857141Y-100288152D02*
X102666665Y-100288152D01*
X102666665Y-100288152D02*
X102571427Y-100335771D01*
X102999998Y-100907200D02*
X102904760Y-100954819D01*
X102904760Y-100954819D02*
X102666665Y-100954819D01*
X102666665Y-100954819D02*
X102571427Y-100907200D01*
X102571427Y-100907200D02*
X102523808Y-100811961D01*
X102523808Y-100811961D02*
X102523808Y-100716723D01*
X102523808Y-100716723D02*
X102571427Y-100621485D01*
X102571427Y-100621485D02*
X102666665Y-100573866D01*
X102666665Y-100573866D02*
X102904760Y-100573866D01*
X102904760Y-100573866D02*
X102999998Y-100526247D01*
X104238094Y-100431009D02*
X104571427Y-100431009D01*
X104714284Y-100954819D02*
X104238094Y-100954819D01*
X104238094Y-100954819D02*
X104238094Y-99954819D01*
X104238094Y-99954819D02*
X104714284Y-99954819D01*
X105142856Y-100288152D02*
X105142856Y-100954819D01*
X105142856Y-100383390D02*
X105190475Y-100335771D01*
X105190475Y-100335771D02*
X105285713Y-100288152D01*
X105285713Y-100288152D02*
X105428570Y-100288152D01*
X105428570Y-100288152D02*
X105523808Y-100335771D01*
X105523808Y-100335771D02*
X105571427Y-100431009D01*
X105571427Y-100431009D02*
X105571427Y-100954819D01*
X105952380Y-100288152D02*
X106190475Y-100954819D01*
X106190475Y-100954819D02*
X106428570Y-100288152D01*
X106809523Y-100954819D02*
X106809523Y-100288152D01*
X106809523Y-99954819D02*
X106761904Y-100002438D01*
X106761904Y-100002438D02*
X106809523Y-100050057D01*
X106809523Y-100050057D02*
X106857142Y-100002438D01*
X106857142Y-100002438D02*
X106809523Y-99954819D01*
X106809523Y-99954819D02*
X106809523Y-100050057D01*
X107285713Y-100954819D02*
X107285713Y-100288152D01*
X107285713Y-100478628D02*
X107333332Y-100383390D01*
X107333332Y-100383390D02*
X107380951Y-100335771D01*
X107380951Y-100335771D02*
X107476189Y-100288152D01*
X107476189Y-100288152D02*
X107571427Y-100288152D01*
X108047618Y-100954819D02*
X107952380Y-100907200D01*
X107952380Y-100907200D02*
X107904761Y-100859580D01*
X107904761Y-100859580D02*
X107857142Y-100764342D01*
X107857142Y-100764342D02*
X107857142Y-100478628D01*
X107857142Y-100478628D02*
X107904761Y-100383390D01*
X107904761Y-100383390D02*
X107952380Y-100335771D01*
X107952380Y-100335771D02*
X108047618Y-100288152D01*
X108047618Y-100288152D02*
X108190475Y-100288152D01*
X108190475Y-100288152D02*
X108285713Y-100335771D01*
X108285713Y-100335771D02*
X108333332Y-100383390D01*
X108333332Y-100383390D02*
X108380951Y-100478628D01*
X108380951Y-100478628D02*
X108380951Y-100764342D01*
X108380951Y-100764342D02*
X108333332Y-100859580D01*
X108333332Y-100859580D02*
X108285713Y-100907200D01*
X108285713Y-100907200D02*
X108190475Y-100954819D01*
X108190475Y-100954819D02*
X108047618Y-100954819D01*
X108809523Y-100288152D02*
X108809523Y-100954819D01*
X108809523Y-100383390D02*
X108857142Y-100335771D01*
X108857142Y-100335771D02*
X108952380Y-100288152D01*
X108952380Y-100288152D02*
X109095237Y-100288152D01*
X109095237Y-100288152D02*
X109190475Y-100335771D01*
X109190475Y-100335771D02*
X109238094Y-100431009D01*
X109238094Y-100431009D02*
X109238094Y-100954819D01*
X109714285Y-100954819D02*
X109714285Y-100288152D01*
X109714285Y-100383390D02*
X109761904Y-100335771D01*
X109761904Y-100335771D02*
X109857142Y-100288152D01*
X109857142Y-100288152D02*
X109999999Y-100288152D01*
X109999999Y-100288152D02*
X110095237Y-100335771D01*
X110095237Y-100335771D02*
X110142856Y-100431009D01*
X110142856Y-100431009D02*
X110142856Y-100954819D01*
X110142856Y-100431009D02*
X110190475Y-100335771D01*
X110190475Y-100335771D02*
X110285713Y-100288152D01*
X110285713Y-100288152D02*
X110428570Y-100288152D01*
X110428570Y-100288152D02*
X110523809Y-100335771D01*
X110523809Y-100335771D02*
X110571428Y-100431009D01*
X110571428Y-100431009D02*
X110571428Y-100954819D01*
X111428570Y-100907200D02*
X111333332Y-100954819D01*
X111333332Y-100954819D02*
X111142856Y-100954819D01*
X111142856Y-100954819D02*
X111047618Y-100907200D01*
X111047618Y-100907200D02*
X110999999Y-100811961D01*
X110999999Y-100811961D02*
X110999999Y-100431009D01*
X110999999Y-100431009D02*
X111047618Y-100335771D01*
X111047618Y-100335771D02*
X111142856Y-100288152D01*
X111142856Y-100288152D02*
X111333332Y-100288152D01*
X111333332Y-100288152D02*
X111428570Y-100335771D01*
X111428570Y-100335771D02*
X111476189Y-100431009D01*
X111476189Y-100431009D02*
X111476189Y-100526247D01*
X111476189Y-100526247D02*
X110999999Y-100621485D01*
X111904761Y-100288152D02*
X111904761Y-100954819D01*
X111904761Y-100383390D02*
X111952380Y-100335771D01*
X111952380Y-100335771D02*
X112047618Y-100288152D01*
X112047618Y-100288152D02*
X112190475Y-100288152D01*
X112190475Y-100288152D02*
X112285713Y-100335771D01*
X112285713Y-100335771D02*
X112333332Y-100431009D01*
X112333332Y-100431009D02*
X112333332Y-100954819D01*
X112666666Y-100288152D02*
X113047618Y-100288152D01*
X112809523Y-99954819D02*
X112809523Y-100811961D01*
X112809523Y-100811961D02*
X112857142Y-100907200D01*
X112857142Y-100907200D02*
X112952380Y-100954819D01*
X112952380Y-100954819D02*
X113047618Y-100954819D01*
X113809523Y-100954819D02*
X113809523Y-100431009D01*
X113809523Y-100431009D02*
X113761904Y-100335771D01*
X113761904Y-100335771D02*
X113666666Y-100288152D01*
X113666666Y-100288152D02*
X113476190Y-100288152D01*
X113476190Y-100288152D02*
X113380952Y-100335771D01*
X113809523Y-100907200D02*
X113714285Y-100954819D01*
X113714285Y-100954819D02*
X113476190Y-100954819D01*
X113476190Y-100954819D02*
X113380952Y-100907200D01*
X113380952Y-100907200D02*
X113333333Y-100811961D01*
X113333333Y-100811961D02*
X113333333Y-100716723D01*
X113333333Y-100716723D02*
X113380952Y-100621485D01*
X113380952Y-100621485D02*
X113476190Y-100573866D01*
X113476190Y-100573866D02*
X113714285Y-100573866D01*
X113714285Y-100573866D02*
X113809523Y-100526247D01*
X114428571Y-100954819D02*
X114333333Y-100907200D01*
X114333333Y-100907200D02*
X114285714Y-100811961D01*
X114285714Y-100811961D02*
X114285714Y-99954819D01*
X115523810Y-100907200D02*
X115666667Y-100954819D01*
X115666667Y-100954819D02*
X115904762Y-100954819D01*
X115904762Y-100954819D02*
X116000000Y-100907200D01*
X116000000Y-100907200D02*
X116047619Y-100859580D01*
X116047619Y-100859580D02*
X116095238Y-100764342D01*
X116095238Y-100764342D02*
X116095238Y-100669104D01*
X116095238Y-100669104D02*
X116047619Y-100573866D01*
X116047619Y-100573866D02*
X116000000Y-100526247D01*
X116000000Y-100526247D02*
X115904762Y-100478628D01*
X115904762Y-100478628D02*
X115714286Y-100431009D01*
X115714286Y-100431009D02*
X115619048Y-100383390D01*
X115619048Y-100383390D02*
X115571429Y-100335771D01*
X115571429Y-100335771D02*
X115523810Y-100240533D01*
X115523810Y-100240533D02*
X115523810Y-100145295D01*
X115523810Y-100145295D02*
X115571429Y-100050057D01*
X115571429Y-100050057D02*
X115619048Y-100002438D01*
X115619048Y-100002438D02*
X115714286Y-99954819D01*
X115714286Y-99954819D02*
X115952381Y-99954819D01*
X115952381Y-99954819D02*
X116095238Y-100002438D01*
X116904762Y-100907200D02*
X116809524Y-100954819D01*
X116809524Y-100954819D02*
X116619048Y-100954819D01*
X116619048Y-100954819D02*
X116523810Y-100907200D01*
X116523810Y-100907200D02*
X116476191Y-100811961D01*
X116476191Y-100811961D02*
X116476191Y-100431009D01*
X116476191Y-100431009D02*
X116523810Y-100335771D01*
X116523810Y-100335771D02*
X116619048Y-100288152D01*
X116619048Y-100288152D02*
X116809524Y-100288152D01*
X116809524Y-100288152D02*
X116904762Y-100335771D01*
X116904762Y-100335771D02*
X116952381Y-100431009D01*
X116952381Y-100431009D02*
X116952381Y-100526247D01*
X116952381Y-100526247D02*
X116476191Y-100621485D01*
X117380953Y-100288152D02*
X117380953Y-100954819D01*
X117380953Y-100383390D02*
X117428572Y-100335771D01*
X117428572Y-100335771D02*
X117523810Y-100288152D01*
X117523810Y-100288152D02*
X117666667Y-100288152D01*
X117666667Y-100288152D02*
X117761905Y-100335771D01*
X117761905Y-100335771D02*
X117809524Y-100431009D01*
X117809524Y-100431009D02*
X117809524Y-100954819D01*
X118238096Y-100907200D02*
X118333334Y-100954819D01*
X118333334Y-100954819D02*
X118523810Y-100954819D01*
X118523810Y-100954819D02*
X118619048Y-100907200D01*
X118619048Y-100907200D02*
X118666667Y-100811961D01*
X118666667Y-100811961D02*
X118666667Y-100764342D01*
X118666667Y-100764342D02*
X118619048Y-100669104D01*
X118619048Y-100669104D02*
X118523810Y-100621485D01*
X118523810Y-100621485D02*
X118380953Y-100621485D01*
X118380953Y-100621485D02*
X118285715Y-100573866D01*
X118285715Y-100573866D02*
X118238096Y-100478628D01*
X118238096Y-100478628D02*
X118238096Y-100431009D01*
X118238096Y-100431009D02*
X118285715Y-100335771D01*
X118285715Y-100335771D02*
X118380953Y-100288152D01*
X118380953Y-100288152D02*
X118523810Y-100288152D01*
X118523810Y-100288152D02*
X118619048Y-100335771D01*
X119238096Y-100954819D02*
X119142858Y-100907200D01*
X119142858Y-100907200D02*
X119095239Y-100859580D01*
X119095239Y-100859580D02*
X119047620Y-100764342D01*
X119047620Y-100764342D02*
X119047620Y-100478628D01*
X119047620Y-100478628D02*
X119095239Y-100383390D01*
X119095239Y-100383390D02*
X119142858Y-100335771D01*
X119142858Y-100335771D02*
X119238096Y-100288152D01*
X119238096Y-100288152D02*
X119380953Y-100288152D01*
X119380953Y-100288152D02*
X119476191Y-100335771D01*
X119476191Y-100335771D02*
X119523810Y-100383390D01*
X119523810Y-100383390D02*
X119571429Y-100478628D01*
X119571429Y-100478628D02*
X119571429Y-100764342D01*
X119571429Y-100764342D02*
X119523810Y-100859580D01*
X119523810Y-100859580D02*
X119476191Y-100907200D01*
X119476191Y-100907200D02*
X119380953Y-100954819D01*
X119380953Y-100954819D02*
X119238096Y-100954819D01*
X120000001Y-100954819D02*
X120000001Y-100288152D01*
X120000001Y-100478628D02*
X120047620Y-100383390D01*
X120047620Y-100383390D02*
X120095239Y-100335771D01*
X120095239Y-100335771D02*
X120190477Y-100288152D01*
X120190477Y-100288152D02*
X120285715Y-100288152D01*
X106452380Y-101564819D02*
X106452380Y-101802914D01*
X106214285Y-101707676D02*
X106452380Y-101802914D01*
X106452380Y-101802914D02*
X106690475Y-101707676D01*
X106309523Y-101993390D02*
X106452380Y-101802914D01*
X106452380Y-101802914D02*
X106595237Y-101993390D01*
X107833333Y-102041009D02*
X108166666Y-102041009D01*
X108309523Y-102564819D02*
X107833333Y-102564819D01*
X107833333Y-102564819D02*
X107833333Y-101564819D01*
X107833333Y-101564819D02*
X108309523Y-101564819D01*
X108738095Y-101564819D02*
X108738095Y-102374342D01*
X108738095Y-102374342D02*
X108785714Y-102469580D01*
X108785714Y-102469580D02*
X108833333Y-102517200D01*
X108833333Y-102517200D02*
X108928571Y-102564819D01*
X108928571Y-102564819D02*
X109119047Y-102564819D01*
X109119047Y-102564819D02*
X109214285Y-102517200D01*
X109214285Y-102517200D02*
X109261904Y-102469580D01*
X109261904Y-102469580D02*
X109309523Y-102374342D01*
X109309523Y-102374342D02*
X109309523Y-101564819D01*
X109928571Y-101993390D02*
X109833333Y-101945771D01*
X109833333Y-101945771D02*
X109785714Y-101898152D01*
X109785714Y-101898152D02*
X109738095Y-101802914D01*
X109738095Y-101802914D02*
X109738095Y-101755295D01*
X109738095Y-101755295D02*
X109785714Y-101660057D01*
X109785714Y-101660057D02*
X109833333Y-101612438D01*
X109833333Y-101612438D02*
X109928571Y-101564819D01*
X109928571Y-101564819D02*
X110119047Y-101564819D01*
X110119047Y-101564819D02*
X110214285Y-101612438D01*
X110214285Y-101612438D02*
X110261904Y-101660057D01*
X110261904Y-101660057D02*
X110309523Y-101755295D01*
X110309523Y-101755295D02*
X110309523Y-101802914D01*
X110309523Y-101802914D02*
X110261904Y-101898152D01*
X110261904Y-101898152D02*
X110214285Y-101945771D01*
X110214285Y-101945771D02*
X110119047Y-101993390D01*
X110119047Y-101993390D02*
X109928571Y-101993390D01*
X109928571Y-101993390D02*
X109833333Y-102041009D01*
X109833333Y-102041009D02*
X109785714Y-102088628D01*
X109785714Y-102088628D02*
X109738095Y-102183866D01*
X109738095Y-102183866D02*
X109738095Y-102374342D01*
X109738095Y-102374342D02*
X109785714Y-102469580D01*
X109785714Y-102469580D02*
X109833333Y-102517200D01*
X109833333Y-102517200D02*
X109928571Y-102564819D01*
X109928571Y-102564819D02*
X110119047Y-102564819D01*
X110119047Y-102564819D02*
X110214285Y-102517200D01*
X110214285Y-102517200D02*
X110261904Y-102469580D01*
X110261904Y-102469580D02*
X110309523Y-102374342D01*
X110309523Y-102374342D02*
X110309523Y-102183866D01*
X110309523Y-102183866D02*
X110261904Y-102088628D01*
X110261904Y-102088628D02*
X110214285Y-102041009D01*
X110214285Y-102041009D02*
X110119047Y-101993390D01*
X111166666Y-101564819D02*
X110976190Y-101564819D01*
X110976190Y-101564819D02*
X110880952Y-101612438D01*
X110880952Y-101612438D02*
X110833333Y-101660057D01*
X110833333Y-101660057D02*
X110738095Y-101802914D01*
X110738095Y-101802914D02*
X110690476Y-101993390D01*
X110690476Y-101993390D02*
X110690476Y-102374342D01*
X110690476Y-102374342D02*
X110738095Y-102469580D01*
X110738095Y-102469580D02*
X110785714Y-102517200D01*
X110785714Y-102517200D02*
X110880952Y-102564819D01*
X110880952Y-102564819D02*
X111071428Y-102564819D01*
X111071428Y-102564819D02*
X111166666Y-102517200D01*
X111166666Y-102517200D02*
X111214285Y-102469580D01*
X111214285Y-102469580D02*
X111261904Y-102374342D01*
X111261904Y-102374342D02*
X111261904Y-102136247D01*
X111261904Y-102136247D02*
X111214285Y-102041009D01*
X111214285Y-102041009D02*
X111166666Y-101993390D01*
X111166666Y-101993390D02*
X111071428Y-101945771D01*
X111071428Y-101945771D02*
X110880952Y-101945771D01*
X110880952Y-101945771D02*
X110785714Y-101993390D01*
X110785714Y-101993390D02*
X110738095Y-102041009D01*
X110738095Y-102041009D02*
X110690476Y-102136247D01*
X111833333Y-101993390D02*
X111738095Y-101945771D01*
X111738095Y-101945771D02*
X111690476Y-101898152D01*
X111690476Y-101898152D02*
X111642857Y-101802914D01*
X111642857Y-101802914D02*
X111642857Y-101755295D01*
X111642857Y-101755295D02*
X111690476Y-101660057D01*
X111690476Y-101660057D02*
X111738095Y-101612438D01*
X111738095Y-101612438D02*
X111833333Y-101564819D01*
X111833333Y-101564819D02*
X112023809Y-101564819D01*
X112023809Y-101564819D02*
X112119047Y-101612438D01*
X112119047Y-101612438D02*
X112166666Y-101660057D01*
X112166666Y-101660057D02*
X112214285Y-101755295D01*
X112214285Y-101755295D02*
X112214285Y-101802914D01*
X112214285Y-101802914D02*
X112166666Y-101898152D01*
X112166666Y-101898152D02*
X112119047Y-101945771D01*
X112119047Y-101945771D02*
X112023809Y-101993390D01*
X112023809Y-101993390D02*
X111833333Y-101993390D01*
X111833333Y-101993390D02*
X111738095Y-102041009D01*
X111738095Y-102041009D02*
X111690476Y-102088628D01*
X111690476Y-102088628D02*
X111642857Y-102183866D01*
X111642857Y-102183866D02*
X111642857Y-102374342D01*
X111642857Y-102374342D02*
X111690476Y-102469580D01*
X111690476Y-102469580D02*
X111738095Y-102517200D01*
X111738095Y-102517200D02*
X111833333Y-102564819D01*
X111833333Y-102564819D02*
X112023809Y-102564819D01*
X112023809Y-102564819D02*
X112119047Y-102517200D01*
X112119047Y-102517200D02*
X112166666Y-102469580D01*
X112166666Y-102469580D02*
X112214285Y-102374342D01*
X112214285Y-102374342D02*
X112214285Y-102183866D01*
X112214285Y-102183866D02*
X112166666Y-102088628D01*
X112166666Y-102088628D02*
X112119047Y-102041009D01*
X112119047Y-102041009D02*
X112023809Y-101993390D01*
X113547619Y-101564819D02*
X113547619Y-101802914D01*
X113309524Y-101707676D02*
X113547619Y-101802914D01*
X113547619Y-101802914D02*
X113785714Y-101707676D01*
X113404762Y-101993390D02*
X113547619Y-101802914D01*
X113547619Y-101802914D02*
X113690476Y-101993390D01*
X104119047Y-103174819D02*
X104452380Y-104174819D01*
X104452380Y-104174819D02*
X104785713Y-103174819D01*
X105309523Y-103174819D02*
X105404761Y-103174819D01*
X105404761Y-103174819D02*
X105499999Y-103222438D01*
X105499999Y-103222438D02*
X105547618Y-103270057D01*
X105547618Y-103270057D02*
X105595237Y-103365295D01*
X105595237Y-103365295D02*
X105642856Y-103555771D01*
X105642856Y-103555771D02*
X105642856Y-103793866D01*
X105642856Y-103793866D02*
X105595237Y-103984342D01*
X105595237Y-103984342D02*
X105547618Y-104079580D01*
X105547618Y-104079580D02*
X105499999Y-104127200D01*
X105499999Y-104127200D02*
X105404761Y-104174819D01*
X105404761Y-104174819D02*
X105309523Y-104174819D01*
X105309523Y-104174819D02*
X105214285Y-104127200D01*
X105214285Y-104127200D02*
X105166666Y-104079580D01*
X105166666Y-104079580D02*
X105119047Y-103984342D01*
X105119047Y-103984342D02*
X105071428Y-103793866D01*
X105071428Y-103793866D02*
X105071428Y-103555771D01*
X105071428Y-103555771D02*
X105119047Y-103365295D01*
X105119047Y-103365295D02*
X105166666Y-103270057D01*
X105166666Y-103270057D02*
X105214285Y-103222438D01*
X105214285Y-103222438D02*
X105309523Y-103174819D01*
X106071428Y-104079580D02*
X106119047Y-104127200D01*
X106119047Y-104127200D02*
X106071428Y-104174819D01*
X106071428Y-104174819D02*
X106023809Y-104127200D01*
X106023809Y-104127200D02*
X106071428Y-104079580D01*
X106071428Y-104079580D02*
X106071428Y-104174819D01*
X107071427Y-104174819D02*
X106499999Y-104174819D01*
X106785713Y-104174819D02*
X106785713Y-103174819D01*
X106785713Y-103174819D02*
X106690475Y-103317676D01*
X106690475Y-103317676D02*
X106595237Y-103412914D01*
X106595237Y-103412914D02*
X106499999Y-103460533D01*
X108261904Y-103793866D02*
X109023809Y-103793866D01*
X110595237Y-103651009D02*
X110738094Y-103698628D01*
X110738094Y-103698628D02*
X110785713Y-103746247D01*
X110785713Y-103746247D02*
X110833332Y-103841485D01*
X110833332Y-103841485D02*
X110833332Y-103984342D01*
X110833332Y-103984342D02*
X110785713Y-104079580D01*
X110785713Y-104079580D02*
X110738094Y-104127200D01*
X110738094Y-104127200D02*
X110642856Y-104174819D01*
X110642856Y-104174819D02*
X110261904Y-104174819D01*
X110261904Y-104174819D02*
X110261904Y-103174819D01*
X110261904Y-103174819D02*
X110595237Y-103174819D01*
X110595237Y-103174819D02*
X110690475Y-103222438D01*
X110690475Y-103222438D02*
X110738094Y-103270057D01*
X110738094Y-103270057D02*
X110785713Y-103365295D01*
X110785713Y-103365295D02*
X110785713Y-103460533D01*
X110785713Y-103460533D02*
X110738094Y-103555771D01*
X110738094Y-103555771D02*
X110690475Y-103603390D01*
X110690475Y-103603390D02*
X110595237Y-103651009D01*
X110595237Y-103651009D02*
X110261904Y-103651009D01*
X111690475Y-104174819D02*
X111690475Y-103651009D01*
X111690475Y-103651009D02*
X111642856Y-103555771D01*
X111642856Y-103555771D02*
X111547618Y-103508152D01*
X111547618Y-103508152D02*
X111357142Y-103508152D01*
X111357142Y-103508152D02*
X111261904Y-103555771D01*
X111690475Y-104127200D02*
X111595237Y-104174819D01*
X111595237Y-104174819D02*
X111357142Y-104174819D01*
X111357142Y-104174819D02*
X111261904Y-104127200D01*
X111261904Y-104127200D02*
X111214285Y-104031961D01*
X111214285Y-104031961D02*
X111214285Y-103936723D01*
X111214285Y-103936723D02*
X111261904Y-103841485D01*
X111261904Y-103841485D02*
X111357142Y-103793866D01*
X111357142Y-103793866D02*
X111595237Y-103793866D01*
X111595237Y-103793866D02*
X111690475Y-103746247D01*
X112023809Y-103508152D02*
X112404761Y-103508152D01*
X112166666Y-103174819D02*
X112166666Y-104031961D01*
X112166666Y-104031961D02*
X112214285Y-104127200D01*
X112214285Y-104127200D02*
X112309523Y-104174819D01*
X112309523Y-104174819D02*
X112404761Y-104174819D01*
X113166666Y-104127200D02*
X113071428Y-104174819D01*
X113071428Y-104174819D02*
X112880952Y-104174819D01*
X112880952Y-104174819D02*
X112785714Y-104127200D01*
X112785714Y-104127200D02*
X112738095Y-104079580D01*
X112738095Y-104079580D02*
X112690476Y-103984342D01*
X112690476Y-103984342D02*
X112690476Y-103698628D01*
X112690476Y-103698628D02*
X112738095Y-103603390D01*
X112738095Y-103603390D02*
X112785714Y-103555771D01*
X112785714Y-103555771D02*
X112880952Y-103508152D01*
X112880952Y-103508152D02*
X113071428Y-103508152D01*
X113071428Y-103508152D02*
X113166666Y-103555771D01*
X113595238Y-104174819D02*
X113595238Y-103174819D01*
X114023809Y-104174819D02*
X114023809Y-103651009D01*
X114023809Y-103651009D02*
X113976190Y-103555771D01*
X113976190Y-103555771D02*
X113880952Y-103508152D01*
X113880952Y-103508152D02*
X113738095Y-103508152D01*
X113738095Y-103508152D02*
X113642857Y-103555771D01*
X113642857Y-103555771D02*
X113595238Y-103603390D01*
X115785714Y-104174819D02*
X115214286Y-104174819D01*
X115500000Y-104174819D02*
X115500000Y-103174819D01*
X115500000Y-103174819D02*
X115404762Y-103317676D01*
X115404762Y-103317676D02*
X115309524Y-103412914D01*
X115309524Y-103412914D02*
X115214286Y-103460533D01*
D11*
X124938095Y-65125333D02*
X126461905Y-65125333D01*
D10*
X125359580Y-92166666D02*
X125407200Y-92214285D01*
X125407200Y-92214285D02*
X125454819Y-92357142D01*
X125454819Y-92357142D02*
X125454819Y-92452380D01*
X125454819Y-92452380D02*
X125407200Y-92595237D01*
X125407200Y-92595237D02*
X125311961Y-92690475D01*
X125311961Y-92690475D02*
X125216723Y-92738094D01*
X125216723Y-92738094D02*
X125026247Y-92785713D01*
X125026247Y-92785713D02*
X124883390Y-92785713D01*
X124883390Y-92785713D02*
X124692914Y-92738094D01*
X124692914Y-92738094D02*
X124597676Y-92690475D01*
X124597676Y-92690475D02*
X124502438Y-92595237D01*
X124502438Y-92595237D02*
X124454819Y-92452380D01*
X124454819Y-92452380D02*
X124454819Y-92357142D01*
X124454819Y-92357142D02*
X124502438Y-92214285D01*
X124502438Y-92214285D02*
X124550057Y-92166666D01*
X124454819Y-91833332D02*
X124454819Y-91166666D01*
X124454819Y-91166666D02*
X125454819Y-91595237D01*
X125359580Y-97166666D02*
X125407200Y-97214285D01*
X125407200Y-97214285D02*
X125454819Y-97357142D01*
X125454819Y-97357142D02*
X125454819Y-97452380D01*
X125454819Y-97452380D02*
X125407200Y-97595237D01*
X125407200Y-97595237D02*
X125311961Y-97690475D01*
X125311961Y-97690475D02*
X125216723Y-97738094D01*
X125216723Y-97738094D02*
X125026247Y-97785713D01*
X125026247Y-97785713D02*
X124883390Y-97785713D01*
X124883390Y-97785713D02*
X124692914Y-97738094D01*
X124692914Y-97738094D02*
X124597676Y-97690475D01*
X124597676Y-97690475D02*
X124502438Y-97595237D01*
X124502438Y-97595237D02*
X124454819Y-97452380D01*
X124454819Y-97452380D02*
X124454819Y-97357142D01*
X124454819Y-97357142D02*
X124502438Y-97214285D01*
X124502438Y-97214285D02*
X124550057Y-97166666D01*
X124454819Y-96309523D02*
X124454819Y-96499999D01*
X124454819Y-96499999D02*
X124502438Y-96595237D01*
X124502438Y-96595237D02*
X124550057Y-96642856D01*
X124550057Y-96642856D02*
X124692914Y-96738094D01*
X124692914Y-96738094D02*
X124883390Y-96785713D01*
X124883390Y-96785713D02*
X125264342Y-96785713D01*
X125264342Y-96785713D02*
X125359580Y-96738094D01*
X125359580Y-96738094D02*
X125407200Y-96690475D01*
X125407200Y-96690475D02*
X125454819Y-96595237D01*
X125454819Y-96595237D02*
X125454819Y-96404761D01*
X125454819Y-96404761D02*
X125407200Y-96309523D01*
X125407200Y-96309523D02*
X125359580Y-96261904D01*
X125359580Y-96261904D02*
X125264342Y-96214285D01*
X125264342Y-96214285D02*
X125026247Y-96214285D01*
X125026247Y-96214285D02*
X124931009Y-96261904D01*
X124931009Y-96261904D02*
X124883390Y-96309523D01*
X124883390Y-96309523D02*
X124835771Y-96404761D01*
X124835771Y-96404761D02*
X124835771Y-96595237D01*
X124835771Y-96595237D02*
X124883390Y-96690475D01*
X124883390Y-96690475D02*
X124931009Y-96738094D01*
X124931009Y-96738094D02*
X125026247Y-96785713D01*
X110954819Y-82666666D02*
X110478628Y-82999999D01*
X110954819Y-83238094D02*
X109954819Y-83238094D01*
X109954819Y-83238094D02*
X109954819Y-82857142D01*
X109954819Y-82857142D02*
X110002438Y-82761904D01*
X110002438Y-82761904D02*
X110050057Y-82714285D01*
X110050057Y-82714285D02*
X110145295Y-82666666D01*
X110145295Y-82666666D02*
X110288152Y-82666666D01*
X110288152Y-82666666D02*
X110383390Y-82714285D01*
X110383390Y-82714285D02*
X110431009Y-82761904D01*
X110431009Y-82761904D02*
X110478628Y-82857142D01*
X110478628Y-82857142D02*
X110478628Y-83238094D01*
X110288152Y-81809523D02*
X110954819Y-81809523D01*
X109907200Y-82047618D02*
X110621485Y-82285713D01*
X110621485Y-82285713D02*
X110621485Y-81666666D01*
X102511905Y-79954819D02*
X102511905Y-78954819D01*
X102511905Y-78954819D02*
X102750000Y-78954819D01*
X102750000Y-78954819D02*
X102892857Y-79002438D01*
X102892857Y-79002438D02*
X102988095Y-79097676D01*
X102988095Y-79097676D02*
X103035714Y-79192914D01*
X103035714Y-79192914D02*
X103083333Y-79383390D01*
X103083333Y-79383390D02*
X103083333Y-79526247D01*
X103083333Y-79526247D02*
X103035714Y-79716723D01*
X103035714Y-79716723D02*
X102988095Y-79811961D01*
X102988095Y-79811961D02*
X102892857Y-79907200D01*
X102892857Y-79907200D02*
X102750000Y-79954819D01*
X102750000Y-79954819D02*
X102511905Y-79954819D01*
X104035714Y-79954819D02*
X103464286Y-79954819D01*
X103750000Y-79954819D02*
X103750000Y-78954819D01*
X103750000Y-78954819D02*
X103654762Y-79097676D01*
X103654762Y-79097676D02*
X103559524Y-79192914D01*
X103559524Y-79192914D02*
X103464286Y-79240533D01*
X91583333Y-67454819D02*
X91250000Y-66978628D01*
X91011905Y-67454819D02*
X91011905Y-66454819D01*
X91011905Y-66454819D02*
X91392857Y-66454819D01*
X91392857Y-66454819D02*
X91488095Y-66502438D01*
X91488095Y-66502438D02*
X91535714Y-66550057D01*
X91535714Y-66550057D02*
X91583333Y-66645295D01*
X91583333Y-66645295D02*
X91583333Y-66788152D01*
X91583333Y-66788152D02*
X91535714Y-66883390D01*
X91535714Y-66883390D02*
X91488095Y-66931009D01*
X91488095Y-66931009D02*
X91392857Y-66978628D01*
X91392857Y-66978628D02*
X91011905Y-66978628D01*
X92154762Y-66883390D02*
X92059524Y-66835771D01*
X92059524Y-66835771D02*
X92011905Y-66788152D01*
X92011905Y-66788152D02*
X91964286Y-66692914D01*
X91964286Y-66692914D02*
X91964286Y-66645295D01*
X91964286Y-66645295D02*
X92011905Y-66550057D01*
X92011905Y-66550057D02*
X92059524Y-66502438D01*
X92059524Y-66502438D02*
X92154762Y-66454819D01*
X92154762Y-66454819D02*
X92345238Y-66454819D01*
X92345238Y-66454819D02*
X92440476Y-66502438D01*
X92440476Y-66502438D02*
X92488095Y-66550057D01*
X92488095Y-66550057D02*
X92535714Y-66645295D01*
X92535714Y-66645295D02*
X92535714Y-66692914D01*
X92535714Y-66692914D02*
X92488095Y-66788152D01*
X92488095Y-66788152D02*
X92440476Y-66835771D01*
X92440476Y-66835771D02*
X92345238Y-66883390D01*
X92345238Y-66883390D02*
X92154762Y-66883390D01*
X92154762Y-66883390D02*
X92059524Y-66931009D01*
X92059524Y-66931009D02*
X92011905Y-66978628D01*
X92011905Y-66978628D02*
X91964286Y-67073866D01*
X91964286Y-67073866D02*
X91964286Y-67264342D01*
X91964286Y-67264342D02*
X92011905Y-67359580D01*
X92011905Y-67359580D02*
X92059524Y-67407200D01*
X92059524Y-67407200D02*
X92154762Y-67454819D01*
X92154762Y-67454819D02*
X92345238Y-67454819D01*
X92345238Y-67454819D02*
X92440476Y-67407200D01*
X92440476Y-67407200D02*
X92488095Y-67359580D01*
X92488095Y-67359580D02*
X92535714Y-67264342D01*
X92535714Y-67264342D02*
X92535714Y-67073866D01*
X92535714Y-67073866D02*
X92488095Y-66978628D01*
X92488095Y-66978628D02*
X92440476Y-66931009D01*
X92440476Y-66931009D02*
X92345238Y-66883390D01*
X107707142Y-60609580D02*
X107659523Y-60657200D01*
X107659523Y-60657200D02*
X107516666Y-60704819D01*
X107516666Y-60704819D02*
X107421428Y-60704819D01*
X107421428Y-60704819D02*
X107278571Y-60657200D01*
X107278571Y-60657200D02*
X107183333Y-60561961D01*
X107183333Y-60561961D02*
X107135714Y-60466723D01*
X107135714Y-60466723D02*
X107088095Y-60276247D01*
X107088095Y-60276247D02*
X107088095Y-60133390D01*
X107088095Y-60133390D02*
X107135714Y-59942914D01*
X107135714Y-59942914D02*
X107183333Y-59847676D01*
X107183333Y-59847676D02*
X107278571Y-59752438D01*
X107278571Y-59752438D02*
X107421428Y-59704819D01*
X107421428Y-59704819D02*
X107516666Y-59704819D01*
X107516666Y-59704819D02*
X107659523Y-59752438D01*
X107659523Y-59752438D02*
X107707142Y-59800057D01*
X108659523Y-60704819D02*
X108088095Y-60704819D01*
X108373809Y-60704819D02*
X108373809Y-59704819D01*
X108373809Y-59704819D02*
X108278571Y-59847676D01*
X108278571Y-59847676D02*
X108183333Y-59942914D01*
X108183333Y-59942914D02*
X108088095Y-59990533D01*
X109278571Y-59704819D02*
X109373809Y-59704819D01*
X109373809Y-59704819D02*
X109469047Y-59752438D01*
X109469047Y-59752438D02*
X109516666Y-59800057D01*
X109516666Y-59800057D02*
X109564285Y-59895295D01*
X109564285Y-59895295D02*
X109611904Y-60085771D01*
X109611904Y-60085771D02*
X109611904Y-60323866D01*
X109611904Y-60323866D02*
X109564285Y-60514342D01*
X109564285Y-60514342D02*
X109516666Y-60609580D01*
X109516666Y-60609580D02*
X109469047Y-60657200D01*
X109469047Y-60657200D02*
X109373809Y-60704819D01*
X109373809Y-60704819D02*
X109278571Y-60704819D01*
X109278571Y-60704819D02*
X109183333Y-60657200D01*
X109183333Y-60657200D02*
X109135714Y-60609580D01*
X109135714Y-60609580D02*
X109088095Y-60514342D01*
X109088095Y-60514342D02*
X109040476Y-60323866D01*
X109040476Y-60323866D02*
X109040476Y-60085771D01*
X109040476Y-60085771D02*
X109088095Y-59895295D01*
X109088095Y-59895295D02*
X109135714Y-59800057D01*
X109135714Y-59800057D02*
X109183333Y-59752438D01*
X109183333Y-59752438D02*
X109278571Y-59704819D01*
D12*
X107793809Y-48836461D02*
X108398571Y-48836461D01*
X107672857Y-49199318D02*
X108096190Y-47929318D01*
X108096190Y-47929318D02*
X108519524Y-49199318D01*
X108942856Y-49199318D02*
X108942856Y-47929318D01*
X108942856Y-47929318D02*
X109668571Y-49199318D01*
X109668571Y-49199318D02*
X109668571Y-47929318D01*
X110091904Y-47929318D02*
X110817618Y-47929318D01*
X110454761Y-49199318D02*
X110454761Y-47929318D01*
X111906190Y-49199318D02*
X111180475Y-49199318D01*
X111543332Y-49199318D02*
X111543332Y-47929318D01*
X111543332Y-47929318D02*
X111422380Y-48110746D01*
X111422380Y-48110746D02*
X111301428Y-48231699D01*
X111301428Y-48231699D02*
X111180475Y-48292175D01*
D10*
X118333333Y-79859580D02*
X118285714Y-79907200D01*
X118285714Y-79907200D02*
X118142857Y-79954819D01*
X118142857Y-79954819D02*
X118047619Y-79954819D01*
X118047619Y-79954819D02*
X117904762Y-79907200D01*
X117904762Y-79907200D02*
X117809524Y-79811961D01*
X117809524Y-79811961D02*
X117761905Y-79716723D01*
X117761905Y-79716723D02*
X117714286Y-79526247D01*
X117714286Y-79526247D02*
X117714286Y-79383390D01*
X117714286Y-79383390D02*
X117761905Y-79192914D01*
X117761905Y-79192914D02*
X117809524Y-79097676D01*
X117809524Y-79097676D02*
X117904762Y-79002438D01*
X117904762Y-79002438D02*
X118047619Y-78954819D01*
X118047619Y-78954819D02*
X118142857Y-78954819D01*
X118142857Y-78954819D02*
X118285714Y-79002438D01*
X118285714Y-79002438D02*
X118333333Y-79050057D01*
X118714286Y-79050057D02*
X118761905Y-79002438D01*
X118761905Y-79002438D02*
X118857143Y-78954819D01*
X118857143Y-78954819D02*
X119095238Y-78954819D01*
X119095238Y-78954819D02*
X119190476Y-79002438D01*
X119190476Y-79002438D02*
X119238095Y-79050057D01*
X119238095Y-79050057D02*
X119285714Y-79145295D01*
X119285714Y-79145295D02*
X119285714Y-79240533D01*
X119285714Y-79240533D02*
X119238095Y-79383390D01*
X119238095Y-79383390D02*
X118666667Y-79954819D01*
X118666667Y-79954819D02*
X119285714Y-79954819D01*
X113954819Y-82666666D02*
X113478628Y-82999999D01*
X113954819Y-83238094D02*
X112954819Y-83238094D01*
X112954819Y-83238094D02*
X112954819Y-82857142D01*
X112954819Y-82857142D02*
X113002438Y-82761904D01*
X113002438Y-82761904D02*
X113050057Y-82714285D01*
X113050057Y-82714285D02*
X113145295Y-82666666D01*
X113145295Y-82666666D02*
X113288152Y-82666666D01*
X113288152Y-82666666D02*
X113383390Y-82714285D01*
X113383390Y-82714285D02*
X113431009Y-82761904D01*
X113431009Y-82761904D02*
X113478628Y-82857142D01*
X113478628Y-82857142D02*
X113478628Y-83238094D01*
X113954819Y-81714285D02*
X113954819Y-82285713D01*
X113954819Y-81999999D02*
X112954819Y-81999999D01*
X112954819Y-81999999D02*
X113097676Y-82095237D01*
X113097676Y-82095237D02*
X113192914Y-82190475D01*
X113192914Y-82190475D02*
X113240533Y-82285713D01*
D12*
X127306667Y-54935318D02*
X127306667Y-55842461D01*
X127306667Y-55842461D02*
X127246190Y-56023889D01*
X127246190Y-56023889D02*
X127125238Y-56144842D01*
X127125238Y-56144842D02*
X126943809Y-56205318D01*
X126943809Y-56205318D02*
X126822857Y-56205318D01*
X127850952Y-55056270D02*
X127911428Y-54995794D01*
X127911428Y-54995794D02*
X128032381Y-54935318D01*
X128032381Y-54935318D02*
X128334762Y-54935318D01*
X128334762Y-54935318D02*
X128455714Y-54995794D01*
X128455714Y-54995794D02*
X128516190Y-55056270D01*
X128516190Y-55056270D02*
X128576667Y-55177222D01*
X128576667Y-55177222D02*
X128576667Y-55298175D01*
X128576667Y-55298175D02*
X128516190Y-55479603D01*
X128516190Y-55479603D02*
X127790476Y-56205318D01*
X127790476Y-56205318D02*
X128576667Y-56205318D01*
D10*
X127866666Y-62354819D02*
X127866666Y-63069104D01*
X127866666Y-63069104D02*
X127819047Y-63211961D01*
X127819047Y-63211961D02*
X127723809Y-63307200D01*
X127723809Y-63307200D02*
X127580952Y-63354819D01*
X127580952Y-63354819D02*
X127485714Y-63354819D01*
X128866666Y-63354819D02*
X128295238Y-63354819D01*
X128580952Y-63354819D02*
X128580952Y-62354819D01*
X128580952Y-62354819D02*
X128485714Y-62497676D01*
X128485714Y-62497676D02*
X128390476Y-62592914D01*
X128390476Y-62592914D02*
X128295238Y-62640533D01*
X106183333Y-58454819D02*
X105850000Y-57978628D01*
X105611905Y-58454819D02*
X105611905Y-57454819D01*
X105611905Y-57454819D02*
X105992857Y-57454819D01*
X105992857Y-57454819D02*
X106088095Y-57502438D01*
X106088095Y-57502438D02*
X106135714Y-57550057D01*
X106135714Y-57550057D02*
X106183333Y-57645295D01*
X106183333Y-57645295D02*
X106183333Y-57788152D01*
X106183333Y-57788152D02*
X106135714Y-57883390D01*
X106135714Y-57883390D02*
X106088095Y-57931009D01*
X106088095Y-57931009D02*
X105992857Y-57978628D01*
X105992857Y-57978628D02*
X105611905Y-57978628D01*
X106564286Y-57550057D02*
X106611905Y-57502438D01*
X106611905Y-57502438D02*
X106707143Y-57454819D01*
X106707143Y-57454819D02*
X106945238Y-57454819D01*
X106945238Y-57454819D02*
X107040476Y-57502438D01*
X107040476Y-57502438D02*
X107088095Y-57550057D01*
X107088095Y-57550057D02*
X107135714Y-57645295D01*
X107135714Y-57645295D02*
X107135714Y-57740533D01*
X107135714Y-57740533D02*
X107088095Y-57883390D01*
X107088095Y-57883390D02*
X106516667Y-58454819D01*
X106516667Y-58454819D02*
X107135714Y-58454819D01*
X107707142Y-56109580D02*
X107659523Y-56157200D01*
X107659523Y-56157200D02*
X107516666Y-56204819D01*
X107516666Y-56204819D02*
X107421428Y-56204819D01*
X107421428Y-56204819D02*
X107278571Y-56157200D01*
X107278571Y-56157200D02*
X107183333Y-56061961D01*
X107183333Y-56061961D02*
X107135714Y-55966723D01*
X107135714Y-55966723D02*
X107088095Y-55776247D01*
X107088095Y-55776247D02*
X107088095Y-55633390D01*
X107088095Y-55633390D02*
X107135714Y-55442914D01*
X107135714Y-55442914D02*
X107183333Y-55347676D01*
X107183333Y-55347676D02*
X107278571Y-55252438D01*
X107278571Y-55252438D02*
X107421428Y-55204819D01*
X107421428Y-55204819D02*
X107516666Y-55204819D01*
X107516666Y-55204819D02*
X107659523Y-55252438D01*
X107659523Y-55252438D02*
X107707142Y-55300057D01*
X108659523Y-56204819D02*
X108088095Y-56204819D01*
X108373809Y-56204819D02*
X108373809Y-55204819D01*
X108373809Y-55204819D02*
X108278571Y-55347676D01*
X108278571Y-55347676D02*
X108183333Y-55442914D01*
X108183333Y-55442914D02*
X108088095Y-55490533D01*
X109611904Y-56204819D02*
X109040476Y-56204819D01*
X109326190Y-56204819D02*
X109326190Y-55204819D01*
X109326190Y-55204819D02*
X109230952Y-55347676D01*
X109230952Y-55347676D02*
X109135714Y-55442914D01*
X109135714Y-55442914D02*
X109040476Y-55490533D01*
X98704819Y-66666666D02*
X98228628Y-66999999D01*
X98704819Y-67238094D02*
X97704819Y-67238094D01*
X97704819Y-67238094D02*
X97704819Y-66857142D01*
X97704819Y-66857142D02*
X97752438Y-66761904D01*
X97752438Y-66761904D02*
X97800057Y-66714285D01*
X97800057Y-66714285D02*
X97895295Y-66666666D01*
X97895295Y-66666666D02*
X98038152Y-66666666D01*
X98038152Y-66666666D02*
X98133390Y-66714285D01*
X98133390Y-66714285D02*
X98181009Y-66761904D01*
X98181009Y-66761904D02*
X98228628Y-66857142D01*
X98228628Y-66857142D02*
X98228628Y-67238094D01*
X97704819Y-65809523D02*
X97704819Y-65999999D01*
X97704819Y-65999999D02*
X97752438Y-66095237D01*
X97752438Y-66095237D02*
X97800057Y-66142856D01*
X97800057Y-66142856D02*
X97942914Y-66238094D01*
X97942914Y-66238094D02*
X98133390Y-66285713D01*
X98133390Y-66285713D02*
X98514342Y-66285713D01*
X98514342Y-66285713D02*
X98609580Y-66238094D01*
X98609580Y-66238094D02*
X98657200Y-66190475D01*
X98657200Y-66190475D02*
X98704819Y-66095237D01*
X98704819Y-66095237D02*
X98704819Y-65904761D01*
X98704819Y-65904761D02*
X98657200Y-65809523D01*
X98657200Y-65809523D02*
X98609580Y-65761904D01*
X98609580Y-65761904D02*
X98514342Y-65714285D01*
X98514342Y-65714285D02*
X98276247Y-65714285D01*
X98276247Y-65714285D02*
X98181009Y-65761904D01*
X98181009Y-65761904D02*
X98133390Y-65809523D01*
X98133390Y-65809523D02*
X98085771Y-65904761D01*
X98085771Y-65904761D02*
X98085771Y-66095237D01*
X98085771Y-66095237D02*
X98133390Y-66190475D01*
X98133390Y-66190475D02*
X98181009Y-66238094D01*
X98181009Y-66238094D02*
X98276247Y-66285713D01*
D12*
X94510237Y-67074318D02*
X94510237Y-65804318D01*
X95840714Y-66953365D02*
X95780238Y-67013842D01*
X95780238Y-67013842D02*
X95598809Y-67074318D01*
X95598809Y-67074318D02*
X95477857Y-67074318D01*
X95477857Y-67074318D02*
X95296428Y-67013842D01*
X95296428Y-67013842D02*
X95175476Y-66892889D01*
X95175476Y-66892889D02*
X95114999Y-66771937D01*
X95114999Y-66771937D02*
X95054523Y-66530032D01*
X95054523Y-66530032D02*
X95054523Y-66348603D01*
X95054523Y-66348603D02*
X95114999Y-66106699D01*
X95114999Y-66106699D02*
X95175476Y-65985746D01*
X95175476Y-65985746D02*
X95296428Y-65864794D01*
X95296428Y-65864794D02*
X95477857Y-65804318D01*
X95477857Y-65804318D02*
X95598809Y-65804318D01*
X95598809Y-65804318D02*
X95780238Y-65864794D01*
X95780238Y-65864794D02*
X95840714Y-65925270D01*
X97050238Y-67074318D02*
X96324523Y-67074318D01*
X96687380Y-67074318D02*
X96687380Y-65804318D01*
X96687380Y-65804318D02*
X96566428Y-65985746D01*
X96566428Y-65985746D02*
X96445476Y-66106699D01*
X96445476Y-66106699D02*
X96324523Y-66167175D01*
D10*
X98583333Y-74204819D02*
X98250000Y-73728628D01*
X98011905Y-74204819D02*
X98011905Y-73204819D01*
X98011905Y-73204819D02*
X98392857Y-73204819D01*
X98392857Y-73204819D02*
X98488095Y-73252438D01*
X98488095Y-73252438D02*
X98535714Y-73300057D01*
X98535714Y-73300057D02*
X98583333Y-73395295D01*
X98583333Y-73395295D02*
X98583333Y-73538152D01*
X98583333Y-73538152D02*
X98535714Y-73633390D01*
X98535714Y-73633390D02*
X98488095Y-73681009D01*
X98488095Y-73681009D02*
X98392857Y-73728628D01*
X98392857Y-73728628D02*
X98011905Y-73728628D01*
X98916667Y-73204819D02*
X99535714Y-73204819D01*
X99535714Y-73204819D02*
X99202381Y-73585771D01*
X99202381Y-73585771D02*
X99345238Y-73585771D01*
X99345238Y-73585771D02*
X99440476Y-73633390D01*
X99440476Y-73633390D02*
X99488095Y-73681009D01*
X99488095Y-73681009D02*
X99535714Y-73776247D01*
X99535714Y-73776247D02*
X99535714Y-74014342D01*
X99535714Y-74014342D02*
X99488095Y-74109580D01*
X99488095Y-74109580D02*
X99440476Y-74157200D01*
X99440476Y-74157200D02*
X99345238Y-74204819D01*
X99345238Y-74204819D02*
X99059524Y-74204819D01*
X99059524Y-74204819D02*
X98964286Y-74157200D01*
X98964286Y-74157200D02*
X98916667Y-74109580D01*
X125359580Y-107166666D02*
X125407200Y-107214285D01*
X125407200Y-107214285D02*
X125454819Y-107357142D01*
X125454819Y-107357142D02*
X125454819Y-107452380D01*
X125454819Y-107452380D02*
X125407200Y-107595237D01*
X125407200Y-107595237D02*
X125311961Y-107690475D01*
X125311961Y-107690475D02*
X125216723Y-107738094D01*
X125216723Y-107738094D02*
X125026247Y-107785713D01*
X125026247Y-107785713D02*
X124883390Y-107785713D01*
X124883390Y-107785713D02*
X124692914Y-107738094D01*
X124692914Y-107738094D02*
X124597676Y-107690475D01*
X124597676Y-107690475D02*
X124502438Y-107595237D01*
X124502438Y-107595237D02*
X124454819Y-107452380D01*
X124454819Y-107452380D02*
X124454819Y-107357142D01*
X124454819Y-107357142D02*
X124502438Y-107214285D01*
X124502438Y-107214285D02*
X124550057Y-107166666D01*
X124788152Y-106309523D02*
X125454819Y-106309523D01*
X124407200Y-106547618D02*
X125121485Y-106785713D01*
X125121485Y-106785713D02*
X125121485Y-106166666D01*
X100204819Y-66666666D02*
X99728628Y-66999999D01*
X100204819Y-67238094D02*
X99204819Y-67238094D01*
X99204819Y-67238094D02*
X99204819Y-66857142D01*
X99204819Y-66857142D02*
X99252438Y-66761904D01*
X99252438Y-66761904D02*
X99300057Y-66714285D01*
X99300057Y-66714285D02*
X99395295Y-66666666D01*
X99395295Y-66666666D02*
X99538152Y-66666666D01*
X99538152Y-66666666D02*
X99633390Y-66714285D01*
X99633390Y-66714285D02*
X99681009Y-66761904D01*
X99681009Y-66761904D02*
X99728628Y-66857142D01*
X99728628Y-66857142D02*
X99728628Y-67238094D01*
X99204819Y-66333332D02*
X99204819Y-65666666D01*
X99204819Y-65666666D02*
X100204819Y-66095237D01*
X118333333Y-81359580D02*
X118285714Y-81407200D01*
X118285714Y-81407200D02*
X118142857Y-81454819D01*
X118142857Y-81454819D02*
X118047619Y-81454819D01*
X118047619Y-81454819D02*
X117904762Y-81407200D01*
X117904762Y-81407200D02*
X117809524Y-81311961D01*
X117809524Y-81311961D02*
X117761905Y-81216723D01*
X117761905Y-81216723D02*
X117714286Y-81026247D01*
X117714286Y-81026247D02*
X117714286Y-80883390D01*
X117714286Y-80883390D02*
X117761905Y-80692914D01*
X117761905Y-80692914D02*
X117809524Y-80597676D01*
X117809524Y-80597676D02*
X117904762Y-80502438D01*
X117904762Y-80502438D02*
X118047619Y-80454819D01*
X118047619Y-80454819D02*
X118142857Y-80454819D01*
X118142857Y-80454819D02*
X118285714Y-80502438D01*
X118285714Y-80502438D02*
X118333333Y-80550057D01*
X119285714Y-81454819D02*
X118714286Y-81454819D01*
X119000000Y-81454819D02*
X119000000Y-80454819D01*
X119000000Y-80454819D02*
X118904762Y-80597676D01*
X118904762Y-80597676D02*
X118809524Y-80692914D01*
X118809524Y-80692914D02*
X118714286Y-80740533D01*
X98583333Y-72609580D02*
X98535714Y-72657200D01*
X98535714Y-72657200D02*
X98392857Y-72704819D01*
X98392857Y-72704819D02*
X98297619Y-72704819D01*
X98297619Y-72704819D02*
X98154762Y-72657200D01*
X98154762Y-72657200D02*
X98059524Y-72561961D01*
X98059524Y-72561961D02*
X98011905Y-72466723D01*
X98011905Y-72466723D02*
X97964286Y-72276247D01*
X97964286Y-72276247D02*
X97964286Y-72133390D01*
X97964286Y-72133390D02*
X98011905Y-71942914D01*
X98011905Y-71942914D02*
X98059524Y-71847676D01*
X98059524Y-71847676D02*
X98154762Y-71752438D01*
X98154762Y-71752438D02*
X98297619Y-71704819D01*
X98297619Y-71704819D02*
X98392857Y-71704819D01*
X98392857Y-71704819D02*
X98535714Y-71752438D01*
X98535714Y-71752438D02*
X98583333Y-71800057D01*
X99059524Y-72704819D02*
X99250000Y-72704819D01*
X99250000Y-72704819D02*
X99345238Y-72657200D01*
X99345238Y-72657200D02*
X99392857Y-72609580D01*
X99392857Y-72609580D02*
X99488095Y-72466723D01*
X99488095Y-72466723D02*
X99535714Y-72276247D01*
X99535714Y-72276247D02*
X99535714Y-71895295D01*
X99535714Y-71895295D02*
X99488095Y-71800057D01*
X99488095Y-71800057D02*
X99440476Y-71752438D01*
X99440476Y-71752438D02*
X99345238Y-71704819D01*
X99345238Y-71704819D02*
X99154762Y-71704819D01*
X99154762Y-71704819D02*
X99059524Y-71752438D01*
X99059524Y-71752438D02*
X99011905Y-71800057D01*
X99011905Y-71800057D02*
X98964286Y-71895295D01*
X98964286Y-71895295D02*
X98964286Y-72133390D01*
X98964286Y-72133390D02*
X99011905Y-72228628D01*
X99011905Y-72228628D02*
X99059524Y-72276247D01*
X99059524Y-72276247D02*
X99154762Y-72323866D01*
X99154762Y-72323866D02*
X99345238Y-72323866D01*
X99345238Y-72323866D02*
X99440476Y-72276247D01*
X99440476Y-72276247D02*
X99488095Y-72228628D01*
X99488095Y-72228628D02*
X99535714Y-72133390D01*
X103083333Y-81454819D02*
X102750000Y-80978628D01*
X102511905Y-81454819D02*
X102511905Y-80454819D01*
X102511905Y-80454819D02*
X102892857Y-80454819D01*
X102892857Y-80454819D02*
X102988095Y-80502438D01*
X102988095Y-80502438D02*
X103035714Y-80550057D01*
X103035714Y-80550057D02*
X103083333Y-80645295D01*
X103083333Y-80645295D02*
X103083333Y-80788152D01*
X103083333Y-80788152D02*
X103035714Y-80883390D01*
X103035714Y-80883390D02*
X102988095Y-80931009D01*
X102988095Y-80931009D02*
X102892857Y-80978628D01*
X102892857Y-80978628D02*
X102511905Y-80978628D01*
X103988095Y-80454819D02*
X103511905Y-80454819D01*
X103511905Y-80454819D02*
X103464286Y-80931009D01*
X103464286Y-80931009D02*
X103511905Y-80883390D01*
X103511905Y-80883390D02*
X103607143Y-80835771D01*
X103607143Y-80835771D02*
X103845238Y-80835771D01*
X103845238Y-80835771D02*
X103940476Y-80883390D01*
X103940476Y-80883390D02*
X103988095Y-80931009D01*
X103988095Y-80931009D02*
X104035714Y-81026247D01*
X104035714Y-81026247D02*
X104035714Y-81264342D01*
X104035714Y-81264342D02*
X103988095Y-81359580D01*
X103988095Y-81359580D02*
X103940476Y-81407200D01*
X103940476Y-81407200D02*
X103845238Y-81454819D01*
X103845238Y-81454819D02*
X103607143Y-81454819D01*
X103607143Y-81454819D02*
X103511905Y-81407200D01*
X103511905Y-81407200D02*
X103464286Y-81359580D01*
X109238095Y-66954819D02*
X109238095Y-67764342D01*
X109238095Y-67764342D02*
X109285714Y-67859580D01*
X109285714Y-67859580D02*
X109333333Y-67907200D01*
X109333333Y-67907200D02*
X109428571Y-67954819D01*
X109428571Y-67954819D02*
X109619047Y-67954819D01*
X109619047Y-67954819D02*
X109714285Y-67907200D01*
X109714285Y-67907200D02*
X109761904Y-67859580D01*
X109761904Y-67859580D02*
X109809523Y-67764342D01*
X109809523Y-67764342D02*
X109809523Y-66954819D01*
X110809523Y-67954819D02*
X110238095Y-67954819D01*
X110523809Y-67954819D02*
X110523809Y-66954819D01*
X110523809Y-66954819D02*
X110428571Y-67097676D01*
X110428571Y-67097676D02*
X110333333Y-67192914D01*
X110333333Y-67192914D02*
X110238095Y-67240533D01*
D11*
X106214286Y-70680928D02*
X105714286Y-69966642D01*
X105357143Y-70680928D02*
X105357143Y-69180928D01*
X105357143Y-69180928D02*
X105928572Y-69180928D01*
X105928572Y-69180928D02*
X106071429Y-69252357D01*
X106071429Y-69252357D02*
X106142858Y-69323785D01*
X106142858Y-69323785D02*
X106214286Y-69466642D01*
X106214286Y-69466642D02*
X106214286Y-69680928D01*
X106214286Y-69680928D02*
X106142858Y-69823785D01*
X106142858Y-69823785D02*
X106071429Y-69895214D01*
X106071429Y-69895214D02*
X105928572Y-69966642D01*
X105928572Y-69966642D02*
X105357143Y-69966642D01*
X106785715Y-70252357D02*
X107500001Y-70252357D01*
X106642858Y-70680928D02*
X107142858Y-69180928D01*
X107142858Y-69180928D02*
X107642858Y-70680928D01*
X108142857Y-70680928D02*
X108142857Y-69180928D01*
X109000000Y-70680928D02*
X108357143Y-69823785D01*
X109000000Y-69180928D02*
X108142857Y-70038071D01*
X109500000Y-69180928D02*
X110428572Y-69180928D01*
X110428572Y-69180928D02*
X109928572Y-69752357D01*
X109928572Y-69752357D02*
X110142857Y-69752357D01*
X110142857Y-69752357D02*
X110285715Y-69823785D01*
X110285715Y-69823785D02*
X110357143Y-69895214D01*
X110357143Y-69895214D02*
X110428572Y-70038071D01*
X110428572Y-70038071D02*
X110428572Y-70395214D01*
X110428572Y-70395214D02*
X110357143Y-70538071D01*
X110357143Y-70538071D02*
X110285715Y-70609500D01*
X110285715Y-70609500D02*
X110142857Y-70680928D01*
X110142857Y-70680928D02*
X109714286Y-70680928D01*
X109714286Y-70680928D02*
X109571429Y-70609500D01*
X109571429Y-70609500D02*
X109500000Y-70538071D01*
X111857143Y-70680928D02*
X111000000Y-70680928D01*
X111428571Y-70680928D02*
X111428571Y-69180928D01*
X111428571Y-69180928D02*
X111285714Y-69395214D01*
X111285714Y-69395214D02*
X111142857Y-69538071D01*
X111142857Y-69538071D02*
X111000000Y-69609500D01*
X112357142Y-69180928D02*
X113357142Y-69180928D01*
X113357142Y-69180928D02*
X112714285Y-70680928D01*
X113857142Y-69323785D02*
X113928570Y-69252357D01*
X113928570Y-69252357D02*
X114071428Y-69180928D01*
X114071428Y-69180928D02*
X114428570Y-69180928D01*
X114428570Y-69180928D02*
X114571428Y-69252357D01*
X114571428Y-69252357D02*
X114642856Y-69323785D01*
X114642856Y-69323785D02*
X114714285Y-69466642D01*
X114714285Y-69466642D02*
X114714285Y-69609500D01*
X114714285Y-69609500D02*
X114642856Y-69823785D01*
X114642856Y-69823785D02*
X113785713Y-70680928D01*
X113785713Y-70680928D02*
X114714285Y-70680928D01*
D10*
X112359580Y-82666666D02*
X112407200Y-82714285D01*
X112407200Y-82714285D02*
X112454819Y-82857142D01*
X112454819Y-82857142D02*
X112454819Y-82952380D01*
X112454819Y-82952380D02*
X112407200Y-83095237D01*
X112407200Y-83095237D02*
X112311961Y-83190475D01*
X112311961Y-83190475D02*
X112216723Y-83238094D01*
X112216723Y-83238094D02*
X112026247Y-83285713D01*
X112026247Y-83285713D02*
X111883390Y-83285713D01*
X111883390Y-83285713D02*
X111692914Y-83238094D01*
X111692914Y-83238094D02*
X111597676Y-83190475D01*
X111597676Y-83190475D02*
X111502438Y-83095237D01*
X111502438Y-83095237D02*
X111454819Y-82952380D01*
X111454819Y-82952380D02*
X111454819Y-82857142D01*
X111454819Y-82857142D02*
X111502438Y-82714285D01*
X111502438Y-82714285D02*
X111550057Y-82666666D01*
X111454819Y-82333332D02*
X111454819Y-81714285D01*
X111454819Y-81714285D02*
X111835771Y-82047618D01*
X111835771Y-82047618D02*
X111835771Y-81904761D01*
X111835771Y-81904761D02*
X111883390Y-81809523D01*
X111883390Y-81809523D02*
X111931009Y-81761904D01*
X111931009Y-81761904D02*
X112026247Y-81714285D01*
X112026247Y-81714285D02*
X112264342Y-81714285D01*
X112264342Y-81714285D02*
X112359580Y-81761904D01*
X112359580Y-81761904D02*
X112407200Y-81809523D01*
X112407200Y-81809523D02*
X112454819Y-81904761D01*
X112454819Y-81904761D02*
X112454819Y-82190475D01*
X112454819Y-82190475D02*
X112407200Y-82285713D01*
X112407200Y-82285713D02*
X112359580Y-82333332D01*
X93333333Y-74109580D02*
X93285714Y-74157200D01*
X93285714Y-74157200D02*
X93142857Y-74204819D01*
X93142857Y-74204819D02*
X93047619Y-74204819D01*
X93047619Y-74204819D02*
X92904762Y-74157200D01*
X92904762Y-74157200D02*
X92809524Y-74061961D01*
X92809524Y-74061961D02*
X92761905Y-73966723D01*
X92761905Y-73966723D02*
X92714286Y-73776247D01*
X92714286Y-73776247D02*
X92714286Y-73633390D01*
X92714286Y-73633390D02*
X92761905Y-73442914D01*
X92761905Y-73442914D02*
X92809524Y-73347676D01*
X92809524Y-73347676D02*
X92904762Y-73252438D01*
X92904762Y-73252438D02*
X93047619Y-73204819D01*
X93047619Y-73204819D02*
X93142857Y-73204819D01*
X93142857Y-73204819D02*
X93285714Y-73252438D01*
X93285714Y-73252438D02*
X93333333Y-73300057D01*
X93904762Y-73633390D02*
X93809524Y-73585771D01*
X93809524Y-73585771D02*
X93761905Y-73538152D01*
X93761905Y-73538152D02*
X93714286Y-73442914D01*
X93714286Y-73442914D02*
X93714286Y-73395295D01*
X93714286Y-73395295D02*
X93761905Y-73300057D01*
X93761905Y-73300057D02*
X93809524Y-73252438D01*
X93809524Y-73252438D02*
X93904762Y-73204819D01*
X93904762Y-73204819D02*
X94095238Y-73204819D01*
X94095238Y-73204819D02*
X94190476Y-73252438D01*
X94190476Y-73252438D02*
X94238095Y-73300057D01*
X94238095Y-73300057D02*
X94285714Y-73395295D01*
X94285714Y-73395295D02*
X94285714Y-73442914D01*
X94285714Y-73442914D02*
X94238095Y-73538152D01*
X94238095Y-73538152D02*
X94190476Y-73585771D01*
X94190476Y-73585771D02*
X94095238Y-73633390D01*
X94095238Y-73633390D02*
X93904762Y-73633390D01*
X93904762Y-73633390D02*
X93809524Y-73681009D01*
X93809524Y-73681009D02*
X93761905Y-73728628D01*
X93761905Y-73728628D02*
X93714286Y-73823866D01*
X93714286Y-73823866D02*
X93714286Y-74014342D01*
X93714286Y-74014342D02*
X93761905Y-74109580D01*
X93761905Y-74109580D02*
X93809524Y-74157200D01*
X93809524Y-74157200D02*
X93904762Y-74204819D01*
X93904762Y-74204819D02*
X94095238Y-74204819D01*
X94095238Y-74204819D02*
X94190476Y-74157200D01*
X94190476Y-74157200D02*
X94238095Y-74109580D01*
X94238095Y-74109580D02*
X94285714Y-74014342D01*
X94285714Y-74014342D02*
X94285714Y-73823866D01*
X94285714Y-73823866D02*
X94238095Y-73728628D01*
X94238095Y-73728628D02*
X94190476Y-73681009D01*
X94190476Y-73681009D02*
X94095238Y-73633390D01*
X125359580Y-102166666D02*
X125407200Y-102214285D01*
X125407200Y-102214285D02*
X125454819Y-102357142D01*
X125454819Y-102357142D02*
X125454819Y-102452380D01*
X125454819Y-102452380D02*
X125407200Y-102595237D01*
X125407200Y-102595237D02*
X125311961Y-102690475D01*
X125311961Y-102690475D02*
X125216723Y-102738094D01*
X125216723Y-102738094D02*
X125026247Y-102785713D01*
X125026247Y-102785713D02*
X124883390Y-102785713D01*
X124883390Y-102785713D02*
X124692914Y-102738094D01*
X124692914Y-102738094D02*
X124597676Y-102690475D01*
X124597676Y-102690475D02*
X124502438Y-102595237D01*
X124502438Y-102595237D02*
X124454819Y-102452380D01*
X124454819Y-102452380D02*
X124454819Y-102357142D01*
X124454819Y-102357142D02*
X124502438Y-102214285D01*
X124502438Y-102214285D02*
X124550057Y-102166666D01*
X124454819Y-101261904D02*
X124454819Y-101738094D01*
X124454819Y-101738094D02*
X124931009Y-101785713D01*
X124931009Y-101785713D02*
X124883390Y-101738094D01*
X124883390Y-101738094D02*
X124835771Y-101642856D01*
X124835771Y-101642856D02*
X124835771Y-101404761D01*
X124835771Y-101404761D02*
X124883390Y-101309523D01*
X124883390Y-101309523D02*
X124931009Y-101261904D01*
X124931009Y-101261904D02*
X125026247Y-101214285D01*
X125026247Y-101214285D02*
X125264342Y-101214285D01*
X125264342Y-101214285D02*
X125359580Y-101261904D01*
X125359580Y-101261904D02*
X125407200Y-101309523D01*
X125407200Y-101309523D02*
X125454819Y-101404761D01*
X125454819Y-101404761D02*
X125454819Y-101642856D01*
X125454819Y-101642856D02*
X125407200Y-101738094D01*
X125407200Y-101738094D02*
X125359580Y-101785713D01*
D13*
%TO.C,C7*%
X127460000Y-93510000D02*
X127460000Y-90490000D01*
X127460000Y-90490000D02*
X123250000Y-90490000D01*
X123250000Y-93510000D02*
X127460000Y-93510000D01*
%TO.C,C6*%
X127460000Y-98510000D02*
X127460000Y-95490000D01*
X127460000Y-95490000D02*
X123250000Y-95490000D01*
X123250000Y-98510000D02*
X127460000Y-98510000D01*
%TO.C,R4*%
X111010000Y-80109420D02*
X111010000Y-80390580D01*
X109990000Y-80109420D02*
X109990000Y-80390580D01*
%TO.C,D1*%
X104515000Y-78765000D02*
X104515000Y-80235000D01*
X104515000Y-80235000D02*
X106800000Y-80235000D01*
X106800000Y-78765000D02*
X104515000Y-78765000D01*
%TO.C,R8*%
X91240000Y-69140580D02*
X91240000Y-68859420D01*
X92260000Y-69140580D02*
X92260000Y-68859420D01*
%TO.C,C10*%
X105384420Y-59740000D02*
X105665580Y-59740000D01*
X105384420Y-60760000D02*
X105665580Y-60760000D01*
D14*
%TO.C,ANT1*%
X103250000Y-43450000D02*
X103250000Y-52550000D01*
X103250000Y-52550000D02*
X103450000Y-52550000D01*
D15*
X104650000Y-54300000D02*
X104650000Y-54300000D01*
X104750000Y-54300000D02*
X104750000Y-54300000D01*
D14*
X106050000Y-52550000D02*
X113650000Y-52550000D01*
X116250000Y-52550000D02*
X116450000Y-52550000D01*
X116450000Y-43450000D02*
X103250000Y-43450000D01*
X116450000Y-52550000D02*
X116450000Y-43450000D01*
D15*
X104750000Y-54300000D02*
G75*
G03*
X104650000Y-54300000I-50000J0D01*
G01*
X104650000Y-54300000D02*
G75*
G03*
X104750000Y-54300000I50000J0D01*
G01*
D13*
%TO.C,C2*%
X116140580Y-80010000D02*
X115859420Y-80010000D01*
X116140580Y-78990000D02*
X115859420Y-78990000D01*
%TO.C,R1*%
X112990000Y-80390580D02*
X112990000Y-80109420D01*
X114010000Y-80390580D02*
X114010000Y-80109420D01*
D15*
%TO.C,J2*%
X128933000Y-60564000D02*
X119027000Y-60564000D01*
X128933000Y-54468000D02*
X128933000Y-60564000D01*
X119027000Y-60564000D02*
X119027000Y-54468000D01*
X119027000Y-54468000D02*
X128933000Y-54468000D01*
D13*
%TO.C,J1*%
X126870000Y-63795000D02*
X128200000Y-63795000D01*
X126870000Y-65125000D02*
X126870000Y-63795000D01*
X126870000Y-66395000D02*
X126870000Y-68995000D01*
X126870000Y-66395000D02*
X129530000Y-66395000D01*
X126870000Y-68995000D02*
X129530000Y-68995000D01*
X129530000Y-66395000D02*
X129530000Y-68995000D01*
%TO.C,R2*%
X104227500Y-58237258D02*
X104227500Y-57762742D01*
X105272500Y-58237258D02*
X105272500Y-57762742D01*
%TO.C,C11*%
X105384420Y-55240000D02*
X105665580Y-55240000D01*
X105384420Y-56260000D02*
X105665580Y-56260000D01*
%TO.C,R6*%
X97740000Y-69140580D02*
X97740000Y-68859420D01*
X98760000Y-69140580D02*
X98760000Y-68859420D01*
D14*
%TO.C,IC1*%
X93500000Y-69600000D02*
X93500000Y-68400000D01*
X96500000Y-69600000D02*
X96500000Y-68400000D01*
D15*
X93800000Y-67000000D02*
X93800000Y-67000000D01*
X93800000Y-66900000D02*
X93800000Y-66900000D01*
X93800000Y-66900000D02*
G75*
G03*
X93800000Y-67000000I0J-50000D01*
G01*
X93800000Y-67000000D02*
G75*
G03*
X93800000Y-66900000I0J50000D01*
G01*
D13*
%TO.C,R3*%
X96359420Y-73240000D02*
X96640580Y-73240000D01*
X96359420Y-74260000D02*
X96640580Y-74260000D01*
%TO.C,C4*%
X127460000Y-108510000D02*
X127460000Y-105490000D01*
X127460000Y-105490000D02*
X123250000Y-105490000D01*
X123250000Y-108510000D02*
X127460000Y-108510000D01*
%TO.C,R7*%
X99240000Y-69140580D02*
X99240000Y-68859420D01*
X100260000Y-69140580D02*
X100260000Y-68859420D01*
%TO.C,C1*%
X116140580Y-81510000D02*
X115859420Y-81510000D01*
X116140580Y-80490000D02*
X115859420Y-80490000D01*
%TO.C,C9*%
X96359420Y-71740000D02*
X96640580Y-71740000D01*
X96359420Y-72760000D02*
X96640580Y-72760000D01*
%TO.C,R5*%
X106237258Y-81522500D02*
X105762742Y-81522500D01*
X106237258Y-80477500D02*
X105762742Y-80477500D01*
%TO.C,U1*%
X102250000Y-62500000D02*
X102250000Y-69500000D01*
X102250000Y-62500000D02*
X103750000Y-62500000D01*
X102250000Y-77500000D02*
X102250000Y-74500000D01*
X102250000Y-77500000D02*
X103750000Y-77500000D01*
X107750000Y-77500000D02*
X110750000Y-77500000D01*
X116750000Y-62500000D02*
X117750000Y-62500000D01*
X117750000Y-62500000D02*
X116750000Y-62500000D01*
X117750000Y-62500000D02*
X117750000Y-65500000D01*
X117750000Y-74500000D02*
X117750000Y-77500000D01*
X117750000Y-77500000D02*
X116750000Y-77500000D01*
X117750000Y-77500000D02*
X117750000Y-74500000D01*
%TO.C,C3*%
X112510000Y-80109420D02*
X112510000Y-80390580D01*
X111490000Y-80109420D02*
X111490000Y-80390580D01*
%TO.C,C8*%
X93359420Y-71740000D02*
X93640580Y-71740000D01*
X93359420Y-72760000D02*
X93640580Y-72760000D01*
%TO.C,C5*%
X127460000Y-103510000D02*
X127460000Y-100490000D01*
X127460000Y-100490000D02*
X123250000Y-100490000D01*
X123250000Y-103510000D02*
X127460000Y-103510000D01*
%TD*%
M02*
