M48
; DRILL file {KiCad 7.0.6} date Sat Nov 18 03:16:52 2023
; FORMAT={-:-/ absolute / metric / decimal}
; #@! TF.CreationDate,2023-11-18T03:16:52+01:00
; #@! TF.GenerationSoftware,Kicad,Pcbnew,7.0.6
; #@! TF.FileFunction,Plated,1,2,PTH
FMAT,2
METRIC
; #@! TA.AperFunction,Plated,PTH,ViaDrill
T1C0.400
; #@! TA.AperFunction,Plated,PTH,ComponentDrill
T2C1.000
; #@! TA.AperFunction,Plated,PTH,ComponentDrill
T3C1.020
; #@! TA.AperFunction,Plated,PTH,ComponentDrill
T4C1.067
; #@! TA.AperFunction,Plated,PTH,ComponentDrill
T5C3.300
%
G90
G05
T1
X93.0Y-67.8
X94.25Y-73.25
X97.5Y-71.25
X104.75Y-76.0
X105.75Y-64.0
X105.75Y-76.0
X106.75Y-82.25
X110.5Y-82.0
X112.0Y-82.0
X114.0Y-55.0
X114.0Y-56.0
X114.0Y-57.0
X114.75Y-76.0
X115.0Y-55.0
X115.0Y-56.0
X115.0Y-57.0
X116.0Y-55.0
X116.0Y-56.0
X116.0Y-57.0
X116.25Y-70.5
X122.212Y-92.0
X122.212Y-107.0
X122.25Y-97.0
X122.25Y-102.0
X123.25Y-55.25
T2
X128.2Y-65.125
X128.2Y-67.665
T3
X102.505Y-117.1
X117.495Y-117.1
T4
X121.44Y-56.5
X121.44Y-58.532
X126.52Y-57.516
T5
X102.505Y-89.92
X117.495Y-89.92
T0
M30
