%TF.GenerationSoftware,KiCad,Pcbnew,7.0.6*%
%TF.CreationDate,2023-11-18T03:16:52+01:00*%
%TF.ProjectId,LoRa_Sensor,4c6f5261-5f53-4656-9e73-6f722e6b6963,rev?*%
%TF.SameCoordinates,Original*%
%TF.FileFunction,Drillmap*%
%TF.FilePolarity,Positive*%
%FSLAX45Y45*%
G04 Gerber Fmt 4.5, Leading zero omitted, Abs format (unit mm)*
G04 Created by KiCad (PCBNEW 7.0.6) date 2023-11-18 03:16:52*
%MOMM*%
%LPD*%
G01*
G04 APERTURE LIST*
%ADD10C,0.100000*%
%ADD11C,0.200000*%
%ADD12C,0.320000*%
G04 APERTURE END LIST*
D10*
X9200000Y-7800000D02*
G75*
G03*
X9000000Y-8000000I0J-200000D01*
G01*
X9000000Y-7300000D02*
G75*
G03*
X9200000Y-7500000I200000J0D01*
G01*
X10025000Y-6525000D02*
G75*
G03*
X10025000Y-6225000I0J150000D01*
G01*
X9400000Y-4200000D02*
G75*
G03*
X9000000Y-4600000I0J-400000D01*
G01*
X9000000Y-6025000D02*
G75*
G03*
X9200000Y-6225000I200000J0D01*
G01*
X9000000Y-6025000D02*
X9000000Y-4600000D01*
X9000000Y-6725000D02*
X9000000Y-7300000D01*
X13000000Y-4600000D02*
X13000000Y-12400000D01*
X9000000Y-12400000D02*
G75*
G03*
X9400000Y-12800000I400000J0D01*
G01*
X9200000Y-6525000D02*
X10025000Y-6525000D01*
X9400000Y-4200000D02*
X12600000Y-4200000D01*
X12600000Y-12800000D02*
G75*
G03*
X13000000Y-12400000I0J400000D01*
G01*
X12600000Y-12800000D02*
X9400000Y-12800000D01*
X10025000Y-6225000D02*
X9200000Y-6225000D01*
X10025000Y-7800000D02*
G75*
G03*
X10025000Y-7500000I0J150000D01*
G01*
X9000000Y-12400000D02*
X9000000Y-8000000D01*
X10025000Y-7800000D02*
X9200000Y-7800000D01*
X9200000Y-7500000D02*
X10025000Y-7500000D01*
X9200000Y-6525000D02*
G75*
G03*
X9000000Y-6725000I0J-200000D01*
G01*
X13000000Y-4600000D02*
G75*
G03*
X12600000Y-4200000I-400000J0D01*
G01*
D11*
D12*
X9240000Y-4440000D02*
X9560000Y-4760000D01*
X9560000Y-4440000D02*
X9240000Y-4760000D01*
X9240000Y-12240000D02*
X9560000Y-12560000D01*
X9560000Y-12240000D02*
X9240000Y-12560000D01*
X12440000Y-4440000D02*
X12760000Y-4760000D01*
X12760000Y-4440000D02*
X12440000Y-4760000D01*
X12440000Y-12240000D02*
X12760000Y-12560000D01*
X12760000Y-12240000D02*
X12440000Y-12560000D01*
D11*
X9255777Y-13116484D02*
X9255777Y-12916484D01*
X9255777Y-12916484D02*
X9303396Y-12916484D01*
X9303396Y-12916484D02*
X9331967Y-12926008D01*
X9331967Y-12926008D02*
X9351015Y-12945055D01*
X9351015Y-12945055D02*
X9360539Y-12964103D01*
X9360539Y-12964103D02*
X9370063Y-13002198D01*
X9370063Y-13002198D02*
X9370063Y-13030769D01*
X9370063Y-13030769D02*
X9360539Y-13068865D01*
X9360539Y-13068865D02*
X9351015Y-13087912D01*
X9351015Y-13087912D02*
X9331967Y-13106960D01*
X9331967Y-13106960D02*
X9303396Y-13116484D01*
X9303396Y-13116484D02*
X9255777Y-13116484D01*
X9455777Y-13116484D02*
X9455777Y-12983150D01*
X9455777Y-13021246D02*
X9465301Y-13002198D01*
X9465301Y-13002198D02*
X9474824Y-12992674D01*
X9474824Y-12992674D02*
X9493872Y-12983150D01*
X9493872Y-12983150D02*
X9512920Y-12983150D01*
X9579586Y-13116484D02*
X9579586Y-12983150D01*
X9579586Y-12916484D02*
X9570063Y-12926008D01*
X9570063Y-12926008D02*
X9579586Y-12935531D01*
X9579586Y-12935531D02*
X9589110Y-12926008D01*
X9589110Y-12926008D02*
X9579586Y-12916484D01*
X9579586Y-12916484D02*
X9579586Y-12935531D01*
X9703396Y-13116484D02*
X9684348Y-13106960D01*
X9684348Y-13106960D02*
X9674824Y-13087912D01*
X9674824Y-13087912D02*
X9674824Y-12916484D01*
X9808158Y-13116484D02*
X9789110Y-13106960D01*
X9789110Y-13106960D02*
X9779586Y-13087912D01*
X9779586Y-13087912D02*
X9779586Y-12916484D01*
X10036729Y-13116484D02*
X10036729Y-12916484D01*
X10036729Y-12916484D02*
X10103396Y-13059341D01*
X10103396Y-13059341D02*
X10170063Y-12916484D01*
X10170063Y-12916484D02*
X10170063Y-13116484D01*
X10351015Y-13116484D02*
X10351015Y-13011722D01*
X10351015Y-13011722D02*
X10341491Y-12992674D01*
X10341491Y-12992674D02*
X10322444Y-12983150D01*
X10322444Y-12983150D02*
X10284348Y-12983150D01*
X10284348Y-12983150D02*
X10265301Y-12992674D01*
X10351015Y-13106960D02*
X10331967Y-13116484D01*
X10331967Y-13116484D02*
X10284348Y-13116484D01*
X10284348Y-13116484D02*
X10265301Y-13106960D01*
X10265301Y-13106960D02*
X10255777Y-13087912D01*
X10255777Y-13087912D02*
X10255777Y-13068865D01*
X10255777Y-13068865D02*
X10265301Y-13049817D01*
X10265301Y-13049817D02*
X10284348Y-13040293D01*
X10284348Y-13040293D02*
X10331967Y-13040293D01*
X10331967Y-13040293D02*
X10351015Y-13030769D01*
X10446253Y-12983150D02*
X10446253Y-13183150D01*
X10446253Y-12992674D02*
X10465301Y-12983150D01*
X10465301Y-12983150D02*
X10503396Y-12983150D01*
X10503396Y-12983150D02*
X10522444Y-12992674D01*
X10522444Y-12992674D02*
X10531967Y-13002198D01*
X10531967Y-13002198D02*
X10541491Y-13021246D01*
X10541491Y-13021246D02*
X10541491Y-13078388D01*
X10541491Y-13078388D02*
X10531967Y-13097436D01*
X10531967Y-13097436D02*
X10522444Y-13106960D01*
X10522444Y-13106960D02*
X10503396Y-13116484D01*
X10503396Y-13116484D02*
X10465301Y-13116484D01*
X10465301Y-13116484D02*
X10446253Y-13106960D01*
X10627205Y-13097436D02*
X10636729Y-13106960D01*
X10636729Y-13106960D02*
X10627205Y-13116484D01*
X10627205Y-13116484D02*
X10617682Y-13106960D01*
X10617682Y-13106960D02*
X10627205Y-13097436D01*
X10627205Y-13097436D02*
X10627205Y-13116484D01*
X10627205Y-12992674D02*
X10636729Y-13002198D01*
X10636729Y-13002198D02*
X10627205Y-13011722D01*
X10627205Y-13011722D02*
X10617682Y-13002198D01*
X10617682Y-13002198D02*
X10627205Y-12992674D01*
X10627205Y-12992674D02*
X10627205Y-13011722D01*
X8795000Y-13345000D02*
X8995000Y-13545000D01*
X8995000Y-13345000D02*
X8795000Y-13545000D01*
X9236729Y-13336484D02*
X9360539Y-13336484D01*
X9360539Y-13336484D02*
X9293872Y-13412674D01*
X9293872Y-13412674D02*
X9322444Y-13412674D01*
X9322444Y-13412674D02*
X9341491Y-13422198D01*
X9341491Y-13422198D02*
X9351015Y-13431722D01*
X9351015Y-13431722D02*
X9360539Y-13450769D01*
X9360539Y-13450769D02*
X9360539Y-13498388D01*
X9360539Y-13498388D02*
X9351015Y-13517436D01*
X9351015Y-13517436D02*
X9341491Y-13526960D01*
X9341491Y-13526960D02*
X9322444Y-13536484D01*
X9322444Y-13536484D02*
X9265301Y-13536484D01*
X9265301Y-13536484D02*
X9246253Y-13526960D01*
X9246253Y-13526960D02*
X9236729Y-13517436D01*
X9446253Y-13517436D02*
X9455777Y-13526960D01*
X9455777Y-13526960D02*
X9446253Y-13536484D01*
X9446253Y-13536484D02*
X9436729Y-13526960D01*
X9436729Y-13526960D02*
X9446253Y-13517436D01*
X9446253Y-13517436D02*
X9446253Y-13536484D01*
X9531967Y-13355531D02*
X9541491Y-13346008D01*
X9541491Y-13346008D02*
X9560539Y-13336484D01*
X9560539Y-13336484D02*
X9608158Y-13336484D01*
X9608158Y-13336484D02*
X9627205Y-13346008D01*
X9627205Y-13346008D02*
X9636729Y-13355531D01*
X9636729Y-13355531D02*
X9646253Y-13374579D01*
X9646253Y-13374579D02*
X9646253Y-13393627D01*
X9646253Y-13393627D02*
X9636729Y-13422198D01*
X9636729Y-13422198D02*
X9522444Y-13536484D01*
X9522444Y-13536484D02*
X9646253Y-13536484D01*
X9770063Y-13336484D02*
X9789110Y-13336484D01*
X9789110Y-13336484D02*
X9808158Y-13346008D01*
X9808158Y-13346008D02*
X9817682Y-13355531D01*
X9817682Y-13355531D02*
X9827205Y-13374579D01*
X9827205Y-13374579D02*
X9836729Y-13412674D01*
X9836729Y-13412674D02*
X9836729Y-13460293D01*
X9836729Y-13460293D02*
X9827205Y-13498388D01*
X9827205Y-13498388D02*
X9817682Y-13517436D01*
X9817682Y-13517436D02*
X9808158Y-13526960D01*
X9808158Y-13526960D02*
X9789110Y-13536484D01*
X9789110Y-13536484D02*
X9770063Y-13536484D01*
X9770063Y-13536484D02*
X9751015Y-13526960D01*
X9751015Y-13526960D02*
X9741491Y-13517436D01*
X9741491Y-13517436D02*
X9731967Y-13498388D01*
X9731967Y-13498388D02*
X9722444Y-13460293D01*
X9722444Y-13460293D02*
X9722444Y-13412674D01*
X9722444Y-13412674D02*
X9731967Y-13374579D01*
X9731967Y-13374579D02*
X9741491Y-13355531D01*
X9741491Y-13355531D02*
X9751015Y-13346008D01*
X9751015Y-13346008D02*
X9770063Y-13336484D01*
X9960539Y-13336484D02*
X9979586Y-13336484D01*
X9979586Y-13336484D02*
X9998634Y-13346008D01*
X9998634Y-13346008D02*
X10008158Y-13355531D01*
X10008158Y-13355531D02*
X10017682Y-13374579D01*
X10017682Y-13374579D02*
X10027205Y-13412674D01*
X10027205Y-13412674D02*
X10027205Y-13460293D01*
X10027205Y-13460293D02*
X10017682Y-13498388D01*
X10017682Y-13498388D02*
X10008158Y-13517436D01*
X10008158Y-13517436D02*
X9998634Y-13526960D01*
X9998634Y-13526960D02*
X9979586Y-13536484D01*
X9979586Y-13536484D02*
X9960539Y-13536484D01*
X9960539Y-13536484D02*
X9941491Y-13526960D01*
X9941491Y-13526960D02*
X9931967Y-13517436D01*
X9931967Y-13517436D02*
X9922444Y-13498388D01*
X9922444Y-13498388D02*
X9912920Y-13460293D01*
X9912920Y-13460293D02*
X9912920Y-13412674D01*
X9912920Y-13412674D02*
X9922444Y-13374579D01*
X9922444Y-13374579D02*
X9931967Y-13355531D01*
X9931967Y-13355531D02*
X9941491Y-13346008D01*
X9941491Y-13346008D02*
X9960539Y-13336484D01*
X10112920Y-13536484D02*
X10112920Y-13403150D01*
X10112920Y-13422198D02*
X10122444Y-13412674D01*
X10122444Y-13412674D02*
X10141491Y-13403150D01*
X10141491Y-13403150D02*
X10170063Y-13403150D01*
X10170063Y-13403150D02*
X10189110Y-13412674D01*
X10189110Y-13412674D02*
X10198634Y-13431722D01*
X10198634Y-13431722D02*
X10198634Y-13536484D01*
X10198634Y-13431722D02*
X10208158Y-13412674D01*
X10208158Y-13412674D02*
X10227205Y-13403150D01*
X10227205Y-13403150D02*
X10255777Y-13403150D01*
X10255777Y-13403150D02*
X10274825Y-13412674D01*
X10274825Y-13412674D02*
X10284348Y-13431722D01*
X10284348Y-13431722D02*
X10284348Y-13536484D01*
X10379586Y-13536484D02*
X10379586Y-13403150D01*
X10379586Y-13422198D02*
X10389110Y-13412674D01*
X10389110Y-13412674D02*
X10408158Y-13403150D01*
X10408158Y-13403150D02*
X10436729Y-13403150D01*
X10436729Y-13403150D02*
X10455777Y-13412674D01*
X10455777Y-13412674D02*
X10465301Y-13431722D01*
X10465301Y-13431722D02*
X10465301Y-13536484D01*
X10465301Y-13431722D02*
X10474825Y-13412674D01*
X10474825Y-13412674D02*
X10493872Y-13403150D01*
X10493872Y-13403150D02*
X10522444Y-13403150D01*
X10522444Y-13403150D02*
X10541491Y-13412674D01*
X10541491Y-13412674D02*
X10551015Y-13431722D01*
X10551015Y-13431722D02*
X10551015Y-13536484D01*
X10941491Y-13326960D02*
X10770063Y-13584103D01*
X11198634Y-13336484D02*
X11217682Y-13336484D01*
X11217682Y-13336484D02*
X11236729Y-13346008D01*
X11236729Y-13346008D02*
X11246253Y-13355531D01*
X11246253Y-13355531D02*
X11255777Y-13374579D01*
X11255777Y-13374579D02*
X11265301Y-13412674D01*
X11265301Y-13412674D02*
X11265301Y-13460293D01*
X11265301Y-13460293D02*
X11255777Y-13498388D01*
X11255777Y-13498388D02*
X11246253Y-13517436D01*
X11246253Y-13517436D02*
X11236729Y-13526960D01*
X11236729Y-13526960D02*
X11217682Y-13536484D01*
X11217682Y-13536484D02*
X11198634Y-13536484D01*
X11198634Y-13536484D02*
X11179587Y-13526960D01*
X11179587Y-13526960D02*
X11170063Y-13517436D01*
X11170063Y-13517436D02*
X11160539Y-13498388D01*
X11160539Y-13498388D02*
X11151015Y-13460293D01*
X11151015Y-13460293D02*
X11151015Y-13412674D01*
X11151015Y-13412674D02*
X11160539Y-13374579D01*
X11160539Y-13374579D02*
X11170063Y-13355531D01*
X11170063Y-13355531D02*
X11179587Y-13346008D01*
X11179587Y-13346008D02*
X11198634Y-13336484D01*
X11351015Y-13517436D02*
X11360539Y-13526960D01*
X11360539Y-13526960D02*
X11351015Y-13536484D01*
X11351015Y-13536484D02*
X11341491Y-13526960D01*
X11341491Y-13526960D02*
X11351015Y-13517436D01*
X11351015Y-13517436D02*
X11351015Y-13536484D01*
X11551015Y-13536484D02*
X11436729Y-13536484D01*
X11493872Y-13536484D02*
X11493872Y-13336484D01*
X11493872Y-13336484D02*
X11474825Y-13365055D01*
X11474825Y-13365055D02*
X11455777Y-13384103D01*
X11455777Y-13384103D02*
X11436729Y-13393627D01*
X11627206Y-13355531D02*
X11636729Y-13346008D01*
X11636729Y-13346008D02*
X11655777Y-13336484D01*
X11655777Y-13336484D02*
X11703396Y-13336484D01*
X11703396Y-13336484D02*
X11722444Y-13346008D01*
X11722444Y-13346008D02*
X11731967Y-13355531D01*
X11731967Y-13355531D02*
X11741491Y-13374579D01*
X11741491Y-13374579D02*
X11741491Y-13393627D01*
X11741491Y-13393627D02*
X11731967Y-13422198D01*
X11731967Y-13422198D02*
X11617682Y-13536484D01*
X11617682Y-13536484D02*
X11741491Y-13536484D01*
X11912920Y-13336484D02*
X11874825Y-13336484D01*
X11874825Y-13336484D02*
X11855777Y-13346008D01*
X11855777Y-13346008D02*
X11846253Y-13355531D01*
X11846253Y-13355531D02*
X11827206Y-13384103D01*
X11827206Y-13384103D02*
X11817682Y-13422198D01*
X11817682Y-13422198D02*
X11817682Y-13498388D01*
X11817682Y-13498388D02*
X11827206Y-13517436D01*
X11827206Y-13517436D02*
X11836729Y-13526960D01*
X11836729Y-13526960D02*
X11855777Y-13536484D01*
X11855777Y-13536484D02*
X11893872Y-13536484D01*
X11893872Y-13536484D02*
X11912920Y-13526960D01*
X11912920Y-13526960D02*
X11922444Y-13517436D01*
X11922444Y-13517436D02*
X11931967Y-13498388D01*
X11931967Y-13498388D02*
X11931967Y-13450769D01*
X11931967Y-13450769D02*
X11922444Y-13431722D01*
X11922444Y-13431722D02*
X11912920Y-13422198D01*
X11912920Y-13422198D02*
X11893872Y-13412674D01*
X11893872Y-13412674D02*
X11855777Y-13412674D01*
X11855777Y-13412674D02*
X11836729Y-13422198D01*
X11836729Y-13422198D02*
X11827206Y-13431722D01*
X11827206Y-13431722D02*
X11817682Y-13450769D01*
X12055777Y-13336484D02*
X12074825Y-13336484D01*
X12074825Y-13336484D02*
X12093872Y-13346008D01*
X12093872Y-13346008D02*
X12103396Y-13355531D01*
X12103396Y-13355531D02*
X12112920Y-13374579D01*
X12112920Y-13374579D02*
X12122444Y-13412674D01*
X12122444Y-13412674D02*
X12122444Y-13460293D01*
X12122444Y-13460293D02*
X12112920Y-13498388D01*
X12112920Y-13498388D02*
X12103396Y-13517436D01*
X12103396Y-13517436D02*
X12093872Y-13526960D01*
X12093872Y-13526960D02*
X12074825Y-13536484D01*
X12074825Y-13536484D02*
X12055777Y-13536484D01*
X12055777Y-13536484D02*
X12036729Y-13526960D01*
X12036729Y-13526960D02*
X12027206Y-13517436D01*
X12027206Y-13517436D02*
X12017682Y-13498388D01*
X12017682Y-13498388D02*
X12008158Y-13460293D01*
X12008158Y-13460293D02*
X12008158Y-13412674D01*
X12008158Y-13412674D02*
X12017682Y-13374579D01*
X12017682Y-13374579D02*
X12027206Y-13355531D01*
X12027206Y-13355531D02*
X12036729Y-13346008D01*
X12036729Y-13346008D02*
X12055777Y-13336484D01*
X12198634Y-13336484D02*
X12198634Y-13374579D01*
X12274825Y-13336484D02*
X12274825Y-13374579D01*
X12570063Y-13612674D02*
X12560539Y-13603150D01*
X12560539Y-13603150D02*
X12541491Y-13574579D01*
X12541491Y-13574579D02*
X12531968Y-13555531D01*
X12531968Y-13555531D02*
X12522444Y-13526960D01*
X12522444Y-13526960D02*
X12512920Y-13479341D01*
X12512920Y-13479341D02*
X12512920Y-13441246D01*
X12512920Y-13441246D02*
X12522444Y-13393627D01*
X12522444Y-13393627D02*
X12531968Y-13365055D01*
X12531968Y-13365055D02*
X12541491Y-13346008D01*
X12541491Y-13346008D02*
X12560539Y-13317436D01*
X12560539Y-13317436D02*
X12570063Y-13307912D01*
X12731968Y-13403150D02*
X12731968Y-13536484D01*
X12684348Y-13326960D02*
X12636729Y-13469817D01*
X12636729Y-13469817D02*
X12760539Y-13469817D01*
X12989110Y-13536484D02*
X12989110Y-13336484D01*
X13074825Y-13536484D02*
X13074825Y-13431722D01*
X13074825Y-13431722D02*
X13065301Y-13412674D01*
X13065301Y-13412674D02*
X13046253Y-13403150D01*
X13046253Y-13403150D02*
X13017682Y-13403150D01*
X13017682Y-13403150D02*
X12998634Y-13412674D01*
X12998634Y-13412674D02*
X12989110Y-13422198D01*
X13198634Y-13536484D02*
X13179587Y-13526960D01*
X13179587Y-13526960D02*
X13170063Y-13517436D01*
X13170063Y-13517436D02*
X13160539Y-13498388D01*
X13160539Y-13498388D02*
X13160539Y-13441246D01*
X13160539Y-13441246D02*
X13170063Y-13422198D01*
X13170063Y-13422198D02*
X13179587Y-13412674D01*
X13179587Y-13412674D02*
X13198634Y-13403150D01*
X13198634Y-13403150D02*
X13227206Y-13403150D01*
X13227206Y-13403150D02*
X13246253Y-13412674D01*
X13246253Y-13412674D02*
X13255777Y-13422198D01*
X13255777Y-13422198D02*
X13265301Y-13441246D01*
X13265301Y-13441246D02*
X13265301Y-13498388D01*
X13265301Y-13498388D02*
X13255777Y-13517436D01*
X13255777Y-13517436D02*
X13246253Y-13526960D01*
X13246253Y-13526960D02*
X13227206Y-13536484D01*
X13227206Y-13536484D02*
X13198634Y-13536484D01*
X13379587Y-13536484D02*
X13360539Y-13526960D01*
X13360539Y-13526960D02*
X13351015Y-13507912D01*
X13351015Y-13507912D02*
X13351015Y-13336484D01*
X13531968Y-13526960D02*
X13512920Y-13536484D01*
X13512920Y-13536484D02*
X13474825Y-13536484D01*
X13474825Y-13536484D02*
X13455777Y-13526960D01*
X13455777Y-13526960D02*
X13446253Y-13507912D01*
X13446253Y-13507912D02*
X13446253Y-13431722D01*
X13446253Y-13431722D02*
X13455777Y-13412674D01*
X13455777Y-13412674D02*
X13474825Y-13403150D01*
X13474825Y-13403150D02*
X13512920Y-13403150D01*
X13512920Y-13403150D02*
X13531968Y-13412674D01*
X13531968Y-13412674D02*
X13541491Y-13431722D01*
X13541491Y-13431722D02*
X13541491Y-13450769D01*
X13541491Y-13450769D02*
X13446253Y-13469817D01*
X13617682Y-13526960D02*
X13636730Y-13536484D01*
X13636730Y-13536484D02*
X13674825Y-13536484D01*
X13674825Y-13536484D02*
X13693872Y-13526960D01*
X13693872Y-13526960D02*
X13703396Y-13507912D01*
X13703396Y-13507912D02*
X13703396Y-13498388D01*
X13703396Y-13498388D02*
X13693872Y-13479341D01*
X13693872Y-13479341D02*
X13674825Y-13469817D01*
X13674825Y-13469817D02*
X13646253Y-13469817D01*
X13646253Y-13469817D02*
X13627206Y-13460293D01*
X13627206Y-13460293D02*
X13617682Y-13441246D01*
X13617682Y-13441246D02*
X13617682Y-13431722D01*
X13617682Y-13431722D02*
X13627206Y-13412674D01*
X13627206Y-13412674D02*
X13646253Y-13403150D01*
X13646253Y-13403150D02*
X13674825Y-13403150D01*
X13674825Y-13403150D02*
X13693872Y-13412674D01*
X13770063Y-13612674D02*
X13779587Y-13603150D01*
X13779587Y-13603150D02*
X13798634Y-13574579D01*
X13798634Y-13574579D02*
X13808158Y-13555531D01*
X13808158Y-13555531D02*
X13817682Y-13526960D01*
X13817682Y-13526960D02*
X13827206Y-13479341D01*
X13827206Y-13479341D02*
X13827206Y-13441246D01*
X13827206Y-13441246D02*
X13817682Y-13393627D01*
X13817682Y-13393627D02*
X13808158Y-13365055D01*
X13808158Y-13365055D02*
X13798634Y-13346008D01*
X13798634Y-13346008D02*
X13779587Y-13317436D01*
X13779587Y-13317436D02*
X13770063Y-13307912D01*
X14131968Y-13612674D02*
X14122444Y-13603150D01*
X14122444Y-13603150D02*
X14103396Y-13574579D01*
X14103396Y-13574579D02*
X14093872Y-13555531D01*
X14093872Y-13555531D02*
X14084349Y-13526960D01*
X14084349Y-13526960D02*
X14074825Y-13479341D01*
X14074825Y-13479341D02*
X14074825Y-13441246D01*
X14074825Y-13441246D02*
X14084349Y-13393627D01*
X14084349Y-13393627D02*
X14093872Y-13365055D01*
X14093872Y-13365055D02*
X14103396Y-13346008D01*
X14103396Y-13346008D02*
X14122444Y-13317436D01*
X14122444Y-13317436D02*
X14131968Y-13307912D01*
X14208158Y-13403150D02*
X14208158Y-13536484D01*
X14208158Y-13422198D02*
X14217682Y-13412674D01*
X14217682Y-13412674D02*
X14236730Y-13403150D01*
X14236730Y-13403150D02*
X14265301Y-13403150D01*
X14265301Y-13403150D02*
X14284349Y-13412674D01*
X14284349Y-13412674D02*
X14293872Y-13431722D01*
X14293872Y-13431722D02*
X14293872Y-13536484D01*
X14417682Y-13536484D02*
X14398634Y-13526960D01*
X14398634Y-13526960D02*
X14389111Y-13517436D01*
X14389111Y-13517436D02*
X14379587Y-13498388D01*
X14379587Y-13498388D02*
X14379587Y-13441246D01*
X14379587Y-13441246D02*
X14389111Y-13422198D01*
X14389111Y-13422198D02*
X14398634Y-13412674D01*
X14398634Y-13412674D02*
X14417682Y-13403150D01*
X14417682Y-13403150D02*
X14446253Y-13403150D01*
X14446253Y-13403150D02*
X14465301Y-13412674D01*
X14465301Y-13412674D02*
X14474825Y-13422198D01*
X14474825Y-13422198D02*
X14484349Y-13441246D01*
X14484349Y-13441246D02*
X14484349Y-13498388D01*
X14484349Y-13498388D02*
X14474825Y-13517436D01*
X14474825Y-13517436D02*
X14465301Y-13526960D01*
X14465301Y-13526960D02*
X14446253Y-13536484D01*
X14446253Y-13536484D02*
X14417682Y-13536484D01*
X14541492Y-13403150D02*
X14617682Y-13403150D01*
X14570063Y-13336484D02*
X14570063Y-13507912D01*
X14570063Y-13507912D02*
X14579587Y-13526960D01*
X14579587Y-13526960D02*
X14598634Y-13536484D01*
X14598634Y-13536484D02*
X14617682Y-13536484D01*
X14836730Y-13403150D02*
X14836730Y-13603150D01*
X14836730Y-13412674D02*
X14855777Y-13403150D01*
X14855777Y-13403150D02*
X14893873Y-13403150D01*
X14893873Y-13403150D02*
X14912920Y-13412674D01*
X14912920Y-13412674D02*
X14922444Y-13422198D01*
X14922444Y-13422198D02*
X14931968Y-13441246D01*
X14931968Y-13441246D02*
X14931968Y-13498388D01*
X14931968Y-13498388D02*
X14922444Y-13517436D01*
X14922444Y-13517436D02*
X14912920Y-13526960D01*
X14912920Y-13526960D02*
X14893873Y-13536484D01*
X14893873Y-13536484D02*
X14855777Y-13536484D01*
X14855777Y-13536484D02*
X14836730Y-13526960D01*
X15046253Y-13536484D02*
X15027206Y-13526960D01*
X15027206Y-13526960D02*
X15017682Y-13507912D01*
X15017682Y-13507912D02*
X15017682Y-13336484D01*
X15208158Y-13536484D02*
X15208158Y-13431722D01*
X15208158Y-13431722D02*
X15198634Y-13412674D01*
X15198634Y-13412674D02*
X15179587Y-13403150D01*
X15179587Y-13403150D02*
X15141492Y-13403150D01*
X15141492Y-13403150D02*
X15122444Y-13412674D01*
X15208158Y-13526960D02*
X15189111Y-13536484D01*
X15189111Y-13536484D02*
X15141492Y-13536484D01*
X15141492Y-13536484D02*
X15122444Y-13526960D01*
X15122444Y-13526960D02*
X15112920Y-13507912D01*
X15112920Y-13507912D02*
X15112920Y-13488865D01*
X15112920Y-13488865D02*
X15122444Y-13469817D01*
X15122444Y-13469817D02*
X15141492Y-13460293D01*
X15141492Y-13460293D02*
X15189111Y-13460293D01*
X15189111Y-13460293D02*
X15208158Y-13450769D01*
X15274825Y-13403150D02*
X15351015Y-13403150D01*
X15303396Y-13336484D02*
X15303396Y-13507912D01*
X15303396Y-13507912D02*
X15312920Y-13526960D01*
X15312920Y-13526960D02*
X15331968Y-13536484D01*
X15331968Y-13536484D02*
X15351015Y-13536484D01*
X15493873Y-13526960D02*
X15474825Y-13536484D01*
X15474825Y-13536484D02*
X15436730Y-13536484D01*
X15436730Y-13536484D02*
X15417682Y-13526960D01*
X15417682Y-13526960D02*
X15408158Y-13507912D01*
X15408158Y-13507912D02*
X15408158Y-13431722D01*
X15408158Y-13431722D02*
X15417682Y-13412674D01*
X15417682Y-13412674D02*
X15436730Y-13403150D01*
X15436730Y-13403150D02*
X15474825Y-13403150D01*
X15474825Y-13403150D02*
X15493873Y-13412674D01*
X15493873Y-13412674D02*
X15503396Y-13431722D01*
X15503396Y-13431722D02*
X15503396Y-13450769D01*
X15503396Y-13450769D02*
X15408158Y-13469817D01*
X15674825Y-13536484D02*
X15674825Y-13336484D01*
X15674825Y-13526960D02*
X15655777Y-13536484D01*
X15655777Y-13536484D02*
X15617682Y-13536484D01*
X15617682Y-13536484D02*
X15598634Y-13526960D01*
X15598634Y-13526960D02*
X15589111Y-13517436D01*
X15589111Y-13517436D02*
X15579587Y-13498388D01*
X15579587Y-13498388D02*
X15579587Y-13441246D01*
X15579587Y-13441246D02*
X15589111Y-13422198D01*
X15589111Y-13422198D02*
X15598634Y-13412674D01*
X15598634Y-13412674D02*
X15617682Y-13403150D01*
X15617682Y-13403150D02*
X15655777Y-13403150D01*
X15655777Y-13403150D02*
X15674825Y-13412674D01*
X15751015Y-13612674D02*
X15760539Y-13603150D01*
X15760539Y-13603150D02*
X15779587Y-13574579D01*
X15779587Y-13574579D02*
X15789111Y-13555531D01*
X15789111Y-13555531D02*
X15798634Y-13526960D01*
X15798634Y-13526960D02*
X15808158Y-13479341D01*
X15808158Y-13479341D02*
X15808158Y-13441246D01*
X15808158Y-13441246D02*
X15798634Y-13393627D01*
X15798634Y-13393627D02*
X15789111Y-13365055D01*
X15789111Y-13365055D02*
X15779587Y-13346008D01*
X15779587Y-13346008D02*
X15760539Y-13317436D01*
X15760539Y-13317436D02*
X15751015Y-13307912D01*
M02*
