%TF.GenerationSoftware,KiCad,Pcbnew,7.0.6*%
%TF.CreationDate,2023-11-18T03:16:50+01:00*%
%TF.ProjectId,LoRa_Sensor,4c6f5261-5f53-4656-9e73-6f722e6b6963,rev?*%
%TF.SameCoordinates,Original*%
%TF.FileFunction,Legend,Bot*%
%TF.FilePolarity,Positive*%
%FSLAX46Y46*%
G04 Gerber Fmt 4.6, Leading zero omitted, Abs format (unit mm)*
G04 Created by KiCad (PCBNEW 7.0.6) date 2023-11-18 03:16:50*
%MOMM*%
%LPD*%
G01*
G04 APERTURE LIST*
%ADD10C,0.254000*%
%ADD11C,0.200000*%
G04 APERTURE END LIST*
D10*
X109304318Y-92532380D02*
X110332413Y-92532380D01*
X110332413Y-92532380D02*
X110453365Y-92592857D01*
X110453365Y-92592857D02*
X110513842Y-92653333D01*
X110513842Y-92653333D02*
X110574318Y-92774285D01*
X110574318Y-92774285D02*
X110574318Y-93016190D01*
X110574318Y-93016190D02*
X110513842Y-93137142D01*
X110513842Y-93137142D02*
X110453365Y-93197619D01*
X110453365Y-93197619D02*
X110332413Y-93258095D01*
X110332413Y-93258095D02*
X109304318Y-93258095D01*
X109425270Y-93802380D02*
X109364794Y-93862856D01*
X109364794Y-93862856D02*
X109304318Y-93983809D01*
X109304318Y-93983809D02*
X109304318Y-94286190D01*
X109304318Y-94286190D02*
X109364794Y-94407142D01*
X109364794Y-94407142D02*
X109425270Y-94467618D01*
X109425270Y-94467618D02*
X109546222Y-94528095D01*
X109546222Y-94528095D02*
X109667175Y-94528095D01*
X109667175Y-94528095D02*
X109848603Y-94467618D01*
X109848603Y-94467618D02*
X110574318Y-93741904D01*
X110574318Y-93741904D02*
X110574318Y-94528095D01*
D11*
%TO.C,U2*%
X126460000Y-60600000D02*
X93540000Y-60600000D01*
X93540000Y-60600000D02*
X93540000Y-119400000D01*
X126460000Y-119400000D02*
X126460000Y-60600000D01*
X93540000Y-119400000D02*
X126460000Y-119400000D01*
%TD*%
M02*
