%TF.GenerationSoftware,KiCad,Pcbnew,7.0.6*%
%TF.CreationDate,2023-11-18T03:16:50+01:00*%
%TF.ProjectId,LoRa_Sensor,4c6f5261-5f53-4656-9e73-6f722e6b6963,rev?*%
%TF.SameCoordinates,Original*%
%TF.FileFunction,Copper,L1,Top*%
%TF.FilePolarity,Positive*%
%FSLAX46Y46*%
G04 Gerber Fmt 4.6, Leading zero omitted, Abs format (unit mm)*
G04 Created by KiCad (PCBNEW 7.0.6) date 2023-11-18 03:16:50*
%MOMM*%
%LPD*%
G01*
G04 APERTURE LIST*
G04 Aperture macros list*
%AMRoundRect*
0 Rectangle with rounded corners*
0 $1 Rounding radius*
0 $2 $3 $4 $5 $6 $7 $8 $9 X,Y pos of 4 corners*
0 Add a 4 corners polygon primitive as box body*
4,1,4,$2,$3,$4,$5,$6,$7,$8,$9,$2,$3,0*
0 Add four circle primitives for the rounded corners*
1,1,$1+$1,$2,$3*
1,1,$1+$1,$4,$5*
1,1,$1+$1,$6,$7*
1,1,$1+$1,$8,$9*
0 Add four rect primitives between the rounded corners*
20,1,$1+$1,$2,$3,$4,$5,0*
20,1,$1+$1,$4,$5,$6,$7,0*
20,1,$1+$1,$6,$7,$8,$9,0*
20,1,$1+$1,$8,$9,$2,$3,0*%
G04 Aperture macros list end*
%TA.AperFunction,SMDPad,CuDef*%
%ADD10RoundRect,0.250000X0.412500X0.925000X-0.412500X0.925000X-0.412500X-0.925000X0.412500X-0.925000X0*%
%TD*%
%TA.AperFunction,SMDPad,CuDef*%
%ADD11RoundRect,0.225000X-0.250000X0.225000X-0.250000X-0.225000X0.250000X-0.225000X0.250000X0.225000X0*%
%TD*%
%TA.AperFunction,SMDPad,CuDef*%
%ADD12RoundRect,0.218750X-0.218750X-0.256250X0.218750X-0.256250X0.218750X0.256250X-0.218750X0.256250X0*%
%TD*%
%TA.AperFunction,SMDPad,CuDef*%
%ADD13RoundRect,0.225000X0.250000X-0.225000X0.250000X0.225000X-0.250000X0.225000X-0.250000X-0.225000X0*%
%TD*%
%TA.AperFunction,SMDPad,CuDef*%
%ADD14RoundRect,0.225000X-0.225000X-0.250000X0.225000X-0.250000X0.225000X0.250000X-0.225000X0.250000X0*%
%TD*%
%TA.AperFunction,SMDPad,CuDef*%
%ADD15R,2.000000X2.500000*%
%TD*%
%TA.AperFunction,SMDPad,CuDef*%
%ADD16RoundRect,0.225000X0.225000X0.250000X-0.225000X0.250000X-0.225000X-0.250000X0.225000X-0.250000X0*%
%TD*%
%TA.AperFunction,SMDPad,CuDef*%
%ADD17C,0.863000*%
%TD*%
%TA.AperFunction,ComponentPad*%
%ADD18C,1.550000*%
%TD*%
%TA.AperFunction,ComponentPad*%
%ADD19R,1.700000X1.700000*%
%TD*%
%TA.AperFunction,ComponentPad*%
%ADD20O,1.700000X1.700000*%
%TD*%
%TA.AperFunction,SMDPad,CuDef*%
%ADD21RoundRect,0.200000X0.275000X-0.200000X0.275000X0.200000X-0.275000X0.200000X-0.275000X-0.200000X0*%
%TD*%
%TA.AperFunction,SMDPad,CuDef*%
%ADD22R,0.400000X0.400000*%
%TD*%
%TA.AperFunction,SMDPad,CuDef*%
%ADD23RoundRect,0.200000X0.200000X0.275000X-0.200000X0.275000X-0.200000X-0.275000X0.200000X-0.275000X0*%
%TD*%
%TA.AperFunction,SMDPad,CuDef*%
%ADD24R,0.700000X1.800000*%
%TD*%
%TA.AperFunction,SMDPad,CuDef*%
%ADD25R,1.800000X0.700000*%
%TD*%
%TA.AperFunction,ComponentPad*%
%ADD26C,1.600000*%
%TD*%
%TA.AperFunction,ComponentPad*%
%ADD27C,5.000000*%
%TD*%
%TA.AperFunction,ViaPad*%
%ADD28C,0.800000*%
%TD*%
%TA.AperFunction,Conductor*%
%ADD29C,1.000000*%
%TD*%
%TA.AperFunction,Conductor*%
%ADD30C,0.500000*%
%TD*%
%TA.AperFunction,Conductor*%
%ADD31C,0.250000*%
%TD*%
%TA.AperFunction,Conductor*%
%ADD32C,0.200000*%
%TD*%
G04 APERTURE END LIST*
D10*
%TO.P,C7,1*%
%TO.N,+BATT*%
X126537500Y-92000000D03*
%TO.P,C7,2*%
%TO.N,GND*%
X123462500Y-92000000D03*
%TD*%
%TO.P,C6,1*%
%TO.N,+BATT*%
X126537500Y-97000000D03*
%TO.P,C6,2*%
%TO.N,GND*%
X123462500Y-97000000D03*
%TD*%
D11*
%TO.P,R4,1*%
%TO.N,/BOOT*%
X110500000Y-79475000D03*
%TO.P,R4,2*%
%TO.N,GND*%
X110500000Y-81025000D03*
%TD*%
D12*
%TO.P,D1,1,K*%
%TO.N,Net-(D1-K)*%
X105212500Y-79500000D03*
%TO.P,D1,2,A*%
%TO.N,PA8*%
X106787500Y-79500000D03*
%TD*%
D13*
%TO.P,R8,1*%
%TO.N,+BATT*%
X91750000Y-69775000D03*
%TO.P,R8,2*%
%TO.N,/CSB*%
X91750000Y-68225000D03*
%TD*%
D14*
%TO.P,C10,1*%
%TO.N,RF*%
X104750000Y-60250000D03*
%TO.P,C10,2*%
%TO.N,GND*%
X106300000Y-60250000D03*
%TD*%
D15*
%TO.P,ANT1,1,RX/TX*%
%TO.N,Net-(ANT1-RX{slash}TX)*%
X104750000Y-52550000D03*
%TO.P,ANT1,2,GND*%
%TO.N,GND*%
X114950000Y-52550000D03*
%TD*%
D16*
%TO.P,C2,1*%
%TO.N,+BATT*%
X116775000Y-79500000D03*
%TO.P,C2,2*%
%TO.N,GND*%
X115225000Y-79500000D03*
%TD*%
D13*
%TO.P,R1,1*%
%TO.N,+BATT*%
X113500000Y-81025000D03*
%TO.P,R1,2*%
%TO.N,RST*%
X113500000Y-79475000D03*
%TD*%
D17*
%TO.P,J2,1,1*%
%TO.N,+BATT*%
X125250000Y-56881000D03*
%TO.P,J2,2,2*%
%TO.N,SWDIO*%
X125250000Y-58151000D03*
%TO.P,J2,3,3*%
%TO.N,RST*%
X123980000Y-56881000D03*
%TO.P,J2,4,4*%
%TO.N,SWCLK*%
X123980000Y-58151000D03*
%TO.P,J2,5,5*%
%TO.N,GND*%
X122710000Y-56881000D03*
%TO.P,J2,6,6*%
%TO.N,unconnected-(J2-Pad6)*%
X122710000Y-58151000D03*
D18*
%TO.P,J2,7,7*%
%TO.N,unconnected-(J2-Pad7)*%
X126520000Y-57516000D03*
%TO.P,J2,8,8*%
%TO.N,unconnected-(J2-Pad8)*%
X121440000Y-56500000D03*
%TO.P,J2,9,9*%
%TO.N,unconnected-(J2-Pad9)*%
X121440000Y-58532000D03*
%TD*%
D19*
%TO.P,J1,1,Pin_1*%
%TO.N,GND*%
X128200000Y-65125000D03*
D20*
%TO.P,J1,2,Pin_2*%
%TO.N,+BATT*%
X128200000Y-67665000D03*
%TD*%
D21*
%TO.P,R2,1*%
%TO.N,RF*%
X104750000Y-58825000D03*
%TO.P,R2,2*%
%TO.N,Net-(ANT1-RX{slash}TX)*%
X104750000Y-57175000D03*
%TD*%
D14*
%TO.P,C11,1*%
%TO.N,Net-(ANT1-RX{slash}TX)*%
X104750000Y-55750000D03*
%TO.P,C11,2*%
%TO.N,GND*%
X106300000Y-55750000D03*
%TD*%
D13*
%TO.P,R6,1*%
%TO.N,+BATT*%
X98250000Y-69775000D03*
%TO.P,R6,2*%
%TO.N,I2C_SDA*%
X98250000Y-68225000D03*
%TD*%
D22*
%TO.P,IC1,1,GND_1*%
%TO.N,GND*%
X93800000Y-67800000D03*
%TO.P,IC1,2,CSB*%
%TO.N,/CSB*%
X94600000Y-67800000D03*
%TO.P,IC1,3,SDI*%
%TO.N,I2C_SDA*%
X95400000Y-67800000D03*
%TO.P,IC1,4,SCK*%
%TO.N,I2C_SCL*%
X96200000Y-67800000D03*
%TO.P,IC1,5,SDO*%
%TO.N,/SDO*%
X96200000Y-70200000D03*
%TO.P,IC1,6,VDDIO*%
%TO.N,+BATT*%
X95400000Y-70200000D03*
%TO.P,IC1,7,GND_2*%
%TO.N,GND*%
X94600000Y-70200000D03*
%TO.P,IC1,8,VDD*%
%TO.N,+BATT*%
X93800000Y-70200000D03*
%TD*%
D14*
%TO.P,R3,1*%
%TO.N,+BATT*%
X95725000Y-73750000D03*
%TO.P,R3,2*%
%TO.N,/SDO*%
X97275000Y-73750000D03*
%TD*%
D10*
%TO.P,C4,1*%
%TO.N,+BATT*%
X126537500Y-107000000D03*
%TO.P,C4,2*%
%TO.N,GND*%
X123462500Y-107000000D03*
%TD*%
D13*
%TO.P,R7,1*%
%TO.N,+BATT*%
X99750000Y-69775000D03*
%TO.P,R7,2*%
%TO.N,I2C_SCL*%
X99750000Y-68225000D03*
%TD*%
D16*
%TO.P,C1,1*%
%TO.N,+BATT*%
X116775000Y-81000000D03*
%TO.P,C1,2*%
%TO.N,GND*%
X115225000Y-81000000D03*
%TD*%
D14*
%TO.P,C9,1*%
%TO.N,+BATT*%
X95725000Y-72250000D03*
%TO.P,C9,2*%
%TO.N,GND*%
X97275000Y-72250000D03*
%TD*%
D23*
%TO.P,R5,1*%
%TO.N,GND*%
X106825000Y-81000000D03*
%TO.P,R5,2*%
%TO.N,Net-(D1-K)*%
X105175000Y-81000000D03*
%TD*%
D24*
%TO.P,U1,1,UART2_RX*%
%TO.N,unconnected-(U1-UART2_RX-Pad1)*%
X115750000Y-62600000D03*
%TO.P,U1,2,UART2_TX*%
%TO.N,unconnected-(U1-UART2_TX-Pad2)*%
X114750000Y-62600000D03*
%TO.P,U1,3,ADC5*%
%TO.N,unconnected-(U1-ADC5-Pad3)*%
X113750000Y-62600000D03*
%TO.P,U1,4,UART1_TX*%
%TO.N,unconnected-(U1-UART1_TX-Pad4)*%
X112750000Y-62600000D03*
%TO.P,U1,5,UART1_RX*%
%TO.N,unconnected-(U1-UART1_RX-Pad5)*%
X111750000Y-62600000D03*
%TO.P,U1,6,PA1*%
%TO.N,unconnected-(U1-PA1-Pad6)*%
X110750000Y-62600000D03*
%TO.P,U1,7,SWDIO*%
%TO.N,SWDIO*%
X109750000Y-62600000D03*
%TO.P,U1,8,SWCLK*%
%TO.N,SWCLK*%
X108750000Y-62600000D03*
%TO.P,U1,9,I2C_SCL*%
%TO.N,I2C_SCL*%
X107750000Y-62600000D03*
%TO.P,U1,10,I2C_SDA*%
%TO.N,I2C_SDA*%
X106750000Y-62600000D03*
%TO.P,U1,11,GND*%
%TO.N,GND*%
X105750000Y-62600000D03*
%TO.P,U1,12,RF*%
%TO.N,RF*%
X104750000Y-62600000D03*
D25*
%TO.P,U1,13,SPI1_MOSI*%
%TO.N,PA7*%
X102350000Y-70500000D03*
%TO.P,U1,14,SPI1_MISO*%
%TO.N,PA6*%
X102350000Y-71500000D03*
%TO.P,U1,15,SPI1_CLK*%
%TO.N,BMA_INT2*%
X102350000Y-72500000D03*
%TO.P,U1,16,SPI1_NSS*%
%TO.N,BMA_INT1*%
X102350000Y-73500000D03*
D24*
%TO.P,U1,17,GND*%
%TO.N,GND*%
X104750000Y-77400000D03*
%TO.P,U1,18,GND*%
X105750000Y-77400000D03*
%TO.P,U1,19,PA8*%
%TO.N,PA8*%
X106750000Y-77400000D03*
%TO.P,U1,20,PA9*%
%TO.N,PA9*%
X111750000Y-77400000D03*
%TO.P,U1,21,BOOT*%
%TO.N,/BOOT*%
X112750000Y-77400000D03*
%TO.P,U1,22,RST*%
%TO.N,RST*%
X113750000Y-77400000D03*
%TO.P,U1,23,GND*%
%TO.N,GND*%
X114750000Y-77400000D03*
%TO.P,U1,24,VDD*%
%TO.N,+BATT*%
X115750000Y-77400000D03*
D25*
%TO.P,U1,25,ADC4*%
%TO.N,ADC4*%
X117650000Y-73500000D03*
%TO.P,U1,26,ADC3*%
%TO.N,ADC3*%
X117650000Y-72500000D03*
%TO.P,U1,27,PB12*%
%TO.N,PB12*%
X117650000Y-71500000D03*
%TO.P,U1,28,GND*%
%TO.N,GND*%
X117650000Y-70500000D03*
%TO.P,U1,29,PA0*%
%TO.N,PA0*%
X117650000Y-69500000D03*
%TO.P,U1,30,PB5*%
%TO.N,PB5*%
X117650000Y-68500000D03*
%TO.P,U1,31,ADC2*%
%TO.N,ADC2*%
X117650000Y-67500000D03*
%TO.P,U1,32,ADC1*%
%TO.N,ADC1*%
X117650000Y-66500000D03*
%TD*%
D11*
%TO.P,C3,1*%
%TO.N,RST*%
X112000000Y-79475000D03*
%TO.P,C3,2*%
%TO.N,GND*%
X112000000Y-81025000D03*
%TD*%
D14*
%TO.P,C8,1*%
%TO.N,+BATT*%
X92725000Y-72250000D03*
%TO.P,C8,2*%
%TO.N,GND*%
X94275000Y-72250000D03*
%TD*%
D10*
%TO.P,C5,1*%
%TO.N,+BATT*%
X126537500Y-102000000D03*
%TO.P,C5,2*%
%TO.N,GND*%
X123462500Y-102000000D03*
%TD*%
D26*
%TO.P,U2,1,+*%
%TO.N,+BATT*%
X117495000Y-117100000D03*
%TO.P,U2,2,-*%
%TO.N,GND*%
X102505000Y-117100000D03*
D27*
%TO.P,U2,3,3*%
%TO.N,unconnected-(U2-Pad3)*%
X102505000Y-89920000D03*
%TO.P,U2,4,4*%
%TO.N,unconnected-(U2-Pad4)*%
X117495000Y-89920000D03*
%TD*%
D28*
%TO.N,GND*%
X94250000Y-73250000D03*
X115000000Y-57000000D03*
X110500000Y-82000000D03*
X114000000Y-57000000D03*
X114000000Y-55000000D03*
X122212500Y-107000000D03*
X116250000Y-70500000D03*
X105750000Y-76000000D03*
X114750000Y-76000000D03*
X105750000Y-64000000D03*
X116000000Y-57000000D03*
X123250000Y-55250000D03*
X116000000Y-56000000D03*
X114000000Y-56000000D03*
X115000000Y-55000000D03*
X115000000Y-56000000D03*
X122212500Y-92000000D03*
X106750000Y-82250000D03*
X104750000Y-76000000D03*
X97500000Y-71250000D03*
X93000000Y-67800000D03*
X112000000Y-82000000D03*
X116000000Y-55000000D03*
X122250000Y-97000000D03*
X122250000Y-102000000D03*
%TD*%
D29*
%TO.N,GND*%
X94250000Y-72275000D02*
X94275000Y-72250000D01*
X110500000Y-81025000D02*
X110500000Y-82000000D01*
D30*
X93050000Y-67800000D02*
X93000000Y-67750000D01*
X106825000Y-81000000D02*
X106825000Y-82175000D01*
D29*
X123462500Y-92000000D02*
X122212500Y-92000000D01*
D30*
X115225000Y-79500000D02*
X115225000Y-81000000D01*
D29*
X97275000Y-71475000D02*
X97275000Y-72250000D01*
D30*
X117650000Y-70500000D02*
X116250000Y-70500000D01*
X104750000Y-77400000D02*
X104750000Y-76000000D01*
X94275000Y-72250000D02*
X94275000Y-71225000D01*
X94600000Y-70200000D02*
X94600000Y-70900000D01*
D29*
X123462500Y-102000000D02*
X122250000Y-102000000D01*
D31*
X122710000Y-56881000D02*
X122710000Y-55790000D01*
D29*
X123462500Y-97000000D02*
X122250000Y-97000000D01*
D30*
X93800000Y-67800000D02*
X93050000Y-67800000D01*
D29*
X112000000Y-81025000D02*
X112000000Y-82000000D01*
D30*
X114750000Y-77400000D02*
X114750000Y-79025000D01*
X94275000Y-71225000D02*
X94600000Y-70900000D01*
D29*
X114950000Y-52550000D02*
X114950000Y-54950000D01*
D30*
X114750000Y-79025000D02*
X115225000Y-79500000D01*
X105750000Y-77400000D02*
X105750000Y-76000000D01*
X105750000Y-62600000D02*
X105750000Y-64000000D01*
D29*
X94250000Y-73250000D02*
X94250000Y-72275000D01*
D31*
X122710000Y-55790000D02*
X123250000Y-55250000D01*
D29*
X97500000Y-71250000D02*
X97275000Y-71475000D01*
D30*
X106825000Y-82175000D02*
X106750000Y-82250000D01*
D29*
X123425000Y-107000000D02*
X122212500Y-107000000D01*
D30*
X114750000Y-76000000D02*
X114750000Y-77400000D01*
%TO.N,RST*%
X112000000Y-79475000D02*
X113500000Y-79475000D01*
D31*
X127500000Y-62000000D02*
X128750000Y-60750000D01*
X123980000Y-56020000D02*
X123980000Y-56881000D01*
X124750000Y-55250000D02*
X123980000Y-56020000D01*
X128750000Y-56250000D02*
X127750000Y-55250000D01*
X127750000Y-55250000D02*
X124750000Y-55250000D01*
X128750000Y-60750000D02*
X128750000Y-56250000D01*
X113750000Y-77400000D02*
X113750000Y-68000000D01*
D30*
X113750000Y-78750000D02*
X113750000Y-77400000D01*
D31*
X119750000Y-62000000D02*
X127500000Y-62000000D01*
D30*
X113500000Y-79475000D02*
X113500000Y-79000000D01*
D31*
X113750000Y-68000000D02*
X119750000Y-62000000D01*
D30*
X113500000Y-79000000D02*
X113750000Y-78750000D01*
D31*
%TO.N,I2C_SDA*%
X106750000Y-64025305D02*
X105025305Y-65750000D01*
X95400000Y-67350000D02*
X95400000Y-67800000D01*
X98250000Y-66750000D02*
X96000000Y-66750000D01*
X100000000Y-66750000D02*
X98250000Y-66750000D01*
X105025305Y-65750000D02*
X101000000Y-65750000D01*
X96000000Y-66750000D02*
X95400000Y-67350000D01*
X98250000Y-66750000D02*
X98250000Y-68225000D01*
X106750000Y-62600000D02*
X106750000Y-64025305D01*
X101000000Y-65750000D02*
X100000000Y-66750000D01*
%TO.N,I2C_SCL*%
X107750000Y-62600000D02*
X107750000Y-64250000D01*
X99750000Y-68225000D02*
X99750000Y-68250000D01*
X101475000Y-66500000D02*
X99750000Y-68225000D01*
X96200000Y-67800000D02*
X97400000Y-69000000D01*
X97400000Y-69000000D02*
X98250000Y-69000000D01*
X99750000Y-68250000D02*
X99000000Y-69000000D01*
X107750000Y-64250000D02*
X105500000Y-66500000D01*
X105500000Y-66500000D02*
X101475000Y-66500000D01*
X98250000Y-69000000D02*
X99000000Y-69000000D01*
%TO.N,+BATT*%
X125250000Y-56881000D02*
X126131000Y-56000000D01*
D29*
X113500000Y-81025000D02*
X113500000Y-84750000D01*
D30*
X93800000Y-69450000D02*
X94250000Y-69000000D01*
D31*
X115750000Y-65000000D02*
X111750000Y-65000000D01*
D30*
X95400000Y-70200000D02*
X95400000Y-70650000D01*
X95250000Y-69000000D02*
X96250000Y-69000000D01*
X100475000Y-69775000D02*
X101250000Y-69000000D01*
X92725000Y-71150000D02*
X92725000Y-72250000D01*
X97025000Y-69775000D02*
X98250000Y-69775000D01*
X115750000Y-77400000D02*
X116400000Y-77400000D01*
X116400000Y-77400000D02*
X116750000Y-77750000D01*
X94250000Y-69000000D02*
X95250000Y-69000000D01*
X96250000Y-69000000D02*
X97025000Y-69775000D01*
D31*
X128000000Y-56750000D02*
X128000000Y-60250000D01*
X126131000Y-56000000D02*
X127250000Y-56000000D01*
D29*
X116775000Y-79500000D02*
X116775000Y-81000000D01*
D30*
X95725000Y-72250000D02*
X95725000Y-73750000D01*
X95400000Y-69150000D02*
X95250000Y-69000000D01*
X95400000Y-70200000D02*
X95400000Y-69150000D01*
X93800000Y-69450000D02*
X93800000Y-70200000D01*
X93675000Y-70200000D02*
X92725000Y-71150000D01*
X91750000Y-69775000D02*
X91750000Y-70175000D01*
D31*
X127250000Y-56000000D02*
X128000000Y-56750000D01*
D30*
X116750000Y-77750000D02*
X116750000Y-79475000D01*
D29*
X116775000Y-84725000D02*
X116750000Y-84750000D01*
D30*
X116750000Y-79475000D02*
X116775000Y-79500000D01*
D31*
X111750000Y-65000000D02*
X108500000Y-68250000D01*
D30*
X95725000Y-70975000D02*
X95400000Y-70650000D01*
X95725000Y-72250000D02*
X95725000Y-70975000D01*
D31*
X128000000Y-60250000D02*
X127000000Y-61250000D01*
X119500000Y-61250000D02*
X115750000Y-65000000D01*
X127000000Y-61250000D02*
X119500000Y-61250000D01*
D30*
X91750000Y-70175000D02*
X92725000Y-71150000D01*
X126835000Y-67665000D02*
X116750000Y-77750000D01*
X101250000Y-69000000D02*
X105250000Y-69000000D01*
X93800000Y-70200000D02*
X93675000Y-70200000D01*
X105250000Y-69000000D02*
X105750000Y-68500000D01*
D29*
X116775000Y-81000000D02*
X116775000Y-84725000D01*
D30*
X128200000Y-67665000D02*
X126835000Y-67665000D01*
X99750000Y-69775000D02*
X100475000Y-69775000D01*
X98250000Y-69775000D02*
X99750000Y-69775000D01*
D31*
%TO.N,SWDIO*%
X125250000Y-58151000D02*
X125250000Y-59000000D01*
X123750000Y-60500000D02*
X110500000Y-60500000D01*
X110500000Y-60500000D02*
X109750000Y-61250000D01*
X109750000Y-61250000D02*
X109750000Y-62600000D01*
X125250000Y-59000000D02*
X123750000Y-60500000D01*
%TO.N,SWCLK*%
X108750000Y-62600000D02*
X108750000Y-61000000D01*
X108750000Y-61000000D02*
X110000000Y-59750000D01*
X110000000Y-59750000D02*
X123250000Y-59750000D01*
X123980000Y-59020000D02*
X123980000Y-58151000D01*
X123250000Y-59750000D02*
X123980000Y-59020000D01*
D30*
%TO.N,RF*%
X104750000Y-60250000D02*
X104750000Y-58825000D01*
X104750000Y-62600000D02*
X104750000Y-60250000D01*
%TO.N,/BOOT*%
X112250000Y-75750000D02*
X111250000Y-75750000D01*
X112750000Y-76250000D02*
X112250000Y-75750000D01*
X111250000Y-75750000D02*
X110500000Y-76500000D01*
X110500000Y-76500000D02*
X110500000Y-79475000D01*
X112750000Y-77400000D02*
X112750000Y-76250000D01*
%TO.N,PA8*%
X106750000Y-77400000D02*
X106750000Y-79462500D01*
%TO.N,Net-(ANT1-RX{slash}TX)*%
X104750000Y-55750000D02*
X104750000Y-52550000D01*
X104750000Y-57175000D02*
X104750000Y-55750000D01*
%TO.N,Net-(D1-K)*%
X105175000Y-81000000D02*
X105175000Y-79537500D01*
D31*
%TO.N,/CSB*%
X91750000Y-67500000D02*
X91750000Y-68225000D01*
X94600000Y-67350000D02*
X94250000Y-67000000D01*
X92250000Y-67000000D02*
X91750000Y-67500000D01*
X94250000Y-67000000D02*
X92250000Y-67000000D01*
X94600000Y-67800000D02*
X94600000Y-67350000D01*
D32*
%TO.N,/SDO*%
X96475000Y-72950000D02*
X97275000Y-73750000D01*
X96475000Y-70475000D02*
X96475000Y-72950000D01*
X96200000Y-70200000D02*
X96475000Y-70475000D01*
%TD*%
%TA.AperFunction,Conductor*%
%TO.N,+BATT*%
G36*
X108765677Y-67269685D02*
G01*
X108786319Y-67286319D01*
X109463681Y-67963681D01*
X109497166Y-68025004D01*
X109500000Y-68051362D01*
X109500000Y-80915192D01*
X109499682Y-80921463D01*
X109499500Y-80923255D01*
X109499500Y-82050748D01*
X109499681Y-82052528D01*
X109500000Y-82058807D01*
X109500000Y-83000000D01*
X110250000Y-83750000D01*
X124198638Y-83750000D01*
X124265677Y-83769685D01*
X124286319Y-83786319D01*
X128464226Y-87964226D01*
X128497711Y-88025549D01*
X128500538Y-88050588D01*
X128749445Y-111447866D01*
X128730475Y-111515111D01*
X128713133Y-111536866D01*
X121286319Y-118963681D01*
X121224996Y-118997166D01*
X121198638Y-119000000D01*
X116051362Y-119000000D01*
X115984323Y-118980315D01*
X115963681Y-118963681D01*
X115536319Y-118536319D01*
X115502834Y-118474996D01*
X115500000Y-118448638D01*
X115500000Y-115551361D01*
X115519685Y-115484322D01*
X115536314Y-115463685D01*
X115963680Y-115036319D01*
X116025004Y-115002834D01*
X116051362Y-115000000D01*
X119500000Y-115000000D01*
X125000000Y-109500000D01*
X125000000Y-89500000D01*
X121500000Y-86000000D01*
X110051362Y-86000000D01*
X109984323Y-85980315D01*
X109963681Y-85963681D01*
X108036319Y-84036319D01*
X108002834Y-83974996D01*
X108000000Y-83948638D01*
X108000000Y-75000000D01*
X107500000Y-74500000D01*
X105051362Y-74500000D01*
X104984323Y-74480315D01*
X104963681Y-74463681D01*
X104536319Y-74036319D01*
X104502834Y-73974996D01*
X104500000Y-73948638D01*
X104500000Y-68051361D01*
X104519685Y-67984322D01*
X104536314Y-67963685D01*
X105213680Y-67286319D01*
X105275004Y-67252834D01*
X105301362Y-67250000D01*
X108698638Y-67250000D01*
X108765677Y-67269685D01*
G37*
%TD.AperFunction*%
%TD*%
%TA.AperFunction,Conductor*%
%TO.N,GND*%
G36*
X116443039Y-54519685D02*
G01*
X116488794Y-54572489D01*
X116500000Y-54624000D01*
X116500000Y-57376000D01*
X116480315Y-57443039D01*
X116427511Y-57488794D01*
X116376000Y-57500000D01*
X113624000Y-57500000D01*
X113556961Y-57480315D01*
X113511206Y-57427511D01*
X113500000Y-57376000D01*
X113500000Y-54624000D01*
X113519685Y-54556961D01*
X113572489Y-54511206D01*
X113624000Y-54500000D01*
X116376000Y-54500000D01*
X116443039Y-54519685D01*
G37*
%TD.AperFunction*%
%TD*%
M02*
