%TF.GenerationSoftware,KiCad,Pcbnew,7.0.6*%
%TF.CreationDate,2023-11-18T03:16:50+01:00*%
%TF.ProjectId,LoRa_Sensor,4c6f5261-5f53-4656-9e73-6f722e6b6963,rev?*%
%TF.SameCoordinates,Original*%
%TF.FileFunction,Paste,Top*%
%TF.FilePolarity,Positive*%
%FSLAX46Y46*%
G04 Gerber Fmt 4.6, Leading zero omitted, Abs format (unit mm)*
G04 Created by KiCad (PCBNEW 7.0.6) date 2023-11-18 03:16:50*
%MOMM*%
%LPD*%
G01*
G04 APERTURE LIST*
G04 Aperture macros list*
%AMRoundRect*
0 Rectangle with rounded corners*
0 $1 Rounding radius*
0 $2 $3 $4 $5 $6 $7 $8 $9 X,Y pos of 4 corners*
0 Add a 4 corners polygon primitive as box body*
4,1,4,$2,$3,$4,$5,$6,$7,$8,$9,$2,$3,0*
0 Add four circle primitives for the rounded corners*
1,1,$1+$1,$2,$3*
1,1,$1+$1,$4,$5*
1,1,$1+$1,$6,$7*
1,1,$1+$1,$8,$9*
0 Add four rect primitives between the rounded corners*
20,1,$1+$1,$2,$3,$4,$5,0*
20,1,$1+$1,$4,$5,$6,$7,0*
20,1,$1+$1,$6,$7,$8,$9,0*
20,1,$1+$1,$8,$9,$2,$3,0*%
G04 Aperture macros list end*
%ADD10RoundRect,0.250000X0.412500X0.925000X-0.412500X0.925000X-0.412500X-0.925000X0.412500X-0.925000X0*%
%ADD11RoundRect,0.225000X-0.250000X0.225000X-0.250000X-0.225000X0.250000X-0.225000X0.250000X0.225000X0*%
%ADD12RoundRect,0.218750X-0.218750X-0.256250X0.218750X-0.256250X0.218750X0.256250X-0.218750X0.256250X0*%
%ADD13RoundRect,0.225000X0.250000X-0.225000X0.250000X0.225000X-0.250000X0.225000X-0.250000X-0.225000X0*%
%ADD14RoundRect,0.225000X-0.225000X-0.250000X0.225000X-0.250000X0.225000X0.250000X-0.225000X0.250000X0*%
%ADD15R,2.000000X2.500000*%
%ADD16RoundRect,0.225000X0.225000X0.250000X-0.225000X0.250000X-0.225000X-0.250000X0.225000X-0.250000X0*%
%ADD17C,0.863000*%
%ADD18RoundRect,0.200000X0.275000X-0.200000X0.275000X0.200000X-0.275000X0.200000X-0.275000X-0.200000X0*%
%ADD19R,0.400000X0.400000*%
%ADD20RoundRect,0.200000X0.200000X0.275000X-0.200000X0.275000X-0.200000X-0.275000X0.200000X-0.275000X0*%
%ADD21R,0.700000X1.800000*%
%ADD22R,1.800000X0.700000*%
G04 APERTURE END LIST*
D10*
%TO.C,C7*%
X126537500Y-92000000D03*
X123462500Y-92000000D03*
%TD*%
%TO.C,C6*%
X126537500Y-97000000D03*
X123462500Y-97000000D03*
%TD*%
D11*
%TO.C,R4*%
X110500000Y-79475000D03*
X110500000Y-81025000D03*
%TD*%
D12*
%TO.C,D1*%
X105212500Y-79500000D03*
X106787500Y-79500000D03*
%TD*%
D13*
%TO.C,R8*%
X91750000Y-69775000D03*
X91750000Y-68225000D03*
%TD*%
D14*
%TO.C,C10*%
X104750000Y-60250000D03*
X106300000Y-60250000D03*
%TD*%
D15*
%TO.C,ANT1*%
X104750000Y-52550000D03*
X114950000Y-52550000D03*
%TD*%
D16*
%TO.C,C2*%
X116775000Y-79500000D03*
X115225000Y-79500000D03*
%TD*%
D13*
%TO.C,R1*%
X113500000Y-81025000D03*
X113500000Y-79475000D03*
%TD*%
D17*
%TO.C,J2*%
X125250000Y-56881000D03*
X125250000Y-58151000D03*
X123980000Y-56881000D03*
X123980000Y-58151000D03*
X122710000Y-56881000D03*
X122710000Y-58151000D03*
%TD*%
D18*
%TO.C,R2*%
X104750000Y-58825000D03*
X104750000Y-57175000D03*
%TD*%
D14*
%TO.C,C11*%
X104750000Y-55750000D03*
X106300000Y-55750000D03*
%TD*%
D13*
%TO.C,R6*%
X98250000Y-69775000D03*
X98250000Y-68225000D03*
%TD*%
D19*
%TO.C,IC1*%
X93800000Y-67800000D03*
X94600000Y-67800000D03*
X95400000Y-67800000D03*
X96200000Y-67800000D03*
X96200000Y-70200000D03*
X95400000Y-70200000D03*
X94600000Y-70200000D03*
X93800000Y-70200000D03*
%TD*%
D14*
%TO.C,R3*%
X95725000Y-73750000D03*
X97275000Y-73750000D03*
%TD*%
D10*
%TO.C,C4*%
X126537500Y-107000000D03*
X123462500Y-107000000D03*
%TD*%
D13*
%TO.C,R7*%
X99750000Y-69775000D03*
X99750000Y-68225000D03*
%TD*%
D16*
%TO.C,C1*%
X116775000Y-81000000D03*
X115225000Y-81000000D03*
%TD*%
D14*
%TO.C,C9*%
X95725000Y-72250000D03*
X97275000Y-72250000D03*
%TD*%
D20*
%TO.C,R5*%
X106825000Y-81000000D03*
X105175000Y-81000000D03*
%TD*%
D21*
%TO.C,U1*%
X115750000Y-62600000D03*
X114750000Y-62600000D03*
X113750000Y-62600000D03*
X112750000Y-62600000D03*
X111750000Y-62600000D03*
X110750000Y-62600000D03*
X109750000Y-62600000D03*
X108750000Y-62600000D03*
X107750000Y-62600000D03*
X106750000Y-62600000D03*
X105750000Y-62600000D03*
X104750000Y-62600000D03*
D22*
X102350000Y-70500000D03*
X102350000Y-71500000D03*
X102350000Y-72500000D03*
X102350000Y-73500000D03*
D21*
X104750000Y-77400000D03*
X105750000Y-77400000D03*
X106750000Y-77400000D03*
X111750000Y-77400000D03*
X112750000Y-77400000D03*
X113750000Y-77400000D03*
X114750000Y-77400000D03*
X115750000Y-77400000D03*
D22*
X117650000Y-73500000D03*
X117650000Y-72500000D03*
X117650000Y-71500000D03*
X117650000Y-70500000D03*
X117650000Y-69500000D03*
X117650000Y-68500000D03*
X117650000Y-67500000D03*
X117650000Y-66500000D03*
%TD*%
D11*
%TO.C,C3*%
X112000000Y-79475000D03*
X112000000Y-81025000D03*
%TD*%
D14*
%TO.C,C8*%
X92725000Y-72250000D03*
X94275000Y-72250000D03*
%TD*%
D10*
%TO.C,C5*%
X126537500Y-102000000D03*
X123462500Y-102000000D03*
%TD*%
M02*
